<svg width="23" height="27" viewBox="0 0 23 27" fill="none" xmlns="http://www.w3.org/2000/svg">
<path fill-rule="evenodd" clip-rule="evenodd" d="M13.4644 3.64944C13.4948 3.03034 13.5555 2.41124 13.6162 1.79213C13.6066 1.64767 13.6001 1.50647 13.5936 1.36854C13.5798 1.07093 13.5666 0.788531 13.5251 0.521348C13.4948 0.325843 13.3126 0 13.1911 0C13.0089 0 12.7052 0.162921 12.6141 0.325843C12.3712 0.749438 12.1282 1.2382 12.0068 1.72697C11.612 3.25843 11.2779 4.78989 10.9743 6.35393C10.7921 7.26629 10.7617 8.17865 11.0654 9.05843C11.2476 9.54719 11.5209 9.9382 12.0675 9.9382C12.6141 9.9382 12.9178 9.54719 13.0696 9.05843C13.2215 8.60225 13.2822 8.11348 13.3126 7.62472C13.3429 6.95673 13.3657 6.29689 13.3885 5.63705C13.4113 4.97723 13.434 4.3174 13.4644 3.64944ZM9.36481 25.4157C9.42554 25.709 9.51664 26.0348 9.94179 26.1C9.97219 25.9304 10.0038 25.7594 10.0357 25.5872L10.0357 25.5868C10.163 24.8989 10.2941 24.1902 10.3669 23.4607C10.6402 21.3427 10.8528 19.2247 11.0654 17.1067C11.0958 16.8135 11.0654 16.4876 11.0046 16.1944C10.8224 15.5427 10.3366 15.1843 9.82032 15.282C9.30407 15.3798 9.06113 15.8034 9.06113 16.5202C9.0915 17.3674 9.0915 18.2472 9.0915 19.0944C9.0915 19.5517 9.08811 20.009 9.08473 20.4651L9.08472 20.4653C9.07798 21.3741 9.07128 22.278 9.0915 23.1674C9.0915 23.7919 9.19694 24.4165 9.30238 25.041C9.32347 25.1659 9.34456 25.2908 9.36481 25.4157ZM22.7872 13.6202C22.64 13.6553 22.4906 13.6952 22.3401 13.7353C21.932 13.8441 21.5164 13.9548 21.117 13.9786L20.8254 14.0079C18.6475 14.2261 16.495 14.4418 14.3147 14.5977C13.9503 14.6303 13.5252 14.5326 13.1911 14.3697C12.7356 14.1742 12.766 13.6528 13.1911 13.4247C13.4341 13.2944 13.7074 13.2292 13.9503 13.2292C16.8352 13.1315 19.7201 13.0989 22.605 13.3595C22.6658 13.3595 22.7265 13.3921 22.7872 13.4247V13.6202ZM7.75535 11.7846C8.10963 11.7521 8.46392 11.7195 8.81821 11.6978C8.81821 11.6326 8.81821 11.5674 8.84858 11.4697C8.72711 11.4534 8.61323 11.4289 8.49935 11.4045C8.38547 11.3801 8.2716 11.3556 8.15012 11.3393C7.07207 11.209 6.00161 11.0786 4.93115 10.9483C3.8607 10.818 2.79026 10.6876 1.71222 10.5573C1.53001 10.541 1.34781 10.5166 1.1656 10.4921C0.983397 10.4677 0.801192 10.4433 0.618987 10.427C0.315312 10.427 0.0723719 10.5573 0.0116369 10.8831C-0.0490981 11.2416 0.133107 11.5022 0.436782 11.6C0.649354 11.6652 0.892294 11.7303 1.13523 11.7303C1.49857 11.7462 1.86371 11.7641 2.22978 11.782C3.36293 11.8374 4.50495 11.8933 5.62962 11.8933C6.3382 11.915 7.04677 11.8498 7.75535 11.7846Z" fill="black"/>
</svg>
