<svg width="42" height="20" viewBox="0 0 42 20" fill="none" xmlns="http://www.w3.org/2000/svg">
<path d="M6.01878 16.8673C6.51308 16.5787 6.7827 16.4137 7.09726 16.29C7.86118 15.9188 8.58017 15.5064 9.34409 15.1353C9.65865 15.0116 10.0181 14.9291 10.3776 14.8878C10.7821 14.8466 11.1865 15.0116 11.3213 15.3827C11.4561 15.7951 11.2314 16.0838 10.8719 16.29C9.61371 17.0735 8.35548 17.9396 7.09726 18.7231C6.60296 19.053 6.06372 19.3417 5.52448 19.5891C3.86182 20.4139 2.69347 20.0015 2.28904 18.3107C1.7498 15.9601 1.39031 13.5682 0.98588 11.2176C0.896007 10.7639 1.03082 10.2278 1.16563 9.77418C1.2555 9.36178 1.52512 9.07311 2.15423 9.11435C2.69347 10.0629 3.14284 11.0526 3.41246 12.1248C3.68208 13.1146 3.9517 14.1455 4.40106 15.1353C4.62575 14.6404 4.85043 14.1043 5.12005 13.6094C5.88397 12.1248 6.60295 10.599 7.50169 9.19683C9.34409 6.2276 12.1751 4.74299 15.8599 4.53679C17.8371 4.45431 19.8143 4.70175 21.7466 5.03166C22.6004 5.15538 23.4542 5.2791 24.308 5.40281C26.3751 5.65025 28.3073 5.2791 30.1497 4.45431C33.1155 3.13465 35.4073 1.11393 36.9352 -1.56662C38.0136 -3.46363 38.8225 -5.48436 39.4067 -7.54632C39.4965 -7.83499 39.4516 -8.12367 39.5415 -8.41234C39.6314 -8.61854 39.8111 -8.94845 39.9908 -8.98969C40.2155 -9.03093 40.6649 -8.94845 40.7997 -8.74225C41.0244 -8.49482 41.1143 -8.08243 41.1143 -7.75251C41.1143 -7.13393 40.9794 -6.51533 40.8446 -5.89674C39.9459 -2.35017 38.4181 0.948973 35.4522 3.50581C33.2054 5.44405 30.644 6.84619 27.6333 7.42354C25.7459 7.79469 23.8586 7.54726 21.9713 7.25858C20.8029 7.09362 19.6346 6.84619 18.4662 6.72247C17.4327 6.63999 16.3991 6.68123 15.3656 6.76371C13.5232 6.92867 11.9953 7.71221 10.827 9.03187C10.2878 9.60922 9.83839 10.2278 9.43396 10.8876C8.40042 12.6197 7.41181 14.393 6.37827 16.125C6.24346 16.29 6.19853 16.4962 6.01878 16.8673Z" fill="black"/>
</svg>
