<svg width="59" height="52" viewBox="0 0 59 52" fill="none" xmlns="http://www.w3.org/2000/svg">
<path d="M29.5679 51.5435C23.3322 51.4889 17.1743 49.6902 11.4923 46.2636C11.154 46.0626 10.8669 45.7347 10.666 45.3198C10.465 44.905 10.3588 44.4212 10.3604 43.9273V23.1956C10.3609 22.5165 10.5635 21.8653 10.9236 21.385C11.2837 20.9048 11.7719 20.6347 12.2811 20.6339H46.8547C47.364 20.6347 47.8522 20.9048 48.2123 21.3851C48.5724 21.8653 48.7749 22.5165 48.7755 23.1956V43.9274C48.777 44.4212 48.6709 44.905 48.4699 45.3199C48.2689 45.7347 47.9818 46.0626 47.6436 46.2636C41.9615 49.6903 35.8037 51.489 29.5679 51.5435V51.5435Z" fill="#E4D678"/>
<path d="M29.563 34.7484C29.3067 34.7487 29.0529 34.6806 28.8166 34.5482L1.40018 19.1212C1.04662 18.9223 0.745848 18.5867 0.536636 18.1577C0.327425 17.7286 0.219366 17.2259 0.226397 16.7142C0.233428 16.2025 0.355234 15.7053 0.576092 15.2868C0.796949 14.8683 1.10673 14.5476 1.46552 14.3661L28.8823 0.494245C29.3239 0.269791 29.8121 0.271176 30.253 0.498136L57.3024 14.37C57.6591 14.5529 57.9669 14.8737 58.1861 15.2912C58.4054 15.7087 58.5263 16.204 58.5334 16.7137C58.5405 17.2234 58.4334 17.7243 58.2258 18.1523C58.0182 18.5803 57.7196 18.9161 57.3682 19.1165L30.3185 34.5432C30.0796 34.6789 29.8226 34.7487 29.563 34.7484V34.7484Z" fill="#E4D678"/>
<path d="M13.5615 47.6743C14.9759 47.6743 16.1225 46.145 16.1225 44.2586C16.1225 42.3722 14.9759 40.843 13.5615 40.843C12.1471 40.843 11.0005 42.3722 11.0005 44.2586C11.0005 46.145 12.1471 47.6743 13.5615 47.6743Z" fill="#3F3D56"/>
<path opacity="0.2" d="M57.4619 16.9267L30.412 32.3535C30.2012 32.4737 29.9743 32.5361 29.7449 32.5369C29.5156 32.5376 29.2885 32.4767 29.0771 32.3578L1.66072 16.9312C1.31641 16.7421 1.02916 16.4054 0.844357 15.9742C0.723465 16.2538 0.648558 16.5645 0.624596 16.8856C0.600634 17.2068 0.628173 17.5311 0.705383 17.8369C0.782593 18.1428 0.907703 18.4233 1.07242 18.6597C1.23713 18.8962 1.43766 19.0832 1.66072 19.2083L29.0771 34.6349C29.2885 34.7538 29.5156 34.8147 29.7449 34.8139C29.9743 34.8132 30.2012 34.7508 30.412 34.6306L57.4619 19.2038C57.6838 19.0775 57.8831 18.8899 58.0467 18.6534C58.2102 18.4169 58.3343 18.1367 58.4107 17.8315C58.4872 17.5263 58.5142 17.2029 58.49 16.8828C58.4658 16.5626 58.391 16.2529 58.2705 15.9742C58.087 16.4019 57.8028 16.7367 57.4619 16.9267V16.9267Z" fill="black"/>
<path d="M13.7769 44.2453C13.8901 44.2453 13.9987 44.1853 14.0788 44.0786C14.1588 43.9718 14.2038 43.827 14.2038 43.676V24.6274L28.2813 17.7875C28.3945 17.7898 28.5037 17.732 28.585 17.6268C28.6662 17.5216 28.7128 17.3777 28.7145 17.2267C28.7162 17.0758 28.6728 16.9301 28.594 16.8217C28.5151 16.7134 28.4072 16.6512 28.294 16.649L14.2165 23.4889C14.1032 23.4854 13.9906 23.5126 13.8854 23.5689C13.7802 23.6252 13.6847 23.7093 13.6047 23.8163C13.5238 23.922 13.4596 24.0482 13.4158 24.1875C13.3721 24.3268 13.3498 24.4764 13.3501 24.6274V43.676C13.3501 43.827 13.3951 43.9718 13.4751 44.0785C13.5552 44.1853 13.6637 44.2453 13.7769 44.2453V44.2453Z" fill="#3F3D56"/>
</svg>
