<svg width="318" height="307" viewBox="0 0 318 307" fill="none" xmlns="http://www.w3.org/2000/svg">
<g clip-path="url(#clip0_130_4)">
<path d="M202.369 230.148V304.154H63.3491C47.5097 304.154 34.6226 287.554 34.6226 267.151C34.6226 246.748 47.5096 230.148 63.3491 230.148H202.369Z" fill="#F2F2F2"/>
<path d="M205.783 303.584C205.783 304.339 205.558 305.063 205.157 305.597C204.757 306.13 204.215 306.43 203.649 306.431H60.8725C53.118 306.431 45.6812 302.322 40.1979 295.009C34.7147 287.696 31.6343 277.778 31.6343 267.436C31.6343 257.093 34.7147 247.175 40.1979 239.862C45.6812 232.549 53.118 228.441 60.8725 228.441H203.649C204.215 228.441 204.758 228.74 205.158 229.274C205.558 229.808 205.783 230.532 205.783 231.287C205.783 232.042 205.558 232.766 205.158 233.3C204.758 233.833 204.215 234.133 203.649 234.133H60.8725C54.25 234.133 47.8989 237.642 43.2161 243.887C38.5334 250.133 35.9026 258.603 35.9026 267.436C35.9026 276.268 38.5334 284.739 43.2161 290.984C47.8989 297.229 54.25 300.738 60.8725 300.738H203.649C204.215 300.738 204.757 301.038 205.157 301.572C205.558 302.106 205.783 302.83 205.783 303.584Z" fill="#E4D678"/>
<path d="M202.368 247.227H52.9762C52.8629 247.227 52.7544 247.167 52.6743 247.06C52.5943 246.953 52.5493 246.808 52.5493 246.657C52.5493 246.506 52.5943 246.362 52.6743 246.255C52.7544 246.148 52.8629 246.088 52.9762 246.088H202.368C202.482 246.088 202.59 246.148 202.67 246.255C202.75 246.362 202.795 246.506 202.795 246.657C202.795 246.808 202.75 246.953 202.67 247.06C202.59 247.167 202.482 247.227 202.368 247.227Z" fill="#CCCCCC"/>
<path d="M202.368 260.889H52.9762C52.8629 260.889 52.7544 260.829 52.6743 260.722C52.5943 260.616 52.5493 260.471 52.5493 260.32C52.5493 260.169 52.5943 260.024 52.6743 259.917C52.7544 259.811 52.8629 259.751 52.9762 259.751H202.368C202.482 259.751 202.59 259.811 202.67 259.917C202.75 260.024 202.795 260.169 202.795 260.32C202.795 260.471 202.75 260.616 202.67 260.722C202.59 260.829 202.482 260.889 202.368 260.889Z" fill="#CCCCCC"/>
<path d="M202.368 274.552H52.9762C52.8629 274.552 52.7544 274.492 52.6743 274.385C52.5943 274.278 52.5493 274.133 52.5493 273.982C52.5493 273.831 52.5943 273.686 52.6743 273.58C52.7544 273.473 52.8629 273.413 52.9762 273.413H202.368C202.482 273.413 202.59 273.473 202.67 273.58C202.75 273.686 202.795 273.831 202.795 273.982C202.795 274.133 202.75 274.278 202.67 274.385C202.59 274.492 202.482 274.552 202.368 274.552Z" fill="#CCCCCC"/>
<path d="M202.368 288.214H52.9762C52.8629 288.214 52.7544 288.154 52.6743 288.047C52.5943 287.941 52.5493 287.796 52.5493 287.645C52.5493 287.494 52.5943 287.349 52.6743 287.242C52.7544 287.136 52.8629 287.076 52.9762 287.076H202.368C202.482 287.076 202.59 287.136 202.67 287.242C202.75 287.349 202.795 287.494 202.795 287.645C202.795 287.796 202.75 287.941 202.67 288.047C202.59 288.154 202.482 288.214 202.368 288.214Z" fill="#CCCCCC"/>
<path d="M309.81 244.079L274.996 301.705L166.744 185.375C154.41 172.12 152.184 148.411 161.783 132.523C171.381 116.636 189.225 114.494 201.559 127.748L309.81 244.079Z" fill="#F2F2F2"/>
<path d="M277.922 304.12C277.567 304.707 277.051 305.082 276.488 305.163C275.926 305.244 275.362 305.023 274.921 304.55L163.744 185.076C157.706 178.587 153.848 169.165 153.018 158.882C152.189 148.599 154.456 138.298 159.322 130.245C164.187 122.192 171.252 117.046 178.962 115.94C186.672 114.834 194.395 117.857 200.434 124.346L311.611 243.821C311.829 244.055 312.011 244.345 312.145 244.673C312.28 245.001 312.364 245.361 312.394 245.733C312.424 246.105 312.399 246.481 312.32 246.839C312.241 247.198 312.11 247.533 311.934 247.824C311.758 248.115 311.541 248.357 311.295 248.536C311.049 248.716 310.779 248.828 310.5 248.868C310.221 248.908 309.939 248.874 309.67 248.769C309.401 248.663 309.151 248.488 308.932 248.253L197.755 128.779C195.202 126.033 192.268 123.985 189.122 122.752C185.975 121.518 182.677 121.124 179.415 121.591C176.154 122.058 172.994 123.377 170.115 125.473C167.236 127.57 164.696 130.402 162.638 133.808C160.58 137.215 159.045 141.128 158.122 145.326C157.198 149.523 156.904 153.922 157.255 158.271C157.607 162.621 158.597 166.835 160.17 170.673C161.743 174.512 163.867 177.9 166.422 180.643L277.599 300.117C278.04 300.591 278.321 301.279 278.382 302.029C278.442 302.78 278.277 303.532 277.922 304.12V304.12Z" fill="#CCCCCC"/>
<path d="M301.776 257.377L185.447 132.367C185.403 132.32 185.367 132.262 185.34 132.196C185.313 132.131 185.297 132.059 185.291 131.985C185.285 131.91 185.29 131.835 185.305 131.763C185.321 131.692 185.347 131.625 185.383 131.566C185.418 131.508 185.461 131.46 185.51 131.424C185.56 131.388 185.614 131.366 185.669 131.358C185.725 131.35 185.781 131.356 185.835 131.377C185.889 131.398 185.939 131.433 185.983 131.48L302.311 256.491C302.355 256.538 302.392 256.596 302.418 256.661C302.445 256.727 302.462 256.799 302.468 256.873C302.474 256.948 302.469 257.023 302.454 257.095C302.438 257.167 302.412 257.233 302.376 257.292C302.341 257.35 302.298 257.398 302.249 257.434C302.199 257.47 302.145 257.493 302.089 257.501C302.034 257.509 301.977 257.502 301.923 257.481C301.87 257.459 301.819 257.424 301.776 257.377V257.377Z" fill="#CCCCCC"/>
<path d="M295.349 268.016L179.02 143.006C178.932 142.911 178.876 142.773 178.864 142.623C178.852 142.473 178.885 142.323 178.956 142.206C179.027 142.088 179.13 142.013 179.242 141.997C179.355 141.981 179.467 142.025 179.556 142.119L295.884 267.13C295.928 267.176 295.964 267.234 295.991 267.3C296.018 267.366 296.035 267.438 296.041 267.512C296.047 267.586 296.042 267.662 296.026 267.733C296.011 267.805 295.984 267.872 295.949 267.93C295.914 267.989 295.871 268.037 295.821 268.073C295.772 268.109 295.718 268.131 295.662 268.139C295.607 268.147 295.55 268.14 295.496 268.119C295.442 268.098 295.392 268.063 295.349 268.016V268.016Z" fill="#CCCCCC"/>
<path d="M288.921 278.655L172.593 153.644C172.504 153.55 172.448 153.412 172.436 153.262C172.424 153.112 172.457 152.962 172.528 152.844C172.599 152.726 172.702 152.651 172.815 152.635C172.927 152.619 173.04 152.663 173.128 152.758L289.457 277.768C289.501 277.815 289.537 277.873 289.564 277.939C289.591 278.004 289.608 278.076 289.614 278.151C289.62 278.225 289.615 278.3 289.599 278.372C289.583 278.444 289.557 278.511 289.522 278.569C289.486 278.627 289.443 278.675 289.394 278.711C289.345 278.747 289.291 278.77 289.235 278.778C289.179 278.786 289.123 278.779 289.069 278.758C289.015 278.737 288.965 278.702 288.921 278.655V278.655Z" fill="#CCCCCC"/>
<path d="M282.494 289.294L166.165 164.283C166.122 164.236 166.085 164.178 166.059 164.113C166.032 164.047 166.015 163.975 166.009 163.901C166.003 163.826 166.008 163.751 166.024 163.679C166.039 163.608 166.066 163.541 166.101 163.483C166.136 163.424 166.179 163.376 166.229 163.34C166.278 163.304 166.332 163.282 166.388 163.274C166.443 163.266 166.5 163.273 166.553 163.294C166.607 163.315 166.657 163.35 166.701 163.397L283.03 288.407C283.073 288.454 283.11 288.512 283.137 288.577C283.164 288.643 283.181 288.715 283.187 288.789C283.193 288.864 283.188 288.939 283.172 289.011C283.156 289.083 283.13 289.15 283.095 289.208C283.059 289.266 283.016 289.315 282.967 289.35C282.918 289.386 282.864 289.409 282.808 289.417C282.752 289.425 282.696 289.418 282.642 289.397C282.588 289.376 282.538 289.341 282.494 289.294V289.294Z" fill="#CCCCCC"/>
<path d="M317.138 307H0.426835C0.313631 307 0.205064 306.94 0.125017 306.833C0.0449696 306.727 0 306.582 0 306.431C0 306.28 0.0449696 306.135 0.125017 306.028C0.205064 305.921 0.313631 305.861 0.426835 305.861H317.138C317.251 305.861 317.36 305.921 317.44 306.028C317.52 306.135 317.565 306.28 317.565 306.431C317.565 306.582 317.52 306.727 317.44 306.833C317.36 306.94 317.251 307 317.138 307Z" fill="#CCCCCC"/>
<path d="M144.305 222.37L139.425 222.369L137.104 197.267L144.306 197.268L144.305 222.37Z" fill="#FFB8B8"/>
<path d="M135.939 220.51H145.35V228.412H130.014C130.014 227.375 130.167 226.347 130.465 225.388C130.763 224.429 131.199 223.558 131.75 222.824C132.3 222.091 132.953 221.509 133.672 221.111C134.391 220.714 135.161 220.51 135.939 220.51V220.51Z" fill="#2F2E41"/>
<path d="M94.4527 222.37L89.5731 222.369L87.2524 197.267L94.4544 197.268L94.4527 222.37Z" fill="#FFB8B8"/>
<path d="M86.0874 220.51H95.4982V228.412H80.1621C80.1621 227.375 80.3154 226.347 80.6131 225.388C80.9109 224.429 81.3474 223.558 81.8976 222.824C82.4478 222.091 83.101 221.509 83.8199 221.111C84.5388 220.714 85.3093 220.51 86.0874 220.51V220.51Z" fill="#2F2E41"/>
<path d="M110.751 36.1675V33.3212C110.751 28.452 112.201 23.7824 114.783 20.3394C117.364 16.8964 120.866 14.9622 124.516 14.9622H124.516C128.167 14.9622 131.669 16.8964 134.25 20.3394C136.832 23.7824 138.282 28.452 138.282 33.3212V36.1675C138.282 39.6778 137.236 43.0444 135.375 45.5265C133.514 48.0087 130.99 49.4031 128.358 49.4031H120.675C119.372 49.4031 118.081 49.0608 116.877 48.3956C115.673 47.7305 114.579 46.7555 113.658 45.5265C112.736 44.2975 112.005 42.8384 111.506 41.2326C111.008 39.6268 110.751 37.9057 110.751 36.1675V36.1675Z" fill="#2F2E41"/>
<path d="M124.517 50.3825C130.307 50.3825 135 44.1226 135 36.4006C135 28.6786 130.307 22.4187 124.517 22.4187C118.727 22.4187 114.033 28.6786 114.033 36.4006C114.033 44.1226 118.727 50.3825 124.517 50.3825Z" fill="#FFB8B8"/>
<path d="M67.4932 84.4545C67.9186 83.9188 68.427 83.5139 68.9824 83.2685C69.5379 83.0231 70.1269 82.9431 70.708 83.0341C71.2892 83.1252 71.8483 83.385 72.3459 83.7954C72.8436 84.2058 73.2678 84.7568 73.5885 85.4095L82.5754 83.1422L84.9404 90.0899L72.2155 93.054C71.3577 93.6999 70.352 93.9038 69.389 93.6269C68.426 93.3501 67.5726 92.6117 66.9905 91.5517C66.4084 90.4917 66.1381 89.1838 66.2307 87.8757C66.3234 86.5677 66.7726 85.3504 67.4932 84.4545V84.4545Z" fill="#FFB8B8"/>
<path d="M116.344 59.1878L116.461 59.4253L101.724 72.3731L76.8576 82.9634C76.528 83.1046 76.2452 83.3939 76.0575 83.7819C75.8698 84.1699 75.7887 84.6327 75.8281 85.0915L76.3705 91.3231C76.3946 91.5989 76.4616 91.8649 76.5673 92.1042C76.6729 92.3434 76.8149 92.5506 76.9841 92.7123C77.1533 92.8741 77.346 92.987 77.5498 93.0436C77.7536 93.1003 77.964 93.0995 78.1676 93.0414L101.571 86.3509C102.703 86.029 103.774 85.4001 104.717 84.5033L121.273 68.7932C121.873 68.2206 122.352 67.4506 122.663 66.558C122.974 65.6655 123.107 64.6808 123.048 63.6997C122.987 62.7172 122.736 61.7728 122.319 60.9593C121.901 60.1457 121.332 59.4911 120.668 59.0599C120.003 58.6286 119.266 58.4355 118.528 58.4996C117.79 58.5636 117.078 58.8827 116.461 59.4253L116.344 59.1878Z" fill="#CCCCCC"/>
<path d="M139.512 215.246C139.138 215.246 138.771 215.101 138.458 214.828C138.144 214.555 137.897 214.166 137.746 213.709L115.376 139.988C115.324 139.828 115.236 139.693 115.125 139.601C115.013 139.51 114.884 139.466 114.753 139.476C114.622 139.486 114.497 139.549 114.394 139.656C114.291 139.764 114.216 139.911 114.177 140.078L95.9263 211.848C95.8493 212.182 95.7218 212.491 95.5518 212.757C95.3818 213.023 95.1728 213.24 94.9376 213.394C94.7025 213.548 94.4462 213.636 94.1845 213.653C93.9228 213.671 93.6612 213.616 93.4159 213.494L87.2958 210.433C86.9636 210.268 86.6721 209.984 86.4538 209.611C86.2355 209.239 86.0989 208.793 86.0592 208.324C83.306 176.335 107.316 95.591 107.559 94.7794L107.626 94.5545L129.513 101.012L129.558 101.078C138.29 113.783 145.468 193.916 146.818 209.851C146.868 210.426 146.77 211.007 146.54 211.499C146.309 211.99 145.96 212.362 145.55 212.553L140.148 215.101C139.944 215.197 139.729 215.246 139.512 215.246Z" fill="#2F2E41"/>
<path d="M120.655 103.611C115.352 103.611 109.44 102.201 107.62 96.3805L107.578 96.2468L107.635 96.1228C109.071 92.9796 110.969 87.6176 109.949 86.6111C107.939 84.629 106.964 81.3681 107.05 76.9191C107.238 67.2609 112.172 58.686 119.328 55.5814H119.329C121.326 54.7288 123.359 54.0308 125.417 53.4908C126.917 53.0871 128.465 53.1315 129.951 53.6209C131.437 54.1102 132.823 55.0324 134.01 56.3211C135.212 57.6182 136.183 59.2543 136.854 61.1117C137.526 62.9691 137.88 65.0017 137.892 67.0635C137.967 77.3849 136.776 91.7604 130.674 101.63C130.388 102.088 129.99 102.396 129.55 102.502C126.614 103.21 123.638 103.581 120.655 103.611Z" fill="#CCCCCC"/>
<path d="M118.682 103.224C118.97 101.843 119.656 100.671 120.589 99.9601C121.523 99.2498 122.629 99.0594 123.667 99.4304C123.878 99.5094 124.085 99.6115 124.285 99.7357L131.108 91.4534L135.854 95.7174L126.096 107.234C125.655 108.294 124.961 109.126 124.125 109.6C123.289 110.073 122.358 110.159 121.48 109.845C120.969 109.659 120.491 109.339 120.073 108.904C119.655 108.47 119.306 107.929 119.046 107.313C118.785 106.697 118.619 106.019 118.557 105.317C118.494 104.615 118.537 103.904 118.682 103.224V103.224Z" fill="#FFB8B8"/>
<path d="M130.027 103.329C129.585 103.33 129.155 103.125 128.813 102.751L126.122 99.8186C125.897 99.5741 125.718 99.2651 125.595 98.9147C125.473 98.5644 125.412 98.1817 125.417 97.7954C125.421 97.4091 125.491 97.0291 125.621 96.684C125.751 96.3388 125.939 96.0374 126.168 95.8023L137.455 84.2576C137.588 84.1201 137.676 83.9177 137.699 83.6945C137.721 83.4713 137.677 83.2451 137.576 83.0651L130.61 70.7824C129.8 69.3602 129.394 67.6018 129.464 65.8187C129.533 64.0357 130.073 62.3428 130.988 61.0398V61.0398C131.952 59.6512 133.272 58.7968 134.687 58.6459C136.101 58.495 137.506 59.0588 138.623 60.2253L138.667 60.2873L145.942 74.1789C146.728 75.0014 147.362 76.0553 147.792 77.2583C148.223 78.4613 148.439 79.7808 148.424 81.1138C148.41 82.4467 148.164 83.757 147.706 84.9424C147.249 86.1277 146.592 87.1561 145.788 87.947L131.171 102.827C130.84 103.153 130.439 103.329 130.027 103.329Z" fill="#CCCCCC"/>
<path d="M115.23 32.4672V25.53L124.517 20.1219L133.371 25.53V32.4672C133.371 32.7692 133.281 33.0588 133.121 33.2723C132.961 33.4858 132.744 33.6058 132.517 33.6058H116.084C115.858 33.6058 115.641 33.4858 115.481 33.2723C115.32 33.0588 115.23 32.7692 115.23 32.4672Z" fill="#2F2E41"/>
<path d="M124.09 15.8825C122.725 10.054 125.593 3.37423 129.832 1.06716C134.071 -1.23991 139.143 0.372805 142.719 4.18443C146.296 7.99605 148.516 13.7052 149.692 19.6067C150.868 25.5082 151.091 31.662 151.308 37.7615C156.516 39.0374 160.059 47.2764 158.255 53.9165C156.451 60.5565 149.773 63.8552 145.161 60.3847C140.549 56.9141 139.213 47.5848 142.541 42.0919C144.116 39.4928 144.996 36.2671 145.041 32.9258C145.087 29.5845 144.295 26.3186 142.791 23.6453C141.288 20.972 139.158 19.0441 136.74 18.167C134.323 17.29 131.754 17.5138 129.443 18.8032C126.876 20.2348 123.655 16.5151 124.09 15.8825Z" fill="#2F2E41"/>
</g>
<defs>
<clipPath id="clip0_130_4">
<rect width="317.565" height="307" fill="white"/>
</clipPath>
</defs>
</svg>
