<svg width="18" height="23" viewBox="0 0 18 23" fill="none" xmlns="http://www.w3.org/2000/svg">
<path fill-rule="evenodd" clip-rule="evenodd" d="M8.91754 4.30008C8.88332 4.54933 8.84909 4.85046 8.81196 5.17725L8.81195 5.17733C8.77563 5.49693 8.73652 5.84107 8.6919 6.1852C8.64677 6.50422 8.53395 6.79424 8.42113 7.08426C8.0601 7.92532 7.7442 7.95432 7.33805 7.17127C6.68369 5.89518 6.45805 4.44509 6.32266 2.966C6.31702 2.87899 6.30997 2.79198 6.30292 2.70498C6.28176 2.44396 6.26061 2.18294 6.27753 1.92193C6.3001 1.54491 6.34523 1.13888 6.48061 0.790857C6.70625 0.181818 7.24779 -0.108201 7.76677 0.0368081C8.28574 0.152816 8.64677 0.645847 8.73702 1.37089C8.78507 2.00898 8.82174 2.64707 8.86319 3.3681L8.86319 3.36816L8.8632 3.36833C8.88015 3.66316 8.89789 3.97185 8.91754 4.30008ZM16.9169 10.9206C16.966 10.8688 17.0146 10.8175 17.0632 10.7675C17.0519 10.7385 17.0463 10.7023 17.0406 10.666L17.0406 10.666L17.0406 10.666C17.035 10.6297 17.0293 10.5935 17.0181 10.5645C16.9743 10.5324 16.9306 10.498 16.8864 10.4633L16.8864 10.4633C16.7709 10.3726 16.6522 10.2794 16.5216 10.2165C14.9422 9.28841 13.2498 9.34641 11.5801 9.57843C11.5199 9.57843 11.4598 9.60421 11.3996 9.62999C11.3695 9.64288 11.3394 9.65577 11.3093 9.66543C10.7678 9.92645 10.4293 10.5355 10.4519 11.2025C10.4745 11.8696 10.8355 12.4786 11.377 12.6526C11.5801 12.7396 11.8057 12.7396 12.0088 12.7396C12.5504 12.7106 13.0919 12.6526 13.6334 12.5946C14.6037 12.4786 15.5063 12.1016 16.3411 11.4635C16.5536 11.3043 16.7383 11.1093 16.9169 10.9206ZM6.5483 15.7268C6.45804 16.5679 6.41291 17.3799 6.36778 18.221C6.32265 19.091 6.34522 19.9611 6.5483 20.8601C6.68368 21.4692 6.88676 22.0202 7.29291 22.4263C7.65394 22.7743 7.83445 22.7453 8.08266 22.2522C8.39856 21.6142 8.6242 20.9472 8.69189 20.1931C8.78088 19.2018 8.85037 18.198 8.91959 17.1981L8.91959 17.198L8.9196 17.198C8.95568 16.6768 8.99169 16.1566 9.03035 15.6398C9.03035 15.5238 9.03035 15.3788 9.00779 15.2338C8.94009 14.5377 8.53394 14.0157 8.03753 13.8997C7.54112 13.7547 7.02214 14.0737 6.77394 14.6828C6.66112 15.0018 6.59342 15.3788 6.5483 15.7268ZM6.52222 12.4265C6.72002 12.3357 6.92712 12.2406 7.02215 11.8986L6.68369 11.7246C4.85599 11.3185 3.0283 11.3185 1.17804 11.4925C0.90727 11.5216 0.6365 11.6376 0.410859 11.8116C-0.175809 12.3046 -0.13068 13.3487 0.52368 13.7257C0.771885 13.8707 1.08778 13.8997 1.35855 13.8997C1.80271 13.8725 2.22704 13.7944 2.66871 13.713C2.69823 13.7076 2.72784 13.7021 2.75753 13.6967C3.99856 13.4647 5.23958 13.0877 6.41292 12.4786C6.4485 12.4603 6.4852 12.4435 6.52222 12.4265Z" fill="black"/>
</svg>
