<svg width="32" height="43" viewBox="0 0 32 43" fill="none" xmlns="http://www.w3.org/2000/svg">
<path d="M9.11515 14.2353H1.07335C0.480511 14.2353 0 14.9096 0 15.735V26.9709C0 27.7992 0.482591 28.4706 1.07335 28.4706H9.11515C9.70799 28.4706 10.1885 27.7963 10.1885 26.9709V15.735C10.1885 14.9096 9.70591 14.2353 9.11515 14.2353ZM9.67887 26.9709C9.67887 27.404 9.42509 27.7585 9.11515 27.7585H1.07335C0.76341 27.7585 0.509633 27.404 0.509633 26.9709V15.735C0.509633 15.3019 0.76341 14.9474 1.07335 14.9474H9.11515C9.42509 14.9474 9.67887 15.3019 9.67887 15.735V26.9709Z" fill="#E4D678"/>
<path d="M6.64671 19.4057L4.3856 22.5445L3.54315 21.3617C3.4433 21.2222 3.28313 21.2222 3.18328 21.3617C3.08344 21.5012 3.08344 21.725 3.18328 21.8645L4.20463 23.3002C4.25247 23.367 4.31696 23.4048 4.3856 23.4048C4.45217 23.4048 4.51665 23.367 4.56449 23.3002L7.00657 19.9085C7.10642 19.769 7.10642 19.5452 7.00657 19.4057C6.90673 19.2662 6.74656 19.2662 6.64671 19.4057Z" fill="#E4D678"/>
<path d="M9.11515 28.4706H1.07335C0.480511 28.4706 0 29.1449 0 29.9703V41.2062C0 42.0345 0.482591 42.7059 1.07335 42.7059H9.11515C9.70799 42.7059 10.1885 42.0316 10.1885 41.2062V29.9703C10.1885 29.1449 9.70591 28.4706 9.11515 28.4706ZM9.67887 41.2062C9.67887 41.6393 9.42509 41.9938 9.11515 41.9938H1.07335C0.76341 41.9938 0.509633 41.6393 0.509633 41.2062V29.9703C0.509633 29.5372 0.76341 29.1826 1.07335 29.1826H9.11515C9.42509 29.1826 9.67887 29.5372 9.67887 29.9703V41.2062Z" fill="#E4D678"/>
<path d="M6.64671 33.641L4.3856 36.7799L3.54315 35.597C3.4433 35.4575 3.28313 35.4575 3.18328 35.597C3.08344 35.7365 3.08344 35.9603 3.18328 36.0998L4.20463 37.5355C4.25247 37.6024 4.31696 37.6401 4.3856 37.6401C4.45217 37.6401 4.51665 37.6024 4.56449 37.5355L7.00657 34.1438C7.10642 34.0043 7.10642 33.7805 7.00657 33.641C6.90673 33.5015 6.74656 33.5015 6.64671 33.641Z" fill="#E4D678"/>
<path d="M9.11515 0H1.07335C0.480511 0 0 0.674273 0 1.49968V12.7356C0 13.5639 0.482591 14.2353 1.07335 14.2353H9.11515C9.70799 14.2353 10.1885 13.561 10.1885 12.7356V1.49968C10.1885 0.674273 9.70591 0 9.11515 0ZM9.67887 12.7356C9.67887 13.1687 9.42509 13.5232 9.11515 13.5232H1.07335C0.76341 13.5232 0.509633 13.1687 0.509633 12.7356V1.49968C0.509633 1.06663 0.76341 0.712055 1.07335 0.712055H9.11515C9.42509 0.712055 9.67887 1.06663 9.67887 1.49968V12.7356Z" fill="#E4D678"/>
<path d="M6.64671 5.17039L4.3856 8.30925L3.54315 7.12637C3.4433 6.98686 3.28313 6.98686 3.18328 7.12637C3.08344 7.26587 3.08344 7.48966 3.18328 7.62916L4.20463 9.0649C4.25247 9.13175 4.31696 9.16953 4.3856 9.16953C4.45217 9.16953 4.51665 9.13175 4.56449 9.0649L7.00657 5.67319C7.10642 5.53369 7.10642 5.3099 7.00657 5.17039C6.90673 5.03089 6.74656 5.03089 6.64671 5.17039Z" fill="#E4D678"/>
<path d="M25.1613 2.58823H14.8911V4.69117H25.1613V2.58823Z" fill="#E4D678"/>
<path d="M31.8066 7.76471H14.8911V9.86765H31.8066V7.76471Z" fill="#E4D678"/>
<path d="M25.1613 16.8235H14.8911V18.9265H25.1613V16.8235Z" fill="#E4D678"/>
<path d="M31.8066 22H14.8911V24.1029H31.8066V22Z" fill="#E4D678"/>
<path d="M25.1613 29.7647H14.8911V31.8676H25.1613V29.7647Z" fill="#E4D678"/>
<path d="M31.8066 34.9412H14.8911V37.0441H31.8066V34.9412Z" fill="#E4D678"/>
</svg>
