<svg width="28" height="27" viewBox="0 0 28 27" fill="none" xmlns="http://www.w3.org/2000/svg">
<path d="M25.5714 3.85714H15.9286V1.92857C15.9286 1.41708 15.7254 0.926543 15.3637 0.564865C15.002 0.203188 14.5115 0 14 0H2.42857C1.91708 0 1.42654 0.203188 1.06487 0.564865C0.703188 0.926543 0.5 1.41708 0.5 1.92857V21.2143C0.5 21.7258 0.703188 22.2163 1.06487 22.578C1.42654 22.9397 1.91708 23.1429 2.42857 23.1429H12.0714V25.0714C12.0714 25.5829 12.2746 26.0735 12.6363 26.4351C12.998 26.7968 13.4885 27 14 27H25.5714C26.0829 27 26.5735 26.7968 26.9351 26.4351C27.2968 26.0735 27.5 25.5829 27.5 25.0714V5.78571C27.5 5.27423 27.2968 4.78369 26.9351 4.42201C26.5735 4.06033 26.0829 3.85714 25.5714 3.85714ZM2.42857 12.5357H8.37821L5.89036 15.0332L7.25 16.3929L12.0714 11.5714L7.25 6.75L5.89036 8.10964L8.37821 10.6071H2.42857V1.92857H14V21.2143H2.42857V12.5357ZM14 25.0714V23.1429C14.5115 23.1429 15.002 22.9397 15.3637 22.578C15.7254 22.2163 15.9286 21.7258 15.9286 21.2143V5.78571H25.5714V14.4643H19.6218L22.1096 11.9668L20.75 10.6071L15.9286 15.4286L20.75 20.25L22.1096 18.8904L19.6218 16.3929H25.5714V25.0714H14Z" fill="#E4D678"/>
</svg>
