<svg width="296" height="289" viewBox="0 0 296 289" fill="none" xmlns="http://www.w3.org/2000/svg">
<g clip-path="url(#clip0_283_2)">
<path d="M213.042 128.903C213.006 128.91 212.951 128.919 212.884 128.931C211.583 129.152 203.718 130.401 195.788 127.293C192.429 125.976 193.575 125.648 186.093 121.07C177.321 115.703 175.07 115.741 174.417 113.238C173.112 108.241 180.077 100.386 184.687 100.903C185.901 101.039 187.2 101.783 189.222 101.279C189.666 101.168 191.611 100.682 192.558 99.0262C193.404 97.5489 192.688 96.4832 193.028 95.2717C193.921 92.0915 201.361 90.5044 207.885 91.6257C211.637 92.2707 214.555 94.0315 220.238 97.5268C230.131 103.61 235.077 106.652 236.188 111.313C237.242 115.73 234.713 117.633 236.552 122.362C238.265 126.765 240.985 126.471 241.921 130.032C243.427 135.764 237.837 142.054 235.508 144.675C232.955 147.547 230.513 149.124 227.271 151.217C223.202 153.845 221.168 155.158 218.722 155.025C214.287 154.782 201.11 155.607 200.938 151.831C200.873 150.416 184.891 151.575 192.761 136.34C193.726 134.471 212.636 136.467 212.885 135.393" fill="#2F2E41"/>
<path d="M220.696 138.653L234.288 159.514L195.271 167.633L197.756 141.515L220.696 138.653Z" fill="#FFB6B6"/>
<path opacity="0.1" d="M220.696 138.653L234.288 159.514L195.271 167.633L197.756 141.515L220.696 138.653Z" fill="black"/>
<path d="M192.349 154.102L234.431 152.298L253.134 162.822L252.257 230.478L271.837 268.666L173.061 249.422L180.659 220.555L177.152 159.815L192.349 154.102Z" fill="#E4D678"/>
<path d="M47.1333 285.536C45.7898 283.357 45.6312 280.665 46.709 278.334L62.7256 243.707C63.921 241.123 66.4907 239.453 69.2722 239.453H271.574C274.279 239.453 276.739 240.984 277.995 243.448L295.162 277.12C296.349 279.448 296.271 282.182 294.953 284.434C293.636 286.685 291.325 288.036 288.771 288.046L53.284 289H53.2546C50.7582 289 48.4714 287.707 47.1333 285.536H47.1333Z" fill="white"/>
<path d="M47.1333 285.536C45.7898 283.357 45.6312 280.665 46.709 278.334L62.7256 243.707C63.921 241.123 66.4907 239.453 69.2722 239.453H271.574C274.279 239.453 276.739 240.984 277.995 243.448L295.162 277.12C296.349 279.448 296.271 282.182 294.953 284.434C293.636 286.685 291.325 288.036 288.771 288.046L53.284 289H53.2546C50.7582 289 48.4714 287.707 47.1333 285.536H47.1333ZM69.2722 240.236C66.7826 240.236 64.4827 241.731 63.4128 244.044L47.3961 278.671C46.4314 280.756 46.5733 283.166 47.7759 285.117C48.9736 287.06 51.0201 288.217 53.2547 288.217H53.2811L288.768 287.263C291.054 287.254 293.122 286.045 294.301 284.03C295.481 282.014 295.55 279.567 294.489 277.484L277.321 243.811C276.197 241.606 273.995 240.236 271.574 240.236H69.2722H69.2722Z" fill="#3F3D56"/>
<path d="M252.74 275.762L169.255 269.857C168.023 269.769 167.04 268.914 166.751 267.678C166.462 266.442 166.96 265.221 168.019 264.567L186.48 253.17C186.949 252.88 187.487 252.74 188.032 252.767L260.245 256.144C261.2 256.189 262.053 256.725 262.526 257.579C263 258.433 263.015 259.462 262.567 260.33L255.377 274.255C254.894 275.19 253.948 275.769 252.93 275.769C252.867 275.769 252.803 275.767 252.74 275.762V275.762Z" fill="#3F3D56"/>
<path d="M168.531 266.411L251.673 272.275L258.248 257.691L186.958 254.814L168.531 266.411Z" fill="white"/>
<path d="M209.444 145.68C223.243 145.68 234.428 134.171 234.428 119.973C234.428 105.775 223.243 94.266 209.444 94.266C195.646 94.266 184.46 105.775 184.46 119.973C184.46 134.171 195.646 145.68 209.444 145.68Z" fill="#FFB6B6"/>
<path d="M217.491 121.636C217.455 121.643 217.4 121.652 217.333 121.664C216.032 121.885 208.167 123.134 200.237 120.026C196.878 118.709 198.024 118.381 190.542 113.803C181.77 108.436 179.519 108.474 178.866 105.971C177.562 100.974 184.526 93.1186 189.136 93.6358C190.35 93.772 191.65 94.5165 193.671 94.0117C194.115 93.9008 196.06 93.4152 197.008 91.7592C197.853 90.282 197.137 89.2163 197.477 88.0047C198.37 84.8245 205.81 83.2374 212.334 84.3588C216.086 85.0038 219.004 86.7646 224.688 90.2599C234.58 96.3436 239.526 99.3854 240.638 104.046C241.691 108.463 239.162 110.366 241.001 115.095C242.714 119.498 245.434 119.204 246.37 122.765C247.876 128.497 242.286 134.787 239.957 137.408C237.404 140.28 234.962 141.857 231.72 143.95C227.651 146.578 225.617 147.892 223.171 147.758C218.736 147.516 214.326 143.38 214.154 139.604C214.089 138.189 214.663 137.765 216.083 132.9C216.675 130.873 217.085 129.2 217.334 128.126" fill="#2F2E41"/>
<path d="M234.616 259.368C236.223 259.433 237.446 260.915 237.535 262.521C237.627 264.187 236.501 265.722 235.148 266.515C233.563 267.445 231.585 267.594 229.801 267.434C228.196 267.29 226.449 266.777 225.417 265.413C224.548 264.265 224.228 262.532 224.967 261.229C225.7 259.938 227.258 259.581 228.562 260.099C229.942 260.648 230.809 261.939 230.818 263.465C230.827 265.156 229.878 266.718 228.546 267.653C227.109 268.662 225.301 268.986 223.591 268.982C221.728 268.978 219.873 268.575 218.158 267.828C216.552 267.128 214.948 266.119 213.799 264.747C212.723 263.461 212.078 261.677 212.676 260.009C213.166 258.641 214.404 257.802 215.822 257.918C217.121 258.024 218.434 258.799 219.01 260.033C219.66 261.426 219.368 263.097 218.541 264.342C217.586 265.78 216.075 266.588 214.398 266.704C212.614 266.829 210.846 266.176 209.378 265.167C208.018 264.233 206.824 263.037 205.364 262.26C204.661 261.886 203.897 261.648 203.102 261.649C202.089 261.651 201.115 261.993 200.131 262.191C199.296 262.36 198.435 262.458 197.612 262.183C196.907 261.948 196.247 261.518 195.803 260.901C195.383 260.317 195.236 259.585 195.474 258.892C195.66 258.348 196.508 258.582 196.319 259.132C195.884 260.399 197.376 261.331 198.421 261.447C199.214 261.536 200.032 261.3 200.796 261.116C201.593 260.924 202.408 260.728 203.232 260.749C206.151 260.823 208.081 263.39 210.435 264.783C212.909 266.248 216.533 266.35 218.048 263.44C218.599 262.382 218.712 260.977 217.956 259.99C217.326 259.167 216.207 258.675 215.193 258.834C213.92 259.035 213.285 260.283 213.331 261.524C213.388 263.042 214.417 264.276 215.514 265.186C217.956 267.21 221.195 268.242 224.318 268.061C225.784 267.976 227.341 267.583 228.48 266.579C229.463 265.712 230.135 264.301 229.899 262.95C229.694 261.78 228.741 260.893 227.589 260.775C226.411 260.655 225.49 261.516 225.437 262.727C225.378 264.089 226.165 265.226 227.304 265.846C228.596 266.549 230.16 266.636 231.591 266.559C233.11 266.478 234.693 266.066 235.756 264.876C236.663 263.86 237.006 262.354 236.171 261.18C235.802 260.661 235.247 260.296 234.616 260.27C234.053 260.247 234.051 259.345 234.616 259.368V259.368Z" fill="#E4D678"/>
<path d="M194.659 258.402L195.106 255.558L219.909 206.779C220.32 205.972 221.293 205.658 222.078 206.081C222.863 206.504 223.168 207.505 222.757 208.313L197.965 257.07L195.938 259.09C195.698 259.328 195.352 259.379 195.057 259.22C194.762 259.062 194.606 258.74 194.659 258.402H194.659Z" fill="#3F3D56"/>
<path d="M211.565 227.368C214.364 227.91 216.995 229.134 219.24 230.937L219.366 230.965L219.391 230.835L246.424 235.192L244.465 198.196L264.953 186.65L260.11 249.186C259.061 253.18 255.033 255.513 251.171 254.362L216.76 244.178L216.846 243.742L216.726 243.709C213.976 244.472 211.088 244.546 208.304 243.925C201.321 242.471 196.389 237.585 197.289 233.012C198.189 228.439 204.579 225.912 211.565 227.368V227.368Z" fill="#FFB6B6"/>
<path d="M230.047 169.437L253.134 162.822C253.134 162.822 265.261 171.993 266.723 181.916C266.896 183.096 267.378 238.069 266.869 239.499C263.093 250.089 242.321 233.184 242.321 233.184L230.047 169.437Z" fill="#E4D678"/>
<path d="M129.908 268.242L127.514 266.131H127.514C127.158 265.817 126.725 265.608 126.261 265.529L72.933 256.384C71.7158 256.175 70.8167 255.27 70.5864 254.023C70.3562 252.776 70.8705 251.595 71.9287 250.941L90.9538 239.196C91.5896 238.804 92.3379 238.68 93.0618 238.848L160.678 254.566C161.992 254.872 162.869 255.965 162.913 257.351C162.956 258.737 162.148 259.885 160.855 260.277L132.584 268.832C132.315 268.914 132.042 268.953 131.771 268.953C131.096 268.953 130.435 268.708 129.908 268.242V268.242Z" fill="#3F3D56"/>
<path d="M104.226 200.033C106.869 201.122 109.221 202.847 111.084 205.063L111.202 205.115L111.252 204.993L136.953 214.652L164.395 168.934L179.565 178.609L147.747 231.108C145.967 234.818 141.576 236.304 138.004 234.406L106.16 217.559L106.326 217.149L106.214 217.092C103.372 217.293 100.525 216.791 97.9112 215.627C91.3333 212.809 87.4145 207.033 89.158 202.726C90.9015 198.419 97.6463 197.213 104.226 200.033L104.226 200.033Z" fill="#FFB6B6"/>
<path d="M193.833 177.188L181.695 158.512C181.695 158.512 167.252 161.453 161.302 169.406C160.558 170.4 135.011 208.523 134.847 210.187C133.694 221.833 163.056 227.29 163.056 227.29L193.833 177.188V177.188Z" fill="#E4D678"/>
<path d="M128.587 268.803L67.4565 260.109C65.4105 259.819 63.7219 258.31 63.1543 256.267L49.1142 205.704C48.6385 203.991 48.9936 202.216 50.0887 200.835C51.1837 199.455 52.8015 198.741 54.5291 198.877L116.118 203.732C118.346 203.907 120.217 205.522 120.773 207.749L134.354 262.15C134.788 263.886 134.354 265.721 133.195 267.059C132.196 268.21 130.781 268.854 129.305 268.854C129.067 268.854 128.827 268.837 128.587 268.803V268.803Z" fill="#3F3D56"/>
<path d="M114.961 165.237C115.318 165.642 116.615 165.23 119.193 164.389C121.154 163.75 121.456 163.518 121.642 163.351C122.298 162.765 122.469 162.149 123.119 159.426C124.284 154.54 124.32 154.055 124.919 153.018C125.125 152.661 125.645 151.809 125.518 151.703C125.388 151.595 124.824 152.482 123.783 152.817C122.768 153.144 122.312 152.621 121.445 152.754C120.326 152.926 119.66 154.021 118.615 155.793C117.69 157.361 117.574 157.993 116.277 161.11C115.91 161.993 115.614 162.676 115.387 163.217C112.841 165.662 110.316 168.139 107.814 170.638C107.862 170.562 107.908 170.49 107.947 170.428C109.055 168.677 109.206 167.738 109.19 167.035C109.164 165.895 108.635 165.027 107.578 163.338C106.542 161.682 105.561 160.59 104.379 159.286C102.829 157.578 102.054 156.723 101.746 156.78C99.5418 157.181 98.9524 172.622 101.725 175.384C101.336 175.67 101.014 175.97 100.781 176.265C98.407 173.553 94.3406 170.523 89.8359 170.15C87.0588 169.92 85.526 170.817 85.0494 171.125C82.8467 172.548 81.5369 175.397 82.1947 176.201C82.8081 176.951 84.5796 175.247 88.0517 175.341C90.4743 175.406 92.3667 176.311 93.4902 176.847C95.847 177.974 96.709 179.081 98.4467 179.84C97.6321 180.53 96.9867 181.392 96.5815 182.196C96.4411 182.345 96.3012 182.495 96.1609 182.644C94.368 181.604 92.349 180.842 90.2326 180.666C87.4554 180.436 85.9227 181.333 85.4461 181.641C83.9615 182.6 82.8856 184.206 82.5413 185.398C82.3163 185.444 82.108 185.498 81.9174 185.555C81.2444 183.99 79.2416 182.34 77.3794 181.508C74.1738 180.076 70.0099 180.456 69.5643 181.817C69.5501 181.86 69.5465 181.903 69.5403 181.946C69.8916 179.029 70.3687 176.132 70.9649 173.256C70.985 173.338 71.0104 173.422 71.0443 173.509C71.8356 175.554 73.9738 177.517 76.8885 178.535C79.1761 179.334 80.1343 178.92 80.3777 178.804C80.6102 178.694 81.6144 178.25 81.8605 177.368C82.3167 175.733 79.523 170.901 77.7608 172.522C72.0989 177.729 71.3219 173.512 71.0619 172.803C71.5433 170.529 72.0973 168.269 72.7188 166.021C72.7295 166.035 72.7387 166.048 72.7499 166.062C73.9869 167.606 76.3675 168.693 79.165 168.741C81.3606 168.779 82.078 168.147 82.2574 167.977C82.4287 167.815 83.1782 167.144 83.153 166.31C83.1063 164.764 80.4342 163.506 78.2962 163.287C76.326 163.086 74.2045 163.707 73.1521 164.493C73.6414 162.81 74.1678 161.134 74.7292 159.465C76.167 160.07 78.2038 159.988 80.2046 159.068C81.8547 158.309 82.1755 157.58 82.2518 157.39C82.3246 157.207 82.6563 156.438 82.3553 155.826C81.7972 154.69 79.3785 154.709 77.7103 155.313C77.0233 155.561 76.3703 155.944 75.8107 156.376C76.8056 153.641 77.8901 150.926 79.0565 148.231L77.8876 147.93C76.3976 151.373 75.0985 154.861 73.982 158.388C73.8432 157.354 73.4953 156.252 73.0373 155.356C71.6904 152.724 68.8135 150.749 67.8406 151.39C67.646 151.518 67.5641 151.727 67.49 151.976C66.8937 153.975 67.3428 156.739 68.9134 159.278C70.1461 161.271 71.0955 161.55 71.3428 161.614C71.5516 161.667 72.3578 161.896 73.0204 161.601C72.5747 163.172 72.1627 164.75 71.787 166.335C71.3349 165.18 70.4439 163.949 69.5016 163.098C67.3287 161.136 63.9557 160.351 63.2699 161.307C63.1327 161.499 63.1288 161.724 63.146 161.983C63.2843 164.07 64.6644 166.485 67.0137 168.278C68.8577 169.685 69.8415 169.597 70.0944 169.565C70.2433 169.546 70.6932 169.5 71.127 169.298C70.7243 171.224 70.3724 173.159 70.0682 175.103C69.4597 172.929 67.3929 170.217 65.4422 171.08C61.9808 172.611 57.912 170.259 57.4642 171.287C57.3476 171.555 57.4441 171.831 57.5556 172.13C58.4524 174.539 60.9291 176.874 64.3299 178.113C66.999 179.086 68.1282 178.616 68.4151 178.484C68.6053 178.397 69.233 178.127 69.7005 177.627C69.3644 180.124 69.1068 182.633 68.9253 185.154C68.2037 183.533 66.1709 181.825 64.2679 180.944C60.9299 179.399 56.564 179.738 56.0792 181.157C55.9822 181.441 56.0587 181.715 56.1731 182.022C57.0936 184.495 59.6356 186.891 63.1262 188.164C65.8658 189.162 67.0247 188.68 67.3193 188.544C67.5345 188.445 68.2946 188.119 68.7792 187.498C68.7171 188.664 68.6692 189.831 68.6389 191C68.6302 191.333 68.6252 191.667 68.6189 192C68.5796 192.065 68.5453 192.132 68.5224 192.202C68.4289 192.488 68.4925 192.763 68.6023 193.063C68.5999 193.274 68.5986 193.486 68.5973 193.697C67.9865 193.128 67.258 192.271 66.3817 191.051C65.5911 189.95 64.8402 190.758 64.3579 191.695C63.6018 191.522 62.8805 191.629 62.3133 192.174C58.5096 195.831 54.2433 193.891 54.183 194.981C54.1656 195.296 54.3293 195.546 54.5357 195.817C56.1965 198 59.457 199.593 63.3304 199.76C66.3704 199.892 67.3857 199.042 67.64 198.813C67.7293 198.733 67.9295 198.56 68.1464 198.316C68.3205 198.459 68.4899 198.589 68.6599 198.707C68.7267 200.8 68.8464 202.89 69.0237 204.977C68.8795 204.99 68.7416 205.015 68.6389 205.026C67.1663 205.18 66.6702 203.136 64.4457 202.389C63.707 202.141 62.2839 201.87 61.5339 202.389C61.4258 202.464 61.0573 202.744 60.4856 202.988C60.1476 203.132 59.8894 203.199 59.7867 203.228C58.874 203.485 58.0287 204.189 57.4572 204.666C56.3829 205.562 55.8458 206.01 55.5936 206.823C55.5143 207.079 55.291 207.8 55.5936 208.501C55.7366 208.833 56.0684 209.326 57.3407 209.819C58.0969 210.113 60.3026 210.969 62.9315 210.059C63.5302 209.852 63.0732 209.926 65.3775 208.741C67.1905 207.808 68.2508 207.362 68.4059 206.464C68.4605 206.148 68.4055 205.762 68.6389 205.625C68.7686 205.548 68.9254 205.585 69.0819 205.643C69.2345 207.321 69.425 208.996 69.6559 210.667H67.5814C64.8268 210.667 62.3556 212.245 61.1325 214.784L53.3729 230.892C52.883 231.908 52.624 233.046 52.624 234.181V275.599C52.624 279.683 55.8529 283.005 59.8218 283.005H77.9338C81.9027 283.005 85.1316 279.683 85.1316 275.599V237.461C85.1316 236.531 84.9642 235.621 84.634 234.755L77.2387 215.368C76.3418 213.016 74.3991 211.353 72.0769 210.838C72.8218 209.929 73.5678 209.022 74.3197 208.117C75.2663 208.587 76.3077 208.973 77.4273 209.243C80.3894 209.96 81.5417 209.321 81.8332 209.146C82.1116 208.978 83.3184 208.297 83.5229 207.16C83.5448 207.039 83.5533 206.915 83.5517 206.791C86.5858 209.329 88.1685 210.58 89.3249 210.163C90.3191 209.804 90.8866 208.629 91.2116 207.575C91.551 207.623 91.911 207.673 92.2946 207.726C96.45 208.296 98.5441 208.561 99.3451 207.549C100.454 206.147 99.4015 203.444 99.1114 202.7C98.4811 201.081 97.5114 200.096 96.909 199.496C96.1268 198.718 93.8975 196.5 90.3877 196.204C89.6247 196.14 88.9393 196.189 88.241 196.34C87.9977 196.111 87.7409 195.886 87.4582 195.673C86.9195 195.267 86.3874 194.966 85.8148 194.731C86.6932 193.741 87.5741 192.754 88.459 191.771C88.5992 191.836 88.7322 191.9 88.8544 191.958C91.7536 193.344 92.3906 194.701 95.1788 195.415C96.4438 195.739 97.8758 196.106 98.2303 195.554C98.8601 194.574 96.1868 190.543 92.0556 187.815C92.3342 187.512 92.6134 187.209 92.8926 186.906C93.2704 187.069 93.6032 187.228 93.8868 187.364C96.7861 188.749 97.4231 190.106 100.211 190.82C101.476 191.144 102.908 191.511 103.263 190.96C103.825 190.085 101.757 186.781 98.3706 184.141C99.3008 183.837 100.534 183.5 102.131 183.543C104.554 183.609 106.447 184.513 107.57 185.05C110.469 186.436 111.106 187.792 113.894 188.507C115.159 188.831 116.591 189.197 116.946 188.646C117.882 187.189 111.523 178.982 103.916 178.352C103.325 178.304 102.794 178.308 102.315 178.344C102.248 178.231 102.176 178.115 102.1 177.997C104.674 178.082 109.701 177.325 113.979 180.416C115.213 181.307 117.61 183.403 121.62 185.126C122.902 185.676 123.547 185.947 123.724 185.721C124.36 184.912 119.076 178.252 111.642 174.972C108.694 173.671 106.873 173.548 105.578 173.745C105.777 173.511 105.972 173.269 106.159 173.026C109.054 170.105 111.985 167.214 114.943 164.362C114.8 164.818 114.804 165.06 114.961 165.237V165.237ZM77.8122 201.596C74.5425 200.507 70.5834 201.092 69.551 202.331C69.4054 201.233 69.2789 200.133 69.1747 199.031C70.6643 199.887 72.2186 200.116 75.167 200.521C76.4227 200.694 77.4873 200.837 78.3878 200.927C78.5087 201.264 78.6377 201.568 78.7874 201.858C78.8047 201.892 78.8234 201.924 78.841 201.957L78.8149 201.988C78.4792 201.838 78.1428 201.706 77.8121 201.596H77.8122ZM69.1252 186.841C69.2184 186.523 69.2203 186.184 69.1491 185.834C69.2509 184.568 69.3779 183.306 69.5281 182.047C69.5243 182.24 69.5836 182.433 69.6646 182.642C70.5735 184.991 73.0296 187.245 76.3774 188.415C77.0019 188.633 77.5377 188.771 77.9992 188.855C77.7961 189.219 77.6406 189.574 77.5375 189.902C76.3961 188.958 74.927 188.272 73.26 189C72.8064 189.198 72.5371 189.923 72.3032 190.789C70.7633 190.816 69.4765 191.147 68.8636 191.706C68.8669 191.473 68.8657 191.24 68.8718 191.007C68.9063 189.675 68.9701 188.348 69.06 187.024C69.0846 186.965 69.1067 186.904 69.1252 186.841H69.1252ZM68.868 193.691C68.9343 193.831 69.007 193.97 69.0825 194.108C69.014 194.057 68.9439 194.001 68.8719 193.94C68.87 193.857 68.8695 193.774 68.868 193.691ZM71.4972 210.736C71.3179 210.711 71.137 210.694 70.9544 210.683C70.5328 208.53 70.1436 206.378 69.8178 204.222C70.6745 205.621 72.0729 206.902 73.854 207.873C73.0637 208.825 72.2798 209.78 71.4972 210.736H71.4972ZM85.2972 194.541C84.1822 194.172 82.8738 193.996 81.0629 193.78C80.604 193.123 80.131 192.64 79.7813 192.292C79.5919 192.104 79.3012 191.73 78.9244 191.293C79.9005 190.97 81.3573 190.396 83.4158 190.451C85.2867 190.502 86.8393 191.053 87.9677 191.548C87.0739 192.542 86.1845 193.54 85.2972 194.541V194.541ZM91.6165 187.533C90.5208 186.852 89.3325 186.268 88.0816 185.858C88.2032 185.857 88.3222 185.854 88.4483 185.857C89.9996 185.899 91.3319 186.285 92.3856 186.698C92.1292 186.976 91.8724 187.254 91.6165 187.533V187.533Z" fill="#050040"/>
<path fill-rule="evenodd" clip-rule="evenodd" d="M112.796 108.745V108.105C112.787 107.952 112.787 107.799 112.787 107.644V107.644C112.787 107.489 112.787 107.332 112.779 107.172C112.744 106.812 112.607 106.479 112.349 106.186C112.142 105.973 111.936 105.933 111.695 106.119C111.489 106.293 111.282 106.492 111.179 106.719C110.8 107.505 110.8 108.332 110.955 109.145C111.024 109.531 111.471 109.758 111.936 109.731C112.383 109.704 112.727 109.438 112.779 109.065C112.796 108.958 112.796 108.851 112.796 108.745V108.745ZM111.988 115.475C112.28 115.049 112.4 114.582 112.418 114.089L112.407 114.022C112.342 113.617 112.275 113.201 112.177 112.81C112.16 112.676 112.091 112.557 112.005 112.45C111.798 112.197 111.489 112.077 111.093 112.117C110.714 112.157 110.439 112.343 110.353 112.636C110.319 112.77 110.319 112.93 110.336 113.076C110.37 113.356 110.422 113.636 110.491 113.903C110.503 113.947 110.514 113.991 110.526 114.036C110.598 114.311 110.67 114.585 110.818 114.849C110.955 115.102 111.179 115.342 111.42 115.555C111.661 115.755 111.816 115.728 111.988 115.475ZM108.925 110.051C109.321 110.051 109.717 110.091 110.078 110.251C110.508 110.451 110.56 110.664 110.198 110.944C110.009 111.104 109.751 111.237 109.493 111.317C108.702 111.57 107.841 111.637 106.998 111.65C106.93 111.65 106.861 111.637 106.792 111.624C106.31 111.53 105.983 111.224 106.001 110.864C106.018 110.504 106.362 110.224 106.878 110.184C107.515 110.131 108.134 110.091 108.77 110.051H108.925ZM116.77 110.704C116.237 110.531 115.686 110.411 115.084 110.384C114.892 110.409 114.7 110.431 114.509 110.453C114.29 110.478 114.074 110.502 113.863 110.531C113.673 110.571 113.467 110.664 113.312 110.784C113.037 110.997 113.003 111.264 113.14 111.53C113.295 111.824 113.605 111.983 114.018 111.97C114.706 111.957 115.377 111.824 115.979 111.544C116.288 111.41 116.581 111.237 116.839 111.051C117.08 110.891 117.045 110.797 116.77 110.704Z" fill="black"/>
</g>
<path d="M281.873 59.3915C282.076 60.3071 282.279 61.0465 282.448 61.8212C282.482 61.9973 282.549 62.2085 282.583 62.3846C282.651 62.7015 282.583 63.0184 282.279 63.1945C281.974 63.3706 281.704 63.2297 281.501 62.9832C280.892 62.2438 280.284 61.4691 279.675 60.7296C279.54 60.5535 279.405 60.4127 279.168 60.1662C278.965 60.9057 278.762 61.5395 278.559 62.1733C278.39 62.7015 278.255 63.2649 278.018 63.7579C277.951 63.9692 277.68 64.1805 277.511 64.2157C277.173 64.2509 277.072 63.934 277.038 63.6523C276.97 62.8776 276.937 62.0677 276.869 61.293C276.835 60.8 276.801 60.3071 276.734 59.6732C276.396 59.8141 276.159 59.8845 275.922 59.9901C275.212 60.2718 274.502 60.5888 273.826 60.8705C273.589 60.9761 273.352 61.0465 273.116 61.0817C272.744 61.1522 272.338 61.1522 272.101 60.7648C271.899 60.4479 272 60.0254 272.406 59.638C273.082 59.0042 273.758 58.4408 274.468 57.8422C274.671 57.6661 274.874 57.49 275.111 57.2788C274.401 56.9266 273.691 56.5745 273.048 56.2224C272.372 55.8703 272.169 55.5181 272.304 55.0956C272.44 54.673 272.811 54.4617 273.522 54.5322C274.299 54.6026 275.077 54.7082 275.855 54.7787C276.193 54.8139 276.531 54.7787 276.97 54.7787C276.903 54.2505 276.903 53.8279 276.835 53.4054C276.7 52.7011 276.531 52.0321 276.396 51.3278C276.362 51.0813 276.328 50.8348 276.328 50.5883C276.362 50.2362 276.497 49.9193 276.869 49.8137C277.207 49.708 277.477 49.8489 277.647 50.1306C278.154 50.7996 278.559 51.4687 278.999 52.1025C279.168 52.3842 279.337 52.6659 279.675 52.9124C279.811 52.1377 279.912 51.3982 280.047 50.6236C280.115 50.3066 280.149 49.9545 280.25 49.6376C280.385 49.1798 280.656 48.9686 280.994 49.0038C281.366 49.0742 281.535 49.3559 281.603 49.708C281.704 50.5883 281.772 51.4335 281.839 52.3138C281.873 52.525 281.873 52.7715 281.873 53.0884C282.144 52.9828 282.346 52.8772 282.549 52.7715C283.056 52.4898 283.564 52.2081 284.071 51.9616C284.679 51.6447 285.018 51.6447 285.254 51.9969C285.457 52.3138 285.389 52.6659 284.95 53.1941C284.544 53.6871 284.138 54.18 283.733 54.673C283.428 55.0251 283.158 55.4125 282.82 55.835C282.955 56.0111 283.09 56.1872 283.259 56.328C284.003 57.1731 284.781 58.0182 285.525 58.8633C285.761 59.145 285.897 59.4267 285.694 59.7789C285.491 60.131 285.187 60.131 284.848 60.0606C283.902 59.8493 282.955 59.638 281.873 59.3915Z" fill="black"/>
<path fill-rule="evenodd" clip-rule="evenodd" d="M20.7961 152.745V152.105C20.7875 151.952 20.7875 151.799 20.7875 151.644V151.644C20.7875 151.489 20.7875 151.332 20.7789 151.172C20.7444 150.812 20.6068 150.479 20.3488 150.186C20.1423 149.973 19.9359 149.933 19.695 150.119C19.4886 150.293 19.2821 150.492 19.1789 150.719C18.8004 151.505 18.8004 152.332 18.9553 153.145C19.0241 153.531 19.4714 153.758 19.9359 153.731C20.3832 153.704 20.7272 153.438 20.7789 153.065C20.7961 152.958 20.7961 152.851 20.7961 152.745V152.745ZM19.9876 159.475C20.28 159.049 20.4004 158.582 20.4176 158.089L20.4068 158.022C20.3415 157.617 20.2746 157.201 20.1768 156.81C20.1596 156.676 20.0908 156.557 20.0048 156.45C19.7983 156.197 19.4887 156.077 19.093 156.117C18.7145 156.157 18.4392 156.343 18.3532 156.636C18.3188 156.77 18.3188 156.93 18.336 157.076C18.3704 157.356 18.422 157.636 18.4908 157.903C18.5028 157.947 18.5144 157.991 18.526 158.036C18.598 158.311 18.6696 158.585 18.8177 158.849C18.9553 159.102 19.179 159.342 19.4198 159.555C19.6607 159.755 19.8155 159.728 19.9876 159.475ZM16.9253 154.051C17.3209 154.051 17.7166 154.091 18.0779 154.251C18.508 154.451 18.5596 154.664 18.1983 154.944C18.0091 155.104 17.751 155.237 17.493 155.317C16.7016 155.57 15.8414 155.637 14.9985 155.65C14.9296 155.65 14.8608 155.637 14.792 155.624C14.3103 155.53 13.9834 155.224 14.0006 154.864C14.0179 154.504 14.3619 154.224 14.878 154.184C15.5146 154.131 16.1339 154.091 16.7704 154.051H16.9253ZM24.7701 154.704C24.2368 154.531 23.6863 154.411 23.0842 154.384C22.8919 154.409 22.6996 154.431 22.5091 154.453C22.2904 154.478 22.0741 154.502 21.8627 154.531C21.6735 154.571 21.467 154.664 21.3122 154.784C21.0369 154.997 21.0025 155.264 21.1402 155.53C21.295 155.824 21.6047 155.983 22.0175 155.97C22.7057 155.957 23.3766 155.824 23.9788 155.544C24.2884 155.41 24.5809 155.237 24.8389 155.051C25.0798 154.891 25.0454 154.797 24.7701 154.704Z" fill="black"/>
<path fill-rule="evenodd" clip-rule="evenodd" d="M237.796 2.74481V2.10509C237.787 1.95182 237.787 1.79855 237.787 1.64362V1.64359C237.787 1.48867 237.787 1.33208 237.779 1.17215C237.744 0.812305 237.607 0.479113 237.349 0.185905C237.142 -0.0273373 236.936 -0.0673202 236.695 0.119267C236.489 0.292526 236.282 0.492441 236.179 0.719011C235.8 1.50534 235.8 2.33166 235.955 3.14464C236.024 3.53115 236.471 3.75771 236.936 3.73106C237.383 3.7044 237.727 3.43785 237.779 3.06468C237.796 2.95806 237.796 2.85144 237.796 2.74482V2.74481ZM236.988 9.47527C237.28 9.04879 237.4 8.58232 237.418 8.0892L237.407 8.02185C237.342 7.61656 237.275 7.20118 237.177 6.80974C237.16 6.67647 237.091 6.55652 237.005 6.44989C236.798 6.19667 236.489 6.07672 236.093 6.1167C235.714 6.15669 235.439 6.34327 235.353 6.63648C235.319 6.76976 235.319 6.92969 235.336 7.07629C235.37 7.35618 235.422 7.63606 235.491 7.90261C235.503 7.94702 235.514 7.99143 235.526 8.0358C235.598 8.31103 235.67 8.5849 235.818 8.84887C235.955 9.1021 236.179 9.342 236.42 9.55524C236.661 9.75515 236.816 9.7285 236.988 9.47527ZM233.925 4.05092C234.321 4.05092 234.717 4.0909 235.078 4.25084C235.508 4.45075 235.56 4.66399 235.198 4.94387C235.009 5.10381 234.751 5.23708 234.493 5.31705C233.702 5.57027 232.841 5.63691 231.998 5.65024C231.93 5.65024 231.861 5.63691 231.792 5.62358C231.31 5.53029 230.983 5.22375 231.001 4.86391C231.018 4.50406 231.362 4.22418 231.878 4.1842C232.515 4.13089 233.134 4.0909 233.77 4.05092H233.925ZM241.77 4.70398C241.237 4.53072 240.686 4.41077 240.084 4.38412C239.892 4.40895 239.7 4.43088 239.509 4.45262C239.29 4.47756 239.074 4.50224 238.863 4.53072C238.673 4.57071 238.467 4.664 238.312 4.78395C238.037 4.99719 238.003 5.26374 238.14 5.5303C238.295 5.82351 238.605 5.98344 239.018 5.97011C239.706 5.95678 240.377 5.8235 240.979 5.54362C241.288 5.41035 241.581 5.23709 241.839 5.0505C242.08 4.89057 242.045 4.79728 241.77 4.70398Z" fill="black"/>
<path d="M58.0994 60.7828C58.0424 60.5887 57.9495 60.402 57.9069 60.1862C57.6156 58.8054 57.2884 57.432 57.033 56.0438C56.9123 55.4325 56.9208 54.8134 56.8504 54.173C56.8577 54.1154 56.8435 54.0435 56.8508 53.9859C56.9691 52.4089 58.1046 51.8206 59.3948 52.6785C60.1689 53.1933 60.8207 53.8454 61.5373 54.4468C63.3357 55.9863 65.1556 57.5401 66.9684 59.0579C68.4946 60.3539 70.0352 61.6283 71.5828 62.9385C71.5759 62.809 71.5475 62.6652 71.5191 62.5213C71.1631 61.1912 70.7568 59.8901 70.4367 58.5526C70.1663 57.4669 69.9677 56.3664 69.7691 55.2659C69.7194 55.0142 69.6124 54.662 69.9285 54.5597C70.2805 54.4502 70.4089 54.8167 70.5304 55.0537C70.8877 55.8223 71.2808 56.5836 71.5518 57.3886C72.3438 59.6021 73.0855 61.8447 73.8272 64.0873C73.9199 64.3676 74.0197 64.6839 74.0406 64.9789C74.1106 65.8064 73.6356 66.3341 72.7958 66.3379C72.645 66.3314 72.4943 66.3249 72.358 66.2967C70.6932 66.002 69.0861 65.6206 67.5153 65.0447C67.3145 64.9736 67.1065 64.8666 66.9274 64.7162C66.7124 64.5732 66.6268 64.3289 66.7063 64.0693C66.7858 63.8098 66.9944 63.6361 67.2599 63.6565C67.5399 63.6552 67.8413 63.6682 68.114 63.7246C69.0253 63.8932 69.9293 64.1194 70.8261 64.3097C71.0199 64.3448 71.1921 64.3656 71.4433 64.4077C69.1858 62.7191 66.928 61.1241 64.7998 59.4278C62.65 57.7171 60.5937 55.9124 58.437 54.0722C58.4222 54.2811 58.3644 54.4613 58.3784 54.6268C58.463 55.3391 58.5332 56.073 58.6752 56.7922C58.9592 58.2306 59.3006 59.676 59.5846 61.1144C59.67 61.4523 59.741 61.8119 59.7546 62.1646C59.7816 62.9635 59.1346 63.3768 58.4031 63.0778C58.1162 62.9495 57.8582 62.7779 57.629 62.563C56.1963 61.173 54.7278 59.7904 53.3239 58.3571C52.0919 57.1317 50.9246 55.8557 49.6926 54.6304C49.2485 54.1789 48.7397 53.7781 48.1877 53.4423C47.6286 53.0705 47.2982 53.1944 47.146 53.8429C47.0229 54.3546 46.9068 54.9022 46.9559 55.4347C47.0322 56.6725 47.13 57.9246 47.3714 59.1473C48.1885 63.002 49.3361 66.7328 50.8645 70.3107C50.9359 70.4832 51.0361 70.6123 51.0501 70.7778C51.0641 70.9433 51.0134 71.1595 50.9054 71.2751C50.7543 71.4558 50.5031 71.4137 50.3455 71.2777C50.1879 71.1416 50.0447 70.9839 49.9518 70.7972C49.7229 70.3951 49.487 69.9571 49.3085 69.526C47.8801 66.1707 46.7678 62.7133 46.0937 59.1099C45.8594 57.9232 45.7831 56.6854 45.6924 55.4693C45.6578 54.9151 45.7523 54.3532 45.8683 53.8056C45.9049 53.5175 46.0418 53.2649 46.1572 52.998C46.6618 52.0527 47.4952 51.7322 48.5209 52.1018C49.3672 52.4147 50.0622 53.0018 50.671 53.6253C52.2325 55.1947 53.7581 56.7714 55.3195 58.3408C56.1791 59.1935 57.0386 60.0462 57.9197 60.9132C57.9844 60.8625 58.0347 60.8335 58.0994 60.7828Z" fill="black"/>
<path d="M94.873 20.3915C95.0759 21.3071 95.2788 22.0465 95.4478 22.8212C95.4816 22.9973 95.5493 23.2085 95.5831 23.3846C95.6507 23.7015 95.5831 24.0184 95.2788 24.1945C94.9745 24.3706 94.704 24.2297 94.5011 23.9832C93.8925 23.2438 93.2839 22.4691 92.6753 21.7296C92.54 21.5535 92.4048 21.4127 92.1681 21.1662C91.9652 21.9057 91.7623 22.5395 91.5595 23.1733C91.3904 23.7015 91.2552 24.2649 91.0185 24.7579C90.9509 24.9692 90.6804 25.1805 90.5113 25.2157C90.1732 25.2509 90.0718 24.934 90.0379 24.6523C89.9703 23.8776 89.9365 23.0677 89.8689 22.293C89.8351 21.8 89.8013 21.3071 89.7336 20.6732C89.3955 20.8141 89.1588 20.8845 88.9222 20.9901C88.2121 21.2718 87.5021 21.5888 86.8258 21.8705C86.5892 21.9761 86.3525 22.0465 86.1158 22.0817C85.7439 22.1522 85.3381 22.1522 85.1014 21.7648C84.8986 21.4479 85 21.0254 85.4057 20.638C86.082 20.0042 86.7582 19.4408 87.4683 18.8422C87.6711 18.6661 87.874 18.49 88.1107 18.2788C87.4006 17.9266 86.6906 17.5745 86.0482 17.2224C85.3719 16.8703 85.1691 16.5181 85.3043 16.0956C85.4396 15.673 85.8115 15.4617 86.5215 15.5322C87.2992 15.6026 88.0769 15.7082 88.8545 15.7787C89.1927 15.8139 89.5308 15.7787 89.9703 15.7787C89.9027 15.2505 89.9027 14.8279 89.8351 14.4054C89.6998 13.7011 89.5308 13.0321 89.3955 12.3278C89.3617 12.0813 89.3279 11.8348 89.3279 11.5883C89.3617 11.2362 89.497 10.9193 89.8689 10.8137C90.207 10.708 90.4775 10.8489 90.6466 11.1306C91.1537 11.7996 91.5595 12.4687 91.999 13.1025C92.1681 13.3842 92.3371 13.6659 92.6753 13.9124C92.8105 13.1377 92.9119 12.3982 93.0472 11.6236C93.1148 11.3066 93.1486 10.9545 93.2501 10.6376C93.3853 10.1798 93.6558 9.96856 93.9939 10.0038C94.3658 10.0742 94.5349 10.3559 94.6025 10.708C94.704 11.5883 94.7716 12.4335 94.8392 13.3138C94.873 13.525 94.873 13.7715 94.873 14.0884C95.1435 13.9828 95.3464 13.8772 95.5493 13.7715C96.0564 13.4898 96.5636 13.2081 97.0708 12.9616C97.6794 12.6447 98.0175 12.6447 98.2542 12.9969C98.4571 13.3138 98.3894 13.6659 97.9499 14.1941C97.5441 14.6871 97.1384 15.18 96.7327 15.673C96.4284 16.0251 96.1579 16.4125 95.8197 16.835C95.955 17.0111 96.0902 17.1872 96.2593 17.328C97.0032 18.1731 97.7808 19.0182 98.5247 19.8633C98.7614 20.145 98.8966 20.4267 98.6937 20.7789C98.4909 21.131 98.1866 21.131 97.8484 21.0606C96.9017 20.8493 95.955 20.638 94.873 20.3915Z" fill="black"/>
<path d="M9.87302 86.3915C10.0759 87.3071 10.2788 88.0465 10.4478 88.8212C10.4816 88.9973 10.5493 89.2085 10.5831 89.3846C10.6507 89.7015 10.5831 90.0184 10.2788 90.1945C9.97445 90.3706 9.70396 90.2297 9.50109 89.9832C8.89248 89.2438 8.28387 88.4691 7.67526 87.7296C7.54001 87.5535 7.40476 87.4127 7.16808 87.1662C6.96521 87.9057 6.76234 88.5395 6.55947 89.1733C6.39041 89.7015 6.25517 90.2649 6.01848 90.7579C5.95086 90.9692 5.68037 91.1805 5.51131 91.2157C5.17319 91.2509 5.07176 90.934 5.03794 90.6523C4.97032 89.8776 4.93651 89.0677 4.86889 88.293C4.83507 87.8 4.80126 87.3071 4.73364 86.6732C4.39552 86.8141 4.15884 86.8845 3.92216 86.9901C3.21211 87.2718 2.50207 87.5888 1.82583 87.8705C1.58915 87.9761 1.35247 88.0465 1.11579 88.0817C0.743858 88.1522 0.338117 88.1522 0.101435 87.7648C-0.101435 87.4479 0 87.0254 0.405741 86.638C1.08197 86.0042 1.75821 85.4408 2.46825 84.8422C2.67112 84.6661 2.874 84.49 3.11068 84.2788C2.40063 83.9266 1.69059 83.5745 1.04816 83.2224C0.371929 82.8703 0.169059 82.5181 0.304305 82.0956C0.439552 81.673 0.811481 81.4617 1.52153 81.5322C2.2992 81.6026 3.07687 81.7082 3.85453 81.7787C4.19265 81.8139 4.53077 81.7787 4.97032 81.7787C4.9027 81.2505 4.9027 80.8279 4.83507 80.4054C4.69983 79.7011 4.53077 79.0321 4.39552 78.3278C4.36171 78.0813 4.3279 77.8348 4.3279 77.5883C4.36171 77.2362 4.49696 76.9193 4.86889 76.8137C5.207 76.708 5.4775 76.8489 5.64656 77.1306C6.15373 77.7996 6.55947 78.4687 6.99902 79.1025C7.16808 79.3842 7.33714 79.6659 7.67526 79.9124C7.81051 79.1377 7.91194 78.3982 8.04719 77.6236C8.11481 77.3066 8.14862 76.9545 8.25006 76.6376C8.3853 76.1798 8.6558 75.9686 8.99391 76.0038C9.36584 76.0742 9.5349 76.3559 9.60253 76.708C9.70396 77.5883 9.77158 78.4335 9.83921 79.3138C9.87302 79.525 9.87302 79.7715 9.87302 80.0884C10.1435 79.9828 10.3464 79.8772 10.5493 79.7715C11.0564 79.4898 11.5636 79.2081 12.0708 78.9616C12.6794 78.6447 13.0175 78.6447 13.2542 78.9969C13.4571 79.3138 13.3894 79.6659 12.9499 80.1941C12.5441 80.6871 12.1384 81.18 11.7327 81.673C11.4284 82.0251 11.1579 82.4125 10.8197 82.835C10.955 83.0111 11.0902 83.1872 11.2593 83.328C12.0032 84.1731 12.7808 85.0182 13.5247 85.8633C13.7614 86.145 13.8966 86.4267 13.6937 86.7789C13.4909 87.131 13.1866 87.131 12.8484 87.0606C11.9017 86.8493 10.955 86.638 9.87302 86.3915Z" fill="black"/>
<defs>
<clipPath id="clip0_283_2">
<rect width="250" height="205" fill="white" transform="translate(46 84)"/>
</clipPath>
</defs>
</svg>
