<svg width="168" height="123" viewBox="0 0 168 123" fill="none" xmlns="http://www.w3.org/2000/svg">
<path fill-rule="evenodd" clip-rule="evenodd" d="M93.6174 0.2C93.383 0.482601 93.1604 0.765203 92.9413 1.0434C92.5402 1.55272 92.1507 2.04728 91.7215 2.5C90.7534 3.40777 89.793 4.32358 88.8336 5.23831C86.4112 7.54812 83.996 9.85103 81.4836 12C68.781 22.5 56.0784 33 43.4706 43.5L19.0133 63.9L19.0132 63.9001C18.6341 64.2001 18.2549 64.5 17.9706 64.8C17.307 65.4 16.5486 65.8 15.6955 65C14.9371 64.3 15.1267 63.3 15.6007 62.6C16.1694 61.6 16.9278 60.6 17.6862 59.8C18.1441 59.3608 18.602 58.9195 19.0606 58.4777L19.0614 58.4769C21.7349 55.9005 24.4287 53.3045 27.2605 51C47.7364 34.4 68.307 17.9 89.636 2.5C90.7735 1.6 92.0059 0.8 93.2382 0C93.2382 0 93.333 0.1 93.6174 0.2ZM166.753 22.5498L166.752 22.55C166.42 22.775 166.089 23 165.757 23.2C151.917 31.8 138.266 40.7 124.9 50.2C104.424 64.6 84.1379 79.4 64.7996 95.4C61.1974 98.4 57.6899 101.4 54.1825 104.4C53.6137 104.9 53.1397 105.3 52.571 105.7C51.8126 106.3 51.0542 106.6 50.2959 105.9C49.5375 105.2 49.7271 104.2 50.2011 103.5C50.7698 102.5 51.4334 101.5 52.2866 100.7L52.4003 100.59L52.4004 100.59L52.4004 100.589C54.7354 98.3233 57.1621 95.968 59.6806 94C88.4985 71 118.075 49.5 149.642 31C153.244 28.8667 156.93 26.9111 160.617 24.9555L160.619 24.9547C162.461 23.9772 164.304 22.9997 166.136 22L166.136 21.9999C166.61 21.7999 167.084 21.6 167.463 21.4C167.558 21.5 167.653 21.7 167.748 21.9C167.416 22.0999 167.084 22.3248 166.753 22.5498ZM105.088 8.5C105.751 8 106.32 7.4 106.889 6.8C106.794 6.7 106.699 6.6 106.415 6.5C105.751 7.00002 105.088 7.52503 104.424 8.05005L104.424 8.05037C103.76 8.57525 103.097 9.10012 102.433 9.6C98.6095 12.5086 94.7827 15.4171 90.9545 18.3268C72.671 32.2231 54.3564 46.1432 36.1714 60.2C31.0572 64.1042 26.2297 68.3107 21.3836 72.5334L21.3835 72.5336C19.4027 74.2595 17.4189 75.9882 15.4111 77.7C13.9892 78.9 12.7569 80.3 11.5245 81.7C11.0505 82.2 10.5766 82.8 10.387 83.5C10.2922 84 10.4818 84.7 10.7661 85C11.0505 85.3 11.8089 85.4 12.1881 85.2C12.9464 84.8 13.61 84.3 14.2736 83.7C16.5651 81.7156 18.832 79.7052 21.0964 77.6969C25.1082 74.139 29.1123 70.5878 33.2327 67.2C43.2892 58.9553 53.3771 50.8103 63.4603 42.6692L63.4606 42.6689L63.4607 42.6688L63.4622 42.6677C70.8671 36.689 78.2693 30.7124 85.6546 24.7C92.1954 19.3001 98.6413 13.9003 105.087 8.50039L105.088 8.5ZM105.562 22L105.562 22.0001C104.519 23.0001 103.476 24.0001 102.339 24.9C99.1792 27.4871 96.0146 30.0742 92.8485 32.6625L92.848 32.6629C82.4298 41.1798 71.9948 49.7105 61.6713 58.3C55.5615 63.3918 49.5304 68.5667 43.5273 73.7175L43.5265 73.7182C40.2159 76.5588 36.9139 79.392 33.6119 82.2L33.6118 82.2001L33.6118 82.2001C32.8534 82.9001 32.0951 83.6 31.242 84.1C30.768 84.4 29.7252 84.4 29.4409 84.1C29.0617 83.7 28.9669 82.7 29.2513 82.2C29.6305 81.4 30.1992 80.6 30.8628 79.9C31.5157 79.2687 32.1607 78.6292 32.8069 77.9884L32.8071 77.9883L32.8072 77.9882C34.4128 76.3963 36.0256 74.7973 37.7829 73.3C56.742 57.5 75.8907 42 95.8925 27.7C98.0682 26.1427 100.371 24.5853 102.593 23.083L102.6 23.0784C103.086 22.7494 103.569 22.4231 104.045 22.1C104.424 21.9 104.803 21.7 105.182 21.4C105.255 21.5145 105.313 21.5999 105.363 21.6728L105.364 21.673C105.445 21.791 105.503 21.8764 105.562 22ZM112.131 35.4442C112.308 35.2314 112.487 35.0157 112.671 34.8C112.387 34.6 112.292 34.5 112.292 34.5L112.292 34.5003C110.87 35.6002 109.448 36.7001 108.026 37.7C92.1955 48.8 76.9334 60.7 61.8609 72.8C57.4055 76.3 53.0449 79.9 48.6843 83.5C47.8312 84.2 47.0728 85 46.4093 85.8C45.8405 86.5 45.5561 87.4 46.2197 88.2C46.8832 89.1 47.7364 89 48.4948 88.5C49.5375 87.9 50.5803 87.2 51.5282 86.4C53.1871 85 54.8223 83.575 56.4575 82.15C58.0928 80.725 59.728 79.3 61.3869 77.9C72.8572 68.4 84.4223 58.9 95.9873 49.5L110.207 37.5C110.876 36.951 111.487 36.2175 112.131 35.4442Z" fill="black"/>
<path d="M4.906 97.5619C4.84111 96.6998 4.81948 95.8046 4.73295 94.9757C4.58153 93.5831 4.14891 92.489 3.32692 91.7927C2.63471 91.2291 1.94251 90.7317 1.22867 90.2012C1.01236 90.0355 0.774416 89.9028 0.558103 89.7371C0.385052 89.6044 0.276895 89.3723 0.341789 89.0739C0.385052 88.875 0.536472 88.7424 0.644628 88.5766C0.66626 88.5434 0.709522 88.5434 0.752785 88.5434C2.46166 88.0129 3.60812 86.322 4.38685 84.0674C5.07905 82.1112 5.64147 80.0555 6.26878 78.0661C6.3553 77.7677 6.44183 77.4693 6.54999 77.2372C6.61488 77.1046 6.78793 76.972 6.89609 77.0052C7.00424 77.0383 7.13403 77.2372 7.15566 77.4362C7.19893 77.6351 7.1773 77.9004 7.15566 78.1325C7.1124 78.5966 7.06914 79.0608 7.00424 79.5582C6.74467 81.5144 7.00424 83.4043 7.26382 85.2942C7.39361 86.1231 7.71808 86.7199 8.19397 87.1177C8.79965 87.6151 9.42696 87.9466 10.0975 88.1787C10.3138 88.245 10.6167 88.245 10.6383 88.7424C10.6599 89.2729 10.3571 89.4055 10.1192 89.505C9.08085 89.9028 8.34539 90.9638 7.67482 92.1906C6.98261 93.4505 6.44183 94.8762 6.09573 96.4346C5.90105 97.2966 5.728 98.1587 5.53331 98.9876C5.49005 99.1534 5.49005 99.3191 5.42516 99.4186C5.33863 99.5844 5.18721 99.8165 5.10069 99.7833C4.99253 99.7502 4.906 99.4849 4.84111 99.286C4.79785 99.1534 4.81948 98.9876 4.81948 98.8218C4.81948 98.3908 4.81948 97.9597 4.81948 97.5619C4.86274 97.5619 4.88437 97.5619 4.906 97.5619Z" fill="black"/>
<path d="M19.9651 100.562C19.9002 99.6998 19.8786 98.8046 19.792 97.9757C19.6406 96.5831 19.208 95.489 18.386 94.7927C17.6938 94.2291 17.0016 93.7317 16.2878 93.2012C16.0714 93.0355 15.8335 92.9028 15.6172 92.7371C15.4441 92.6044 15.336 92.3723 15.4009 92.0739C15.4441 91.875 15.5956 91.7424 15.7037 91.5766C15.7253 91.5434 15.7686 91.5434 15.8119 91.5434C17.5207 91.0129 18.6672 89.322 19.4459 87.0674C20.1381 85.1112 20.7006 83.0555 21.3279 81.0661C21.4144 80.7677 21.5009 80.4693 21.6091 80.2372C21.674 80.1046 21.847 79.972 21.9552 80.0052C22.0633 80.0383 22.1931 80.2372 22.2147 80.4362C22.258 80.6351 22.2364 80.9004 22.2147 81.1325C22.1715 81.5966 22.1282 82.0608 22.0633 82.5582C21.8038 84.5144 22.0633 86.4043 22.3229 88.2942C22.4527 89.1231 22.7772 89.7199 23.2531 90.1177C23.8587 90.6151 24.486 90.9466 25.1566 91.1787C25.3729 91.245 25.6758 91.245 25.6974 91.7424C25.719 92.2729 25.4162 92.4055 25.1782 92.505C24.1399 92.9028 23.4045 93.9638 22.7339 95.1906C22.0417 96.4505 21.5009 97.8762 21.1548 99.4346C20.9601 100.297 20.7871 101.159 20.5924 101.988C20.5491 102.153 20.5491 102.319 20.4842 102.419C20.3977 102.584 20.2463 102.816 20.1598 102.783C20.0516 102.75 19.9651 102.485 19.9002 102.286C19.8569 102.153 19.8786 101.988 19.8786 101.822C19.8786 101.391 19.8786 100.96 19.8786 100.562C19.9218 100.562 19.9435 100.562 19.9651 100.562Z" fill="black"/>
<path d="M37.032 104.562C36.9671 103.7 36.9455 102.805 36.8589 101.976C36.7075 100.583 36.2749 99.489 35.4529 98.7927C34.7607 98.2291 34.0685 97.7317 33.3547 97.2012C33.1383 97.0355 32.9004 96.9028 32.6841 96.7371C32.511 96.6044 32.4029 96.3723 32.4678 96.0739C32.511 95.875 32.6624 95.7424 32.7706 95.5766C32.7922 95.5434 32.8355 95.5434 32.8788 95.5434C34.5876 95.0129 35.7341 93.322 36.5128 91.0674C37.205 89.1112 37.7674 87.0555 38.3948 85.0661C38.4813 84.7677 38.5678 84.4693 38.676 84.2372C38.7409 84.1046 38.9139 83.972 39.0221 84.0052C39.1302 84.0383 39.26 84.2372 39.2816 84.4362C39.3249 84.6351 39.3033 84.9004 39.2816 85.1325C39.2384 85.5966 39.1951 86.0608 39.1302 86.5582C38.8706 88.5144 39.1302 90.4043 39.3898 92.2942C39.5196 93.1231 39.8441 93.7199 40.3199 94.1177C40.9256 94.6151 41.5529 94.9466 42.2235 95.1787C42.4398 95.245 42.7427 95.245 42.7643 95.7424C42.7859 96.2729 42.4831 96.4055 42.2451 96.505C41.2068 96.9028 40.4714 97.9638 39.8008 99.1906C39.1086 100.451 38.5678 101.876 38.2217 103.435C38.027 104.297 37.854 105.159 37.6593 105.988C37.616 106.153 37.616 106.319 37.5511 106.419C37.4646 106.584 37.3132 106.816 37.2267 106.783C37.1185 106.75 37.032 106.485 36.9671 106.286C36.9238 106.153 36.9455 105.988 36.9455 105.822C36.9455 105.391 36.9455 104.96 36.9455 104.562C36.9887 104.562 37.0103 104.562 37.032 104.562Z" fill="black"/>
<path d="M44.0593 120.562C43.9944 119.7 43.9728 118.805 43.8863 117.976C43.7349 116.583 43.3022 115.489 42.4802 114.793C41.788 114.229 41.0958 113.732 40.382 113.201C40.1657 113.035 39.9277 112.903 39.7114 112.737C39.5384 112.604 39.4302 112.372 39.4951 112.074C39.5384 111.875 39.6898 111.742 39.7979 111.577C39.8196 111.543 39.8628 111.543 39.9061 111.543C41.615 111.013 42.7614 109.322 43.5402 107.067C44.2324 105.111 44.7948 103.056 45.4221 101.066C45.5086 100.768 45.5952 100.469 45.7033 100.237C45.7682 100.105 45.9413 99.972 46.0494 100.005C46.1576 100.038 46.2874 100.237 46.309 100.436C46.3522 100.635 46.3306 100.9 46.309 101.132C46.2657 101.597 46.2225 102.061 46.1576 102.558C45.898 104.514 46.1576 106.404 46.4171 108.294C46.5469 109.123 46.8714 109.72 47.3473 110.118C47.953 110.615 48.5803 110.947 49.2508 111.179C49.4672 111.245 49.77 111.245 49.7916 111.742C49.8133 112.273 49.5104 112.405 49.2725 112.505C48.2342 112.903 47.4987 113.964 46.8281 115.191C46.1359 116.451 45.5951 117.876 45.249 119.435C45.0544 120.297 44.8813 121.159 44.6866 121.988C44.6434 122.153 44.6434 122.319 44.5785 122.419C44.492 122.584 44.3405 122.816 44.254 122.783C44.1458 122.75 44.0593 122.485 43.9944 122.286C43.9512 122.153 43.9728 121.988 43.9728 121.822C43.9728 121.391 43.9728 120.96 43.9728 120.562C44.0161 120.562 44.0377 120.562 44.0593 120.562Z" fill="black"/>
<path d="M5.90991 76.5619C5.84502 75.6998 5.82338 74.8046 5.73686 73.9757C5.58544 72.5831 5.15281 71.489 4.33082 70.7927C3.63862 70.2291 2.94642 69.7317 2.23258 69.2012C2.01627 69.0355 1.77832 68.9028 1.56201 68.7371C1.38896 68.6044 1.2808 68.3723 1.3457 68.0739C1.38896 67.875 1.54038 67.7424 1.64853 67.5766C1.67017 67.5434 1.71343 67.5434 1.75669 67.5434C3.46557 67.0129 4.61203 65.322 5.39076 63.0674C6.08296 61.1112 6.64538 59.0555 7.27268 57.0661C7.35921 56.7677 7.44574 56.4693 7.55389 56.2372C7.61879 56.1046 7.79184 55.972 7.89999 56.0052C8.00815 56.0383 8.13794 56.2372 8.15957 56.4362C8.20283 56.6351 8.1812 56.9004 8.15957 57.1325C8.11631 57.5966 8.07304 58.0608 8.00815 58.5582C7.74857 60.5144 8.00815 62.4043 8.26773 64.2942C8.39752 65.1231 8.72199 65.7199 9.19788 66.1177C9.80355 66.6151 10.4309 66.9466 11.1014 67.1787C11.3177 67.245 11.6206 67.245 11.6422 67.7424C11.6638 68.2729 11.361 68.4055 11.1231 68.505C10.0848 68.9028 9.3493 69.9638 8.67872 71.1906C7.98652 72.4505 7.44574 73.8762 7.09963 75.4346C6.90495 76.2966 6.7319 77.1587 6.53722 77.9876C6.49396 78.1534 6.49396 78.3191 6.42906 78.4186C6.34254 78.5844 6.19112 78.8165 6.10459 78.7833C5.99644 78.7502 5.90991 78.4849 5.84502 78.286C5.80175 78.1534 5.82338 77.9876 5.82338 77.8218C5.82338 77.3908 5.82338 76.9597 5.82338 76.5619C5.86665 76.5619 5.88828 76.5619 5.90991 76.5619Z" fill="black"/>
</svg>
