<svg width="536" height="532" viewBox="0 0 536 532" fill="none" xmlns="http://www.w3.org/2000/svg">
<path d="M288.144 179.138C285.25 177.161 282.373 175.447 279.479 173.47C259.097 159.776 238.121 147.06 215.396 137.803C208.63 134.995 201.636 132.735 194.536 130.881C189.984 129.717 185.204 129.1 180.476 129.271C166.675 129.616 159.075 140.209 163.615 153.248C165.564 158.873 168.804 164.117 171.52 169.408C172.286 171.052 173.297 172.411 173.696 174.485C172.475 173.937 171.255 173.39 170.034 172.842C160.234 167.938 150.294 162.915 139.567 159.943C134.334 158.445 128.996 157.353 123.554 156.666C120.361 156.168 116.959 156.48 113.835 157.031C104.604 158.803 98.5955 165.556 97.5044 175.023C96.9063 179.959 97.7563 184.894 99.1125 189.519C101.495 197.743 105.011 205.203 109.174 212.472C119.014 230.037 130.757 246.504 142.867 262.542C155.534 279.055 168.586 295.402 181.376 311.772C182.23 312.749 182.822 313.75 183.064 315.443C181.32 314.944 179.838 314.42 178.094 313.921C165.449 309.806 152.593 306.502 139.247 305.75C133.036 305.397 126.738 305.712 120.596 306.408C114.977 307.057 109.618 309.66 105.409 313.741C99.3321 319.444 96.9171 326.79 97.1881 334.945C97.3732 341.788 99.4955 348.057 102.264 354.135C107.156 364.503 113.812 373.654 121.218 382.208C141.573 405.535 165.124 425.402 190.37 443.003C208.991 455.935 228.433 467.341 249.29 476.242C257.138 479.478 265.231 482.428 273.621 483.9C279.622 485.063 285.571 485.44 291.835 484.601C307.732 482.084 318.106 471.632 320.634 455.965C321.548 449.812 321.292 443.899 320.234 437.796C318.759 429.356 316.394 421.394 312.86 413.672C308.856 404.805 304.468 396.105 300.342 387.382C299.732 386.118 299.123 384.855 298.061 382.71C300.067 383.185 301.131 383.351 302.334 383.637C312.922 386.489 323.387 389.485 333.94 391.814C344.493 394.142 355.222 395.135 366.198 393.862C371.555 393.238 376.877 392.089 381.764 390.321C395.134 385.398 403.849 375.758 407.806 361.806C410.257 353.006 410.336 344.16 409.351 335.148C408.313 325.348 405.723 315.956 402.749 306.731C402.262 305.324 401.758 303.656 401.236 301.725C402.963 301.962 404.167 302.247 405.37 302.532C418.348 305.693 431.207 305.039 444.07 300.427C454.228 296.723 463.916 291.875 472.28 284.905C479.543 279.225 483.128 271.64 483.712 262.483C484.351 252.134 482.389 242.288 477.46 233.374C474.308 227.464 470.895 221.577 466.852 216.144C456.764 202.823 446.413 189.526 435.714 176.921C413.303 150.353 389.286 125.384 362.684 103.159C347.64 90.5576 331.739 78.9583 314.162 69.8878C306.664 65.9596 299.06 62.4368 290.792 60.822C285.192 59.7535 279.331 58.709 273.695 59.0951C256.754 59.7286 246.71 71.2056 247.95 88.11C248.276 93.0931 249.143 98.2904 250.761 102.891C253.997 112.092 257.495 121.269 261.866 129.707C269.719 145.08 278.463 159.975 286.805 174.776C287.415 176.039 288.146 177.159 288.756 178.422C288.511 178.709 288.389 178.852 288.144 179.138Z" fill="#E4D678"/>
<path d="M304.2 190.138C301.306 188.161 298.429 186.447 295.535 184.47C275.153 170.776 254.177 158.06 231.452 148.803C224.686 145.995 217.692 143.735 210.593 141.881C206.04 140.717 201.26 140.1 196.532 140.271C182.731 140.616 175.131 151.209 179.672 164.248C181.62 169.873 184.86 175.117 187.577 180.408C188.343 182.052 189.353 183.411 189.752 185.485C188.532 184.937 187.311 184.39 186.09 183.842C176.29 178.938 166.35 173.915 155.623 170.943C150.39 169.445 145.053 168.353 139.61 167.666C136.418 167.168 133.015 167.48 129.891 168.031C120.66 169.803 114.652 176.556 113.561 186.023C112.962 190.959 113.812 195.894 115.169 200.519C117.551 208.743 121.068 216.203 125.23 223.472C135.07 241.037 146.813 257.504 158.923 273.542C171.591 290.055 184.642 306.402 197.432 322.772C198.286 323.749 198.878 324.75 199.121 326.443C197.376 325.944 195.894 325.42 194.15 324.921C181.505 320.806 168.65 317.502 155.303 316.75C149.093 316.397 142.794 316.712 136.652 317.408C131.033 318.057 125.674 320.66 121.466 324.741C115.388 330.444 112.973 337.79 113.244 345.945C113.429 352.788 115.552 359.057 118.32 365.135C123.212 375.503 129.868 384.654 137.274 393.208C157.629 416.535 181.18 436.402 206.426 454.003C225.047 466.935 244.489 478.341 265.347 487.242C273.195 490.478 281.287 493.428 289.678 494.9C295.678 496.063 301.627 496.44 307.892 495.601C323.788 493.084 334.162 482.632 336.69 466.965C337.604 460.812 337.348 454.899 336.29 448.796C334.815 440.356 332.45 432.394 328.916 424.672C324.912 415.805 320.524 407.105 316.398 398.382C315.788 397.118 315.179 395.855 314.117 393.71C316.123 394.185 317.187 394.351 318.391 394.637C328.978 397.489 339.443 400.485 349.996 402.814C360.55 405.142 371.279 406.135 382.254 404.862C387.611 404.238 392.933 403.089 397.82 401.321C411.19 396.398 419.905 386.758 423.862 372.806C426.314 364.006 426.392 355.16 425.407 346.148C424.37 336.348 421.779 326.956 418.805 317.731C418.318 316.324 417.814 314.656 417.292 312.725C419.019 312.962 420.223 313.247 421.426 313.532C434.404 316.693 447.263 316.039 460.126 311.427C470.284 307.723 479.972 302.875 488.336 295.905C495.6 290.225 499.184 282.64 499.769 273.483C500.407 263.134 498.445 253.288 493.517 244.374C490.365 238.464 486.951 232.577 482.909 227.144C472.82 213.823 462.47 200.526 451.77 187.921C429.359 161.353 405.342 136.384 378.74 114.159C363.696 101.558 347.796 89.9583 330.218 80.8878C322.72 76.9596 315.116 73.4368 306.848 71.822C301.249 70.7535 295.387 69.7091 289.752 70.0951C272.81 70.7286 262.766 82.2056 264.006 99.11C264.332 104.093 265.199 109.29 266.817 113.891C270.053 123.092 273.551 132.269 277.922 140.707C285.775 156.08 294.519 170.975 302.861 185.776C303.471 187.039 304.202 188.159 304.812 189.422C304.567 189.709 304.445 189.852 304.2 190.138Z" fill="#C488FF"/>
</svg>
