<svg width="34" height="38" viewBox="0 0 34 38" fill="none" xmlns="http://www.w3.org/2000/svg">
<g clip-path="url(#clip0_147_210)">
<path d="M11.2988 4.56183C11.2251 4.30824 11.0418 4.11303 10.8114 4.04268L7.90927 3.15708L6.2588 0.346045C5.99732 -0.100041 5.33603 -0.100041 5.07455 0.346045L3.42443 3.15708L0.52192 4.04268C0.291574 4.11303 0.108265 4.30824 0.0345952 4.56183C-0.0390742 4.81579 0.0065801 5.09373 0.155648 5.30169L2.0382 7.92486L1.89466 11.2833C1.88325 11.55 1.99289 11.8047 2.18588 11.9617C2.30866 12.0614 2.45496 12.1128 2.6023 12.1128C2.68669 12.1128 2.77178 12.0958 2.85306 12.0614L5.66668 10.8712L8.48064 12.0614C8.70372 12.1561 8.95482 12.1186 9.14782 11.9617C9.34081 11.8047 9.45045 11.55 9.43903 11.2833L9.2955 7.92486L11.1777 5.30169C11.3268 5.09373 11.3724 4.81541 11.2988 4.56183ZM8.02237 7.16799C7.91446 7.31836 7.85947 7.50816 7.86742 7.70105L7.97222 10.1537L5.91743 9.28438C5.8365 9.24998 5.75176 9.23297 5.66668 9.23297C5.58159 9.23297 5.49686 9.24998 5.41592 9.28438L3.36148 10.1534L3.46628 7.70105C3.47458 7.50816 3.41924 7.31836 3.31133 7.16799L1.93651 5.2526L4.05598 4.60589C4.22269 4.55487 4.36691 4.43774 4.46168 4.27616L5.66668 2.22355L6.87202 4.27616C6.96679 4.43774 7.11101 4.55487 7.27772 4.60589L9.39684 5.2526L8.02237 7.16799Z" fill="#E4D678"/>
<path d="M26.2082 3.94681H14.1665V5.53015H26.2082V3.94681Z" fill="#E4D678"/>
<path d="M33.9998 7.90515H14.1665V9.48848H33.9998V7.90515Z" fill="#E4D678"/>
<path d="M11.2988 17.4995C11.2247 17.2459 11.0418 17.0507 10.8114 16.9803L7.90927 16.0951L6.2588 13.2841C5.99732 12.838 5.33603 12.838 5.07455 13.2841L3.42443 16.0951L0.52192 16.9803C0.291574 17.0507 0.108611 17.2459 0.0345952 17.4995C-0.0390742 17.753 0.0065801 18.0314 0.155648 18.2393L2.0382 20.8625L1.89466 24.2209C1.88325 24.4876 1.99289 24.7424 2.18588 24.8993C2.37853 25.0555 2.62963 25.093 2.85306 24.999L5.66668 23.8088L8.48064 24.999C8.56192 25.0334 8.647 25.0505 8.73139 25.0505C8.87873 25.0505 9.02503 24.999 9.14782 24.8993C9.34081 24.7424 9.45045 24.4876 9.43903 24.2209L9.2955 20.8625L11.1777 18.2393C11.3268 18.0314 11.3724 17.753 11.2988 17.4995ZM8.02237 20.1056C7.91446 20.256 7.85947 20.4458 7.86742 20.6387L7.97222 23.0914L5.91743 22.222C5.8365 22.1876 5.75176 22.1706 5.66668 22.1706C5.58159 22.1706 5.49686 22.1876 5.41592 22.222L3.36148 23.091L3.46628 20.6387C3.47458 20.4458 3.41924 20.256 3.31133 20.1056L1.93651 18.1902L4.05598 17.5439C4.22269 17.4929 4.36691 17.3758 4.46168 17.2142L5.66668 15.1616L6.87202 17.2142C6.96679 17.3758 7.11101 17.4929 7.27772 17.5439L9.39684 18.1902L8.02237 20.1056Z" fill="#E4D678"/>
<path d="M26.2082 16.6135H14.1665V18.1968H26.2082V16.6135Z" fill="#E4D678"/>
<path d="M33.9998 20.5718H14.1665V22.1551H33.9998V20.5718Z" fill="#E4D678"/>
<path d="M11.2988 30.4375C11.2247 30.1839 11.0418 29.9887 10.8114 29.9184L7.90927 29.0331L6.2588 26.2217C5.99732 25.7756 5.33603 25.7756 5.07455 26.2217L3.42443 29.0331L0.52192 29.9184C0.291574 29.9887 0.108611 30.1839 0.0345952 30.4375C-0.0390742 30.6911 0.0065801 30.9694 0.155648 31.1774L2.0382 33.8005L1.89466 37.1589C1.88325 37.4257 1.99289 37.6804 2.18588 37.8373C2.37853 37.9943 2.62963 38.031 2.85306 37.9371L5.66668 36.7469L8.48064 37.9371C8.56192 37.9715 8.647 37.9885 8.73139 37.9885C8.87873 37.9885 9.02503 37.9371 9.14782 37.8373C9.34081 37.6804 9.45045 37.4257 9.43903 37.1589L9.2955 33.8005L11.1777 31.1774C11.3268 30.9694 11.3724 30.6911 11.2988 30.4375ZM8.02237 33.0437C7.91446 33.194 7.85947 33.3838 7.86742 33.5767L7.97222 36.0294L5.91743 35.1601C5.8365 35.1257 5.75176 35.1086 5.66668 35.1086C5.58159 35.1086 5.49686 35.1257 5.41592 35.1601L3.36148 36.029L3.46628 33.5767C3.47458 33.3838 3.41924 33.194 3.31133 33.0437L1.93651 31.1283L4.05598 30.482C4.22269 30.4309 4.36691 30.3138 4.46168 30.1522L5.66668 28.0992L6.87202 30.1522C6.96679 30.3138 7.11101 30.4309 7.27772 30.482L9.39684 31.1283L8.02237 33.0437Z" fill="#E4D678"/>
<path d="M26.2082 30.0718H14.1665V31.6551H26.2082V30.0718Z" fill="#E4D678"/>
<path d="M33.9998 34.0302H14.1665V35.6135H33.9998V34.0302Z" fill="#E4D678"/>
</g>
<defs>
<clipPath id="clip0_147_210">
<rect width="34" height="38" fill="white"/>
</clipPath>
</defs>
</svg>
