<svg width="59" height="48" viewBox="0 0 59 48" fill="none" xmlns="http://www.w3.org/2000/svg">
<path d="M30.5049 31.9409C30.727 32.0591 30.8684 32.1435 31.0097 32.2279C32.2817 33.1396 33.5739 34.0514 34.8459 34.9631C35.2094 35.2163 35.5526 35.4696 35.8958 35.7566C36.0977 35.9255 36.2795 36.1281 36.441 36.3307C36.8044 36.8203 36.7035 37.2086 36.1381 37.5632C35.9362 37.6814 35.7343 37.7827 35.5122 37.8671C34.321 38.3905 33.0893 38.8126 31.8173 39.1672C31.6356 39.2178 31.4539 39.2685 31.2318 39.336C31.3126 39.4373 31.3731 39.5217 31.4539 39.6061C33.897 41.7335 36.0977 44.0297 38.3995 46.2584C38.5004 46.3597 38.6014 46.461 38.7023 46.5792C38.8235 46.7649 38.8235 46.9506 38.662 47.1194C38.5206 47.2883 38.2985 47.3558 38.0562 47.322C37.8745 47.2883 37.6928 47.2207 37.5111 47.1532C37.188 47.0181 36.8448 46.8662 36.5217 46.7142C36.3602 46.6467 36.1987 46.5791 36.0574 46.5116C35.3103 46.1402 34.5633 45.7687 33.8162 45.3804C33.3316 45.1271 32.8269 44.857 32.3827 44.5531C30.0809 43.0167 27.7994 41.4802 25.6592 39.7919C24.6093 38.9477 23.4584 38.2048 22.3479 37.4281C22.2469 37.3437 22.1258 37.2762 22.0248 37.1917C21.722 36.8878 21.8431 36.5164 22.3075 36.3982C22.4489 36.3644 22.5902 36.3476 22.7315 36.3476C23.6805 36.3307 24.6294 36.3138 25.5784 36.3138C25.7399 36.3138 25.8813 36.3138 26.1437 36.3138C25.6794 35.841 25.2957 35.4189 24.8717 35.0137C24.3266 34.4903 23.7814 33.9838 23.2363 33.4604C23.1151 33.3422 22.9738 33.3254 22.8123 33.3254C19.7837 33.4435 16.8157 33.1396 13.888 32.5318C10.8594 31.9071 8.21443 30.6239 5.85213 28.9356C4.43878 27.9225 3.59077 26.6225 3.16677 25.1367C3.04562 24.7146 3.02543 24.2756 2.96486 23.8535C2.60143 21.5573 3.12639 19.3962 4.33783 17.3364C5.28679 15.7493 6.47804 14.3311 7.87119 12.9972C9.91045 11.0218 12.2526 9.33345 14.7764 7.79702C18.9761 5.23068 23.4584 3.12021 28.3647 1.6682C30.9693 0.891545 33.6143 0.334379 36.3602 0.114889C39.6513 -0.155252 42.902 0.0304702 46.0719 0.891545C49.2217 1.75262 51.6042 3.40723 53.2396 5.80473C54.2088 7.20609 54.8751 8.70875 55.1577 10.3127C55.5212 12.5245 55.077 14.635 53.9261 16.661C53.0983 18.0962 52.0282 19.3962 50.8571 20.6287C46.0719 25.7108 39.9945 29.2732 32.6653 31.3499C32.1 31.5019 31.5347 31.6707 30.9693 31.8227C30.8684 31.8227 30.7674 31.8565 30.5049 31.9409Z" fill="black"/>
<path d="M16.6547 3.00202C16.4729 3.18775 16.3518 3.32282 16.2105 3.441C15.2009 4.28519 14.1914 5.14627 13.1617 5.99046C11.5262 7.32428 9.8504 8.60745 8.23514 9.95816C6.29684 11.5621 4.66139 13.3687 3.36919 15.3947C2.07699 17.387 1.28955 19.5313 1.16841 21.8275C1.06746 23.5496 1.30974 25.2549 2.01642 26.8926C2.19813 27.3147 2.46061 27.7368 2.7029 28.142C2.86442 28.429 3.02595 28.6992 3.16728 28.9862C3.28843 29.2226 3.20767 29.3914 3.02595 29.4927C2.82404 29.594 2.60195 29.5434 2.40004 29.3408C2.31928 29.2564 2.23851 29.1719 2.17794 29.0706C1.10784 27.7875 0.542498 26.3523 0.239638 24.8328C-0.467036 21.2365 0.421354 17.8767 2.4808 14.7194C3.69224 12.8622 5.18635 11.1907 6.92275 9.68801C9.14372 7.76326 11.5464 5.99046 13.9895 4.26831C14.5548 3.87998 15.1605 3.55919 15.7663 3.22151C15.9884 3.08644 16.2508 2.98514 16.6547 3.00202Z" fill="black"/>
<path d="M58.1866 10.3634C58.1664 12.2712 57.6415 14.0947 56.8339 15.8506C55.8243 18.0624 54.4312 20.0884 52.5938 21.895C51.8468 22.621 51.0593 23.3301 50.2921 24.0224C50.1709 24.1406 50.0094 24.2587 49.8681 24.3432C49.6056 24.512 49.3835 24.5289 49.222 24.4107C49.0605 24.2756 49.0605 24.0899 49.2624 23.8704C49.3431 23.7691 49.4441 23.6847 49.545 23.6003C50.3729 22.7899 51.2209 21.9794 52.0083 21.1521C54.2898 18.7377 55.8647 16.0194 56.6522 12.9972C57.1165 11.1907 57.056 9.36722 56.5916 7.57754C56.3291 6.58139 55.7436 5.68655 55.158 4.80859C54.4716 3.76179 53.6437 2.79942 52.6544 1.93834C52.4121 1.71885 52.19 1.49936 51.9679 1.26299C51.867 1.16169 51.7862 1.0435 51.7054 0.925314C51.6247 0.790244 51.5035 0.655173 51.6651 0.520103C51.8064 0.401916 51.9881 0.469451 52.1093 0.536986C52.4323 0.705825 52.7352 0.857779 53.0178 1.06038C54.5119 2.0903 55.6628 3.35658 56.5108 4.79171C57.0762 5.7372 57.6819 6.69958 57.8636 7.76326C57.9847 8.62433 58.0655 9.48541 58.1866 10.3634Z" fill="black"/>
</svg>
