<svg width="94" height="78" viewBox="0 0 94 78" fill="none" xmlns="http://www.w3.org/2000/svg">
<path d="M53.5656 40.5204C53.9015 40.4994 54.1171 40.5596 54.3293 40.485C62.4339 39.2668 70.4932 37.4625 78.5153 34.1757C82.1478 32.6849 85.5864 30.7766 88.9297 28.7271C89.8035 28.2063 90.7693 27.6919 91.6749 27.2181C92.0074 27.0624 92.4318 26.9131 92.7677 26.8921C92.9515 26.9052 93.2307 27.0595 93.2658 27.2414C93.301 27.4232 93.0638 27.7203 92.8833 27.842C84.7566 33.0494 76.2385 37.2875 67.1182 39.4649C62.436 40.5673 57.7822 41.5821 53.1183 42.1926C52.6303 42.2477 51.9302 42.3773 51.6011 42.6678C47.3225 46.4445 42.3383 48.9156 37.2169 50.794C29.3083 53.7301 21.3613 56.3495 13.4176 59.1037C12.933 59.2935 12.3565 59.4768 11.7868 59.9296C16.6435 60.9022 21.5285 61.7871 26.477 62.7663C26.0695 63.5893 25.5248 63.8197 24.8848 63.9088C24.1529 63.9913 23.3608 64.1144 22.6255 64.0622C18.6096 63.6874 14.5938 63.3126 10.6063 62.8501C9.74728 62.7443 8.94504 62.4631 8.20295 62.1414C6.77892 61.4573 6.83698 60.1162 8.27375 58.873C11.1189 56.4743 13.9357 54.1632 16.8444 51.8586C17.6831 51.1559 18.415 51.0733 18.8848 51.5102C19.2626 51.9406 19.1274 52.6485 18.3205 53.3983C16.9155 54.6886 15.447 55.8848 13.8615 57.2968C14.2576 57.2352 14.4414 57.2483 14.6536 57.1737C22.5304 54.1905 30.4389 51.2544 38.3123 48.1365C40.675 47.2281 42.9957 45.8683 45.2597 44.6838C46.1653 44.21 47.004 43.5073 48.0867 42.777C47.5034 42.6908 47.0439 42.6581 46.6762 42.632C43.6782 42.5985 40.7335 42.2549 38.0511 41.3919C35.6761 40.5955 33.7188 39.3803 32.4448 37.3617C32.0602 36.6618 31.6438 35.9148 31.4397 35.0931C30.4927 31.4835 32.8126 27.6574 37.167 25.6797C42.5472 23.147 51.0749 22.9454 54.7315 28.4962C56.8281 31.6046 56.5519 35.217 54.3874 39.1439C54.1535 39.5757 53.8596 40.0481 53.5656 40.5204ZM34.0971 36.1786C35.3644 37.9277 36.9824 39.0291 38.9863 39.6646C42.1034 40.7828 45.5961 41.0308 49.1423 40.9687C49.9377 40.9803 50.4791 40.6152 51.0454 40.0276C53.902 36.8674 54.5222 32.3376 52.5276 29.6401C49.8059 25.9941 43.1109 24.891 37.8192 27.2954C34.2502 28.8805 32.6101 31.7683 33.48 34.7448C33.6774 35.2969 33.9667 35.8555 34.0971 36.1786Z" fill="black"/>
</svg>
