<svg width="115" height="119" viewBox="0 0 115 119" fill="none" xmlns="http://www.w3.org/2000/svg">
<path d="M98.7535 23.9843C98.9854 23.6906 99.1761 23.4513 99.3574 23.2007C100.271 21.9036 100.777 20.7413 101.092 19.6079C101.518 18.0341 101.482 16.7378 101.216 15.5803C100.765 13.6768 99.6874 12.2685 98.1887 11.2383C95.9719 9.70471 93.022 9.00727 89.4056 9.06992C87.3696 9.11273 85.1962 9.40712 82.7295 10.1821C81.838 10.461 80.9238 10.8169 79.9936 11.2057C79.4512 11.4371 78.8541 11.8112 78.273 12.1525C78.0678 12.2697 77.8626 12.3869 77.788 12.2966C77.7574 12.2073 77.7587 12.0524 77.8227 11.9209C77.9921 11.6036 78.3213 11.3231 78.6465 11.1422C79.3128 10.7475 79.9859 10.3087 80.6229 10.0351C81.6637 9.57131 82.6819 9.18451 83.6773 8.87471C85.5963 8.22028 87.3646 7.90571 88.993 7.7873C94.6668 7.39444 98.8464 8.63993 101.322 11.7405C102.425 13.1272 103.019 14.89 102.788 17.2212C102.578 19.2648 101.814 21.4732 99.6249 24.2032C99.7594 24.2616 99.91 24.2872 100.035 24.3343C101.737 24.8265 103.238 25.5467 104.378 26.6132C105.491 27.6458 106.264 28.9476 106.317 30.7868C106.328 31.3739 106.253 32.0144 106.109 32.6755C105.325 35.9575 102.366 39.4785 98.1066 42.2616C96.5646 43.2678 95.056 44.0532 93.5514 44.7391C90.6275 46.0574 87.9089 46.8932 85.3024 47.499C84.5815 47.671 83.9019 47.7886 83.1716 47.9493C83.0237 47.9792 82.8851 48.0204 82.6679 48.0709C82.6252 48.2803 82.5732 48.4784 82.5371 48.6437C82.2341 50.2092 81.6127 51.9115 80.4808 53.7794C79.0809 56.1064 77.1574 58.3219 74.6197 60.3687C73.1136 61.5749 71.6222 62.5379 70.063 63.3665C67.6041 64.6732 65.332 65.4747 63.1532 66.0236C62.8667 66.0947 62.5802 66.1658 62.2497 66.2358C62.1377 66.4658 62.051 66.6743 61.955 66.8714C61.0483 68.8552 59.6858 70.8619 57.6038 72.8856C56.1016 74.3577 54.4729 75.5723 52.7577 76.6299C50.556 77.9867 48.4836 78.9255 46.4447 79.6437C43.6115 80.654 41.037 81.1941 38.6571 81.3953C38.4652 81.4242 38.264 81.4418 38.0281 81.4697C37.9255 81.711 37.8548 81.8866 37.7681 82.095C36.9546 84.1915 36.0372 86.319 34.7733 88.5494C34.1986 89.5773 33.5454 90.6145 32.8575 91.662C32.3669 92.426 31.7283 93.22 30.9739 93.9781C30.4127 94.5523 30.0049 94.8421 29.4718 95.0848C29.4878 95.0519 29.4945 95.0078 29.4945 95.0078C30.2982 94.3615 30.8701 93.6436 31.3887 92.9134C32.1872 91.7909 32.8031 90.7085 33.3498 89.6468C34.7658 86.9215 35.8699 84.289 36.8102 81.7191C36.8168 81.675 36.8235 81.6308 36.8622 81.521C36.7303 81.518 36.5891 81.5038 36.4225 81.5111C32.4863 81.5001 29.334 80.6099 27.0507 78.787C25.8278 77.8294 24.9341 76.5913 24.7268 74.8261C24.6444 74.2042 24.6912 73.5299 24.874 72.7589C25.0301 72.1645 25.2902 71.5392 25.6888 70.8727C26.61 69.3765 27.9216 68.1437 29.5822 67.2288C30.7376 66.5904 31.7424 66.2919 32.7179 66.1145C34.7127 65.7608 36.209 66.0048 37.4067 66.6186C40.0392 68.0286 40.9325 70.7282 40.0584 74.6836C39.7114 76.2481 39.1339 77.9514 38.667 79.5796C38.6057 79.7664 38.5443 79.9533 38.483 80.1402C38.5362 80.1524 38.5549 80.175 38.5989 80.176C41.3931 80.0063 44.4394 79.4104 47.8976 78.0598C49.8553 77.2955 51.821 76.3321 53.8882 74.917C57.2988 72.5688 59.8928 69.4935 60.9624 66.5059C60.8052 66.5245 60.6039 66.5421 60.4121 66.571C56.6343 67.1172 53.4124 66.9784 50.877 65.947C49.8285 65.5137 48.9319 64.951 48.3712 64.0637C48.0396 63.558 47.7839 62.9875 47.8695 62.2033C47.9016 61.7722 48.0097 61.2764 48.231 60.7609C48.7191 59.5761 49.8574 58.3948 51.2915 57.519C52.1031 57.039 52.8694 56.713 53.597 56.4968C54.8443 56.1263 55.929 56.0288 56.8897 56.0947C59.1629 56.2344 60.7576 57.0675 61.8072 58.4419C62.9872 59.9743 63.3837 62.0206 62.6739 64.817C62.6672 64.8612 62.6605 64.9053 62.6472 64.9936C62.7951 64.9637 62.9523 64.9451 63.1002 64.9152C64.8472 64.5226 66.6996 63.9442 68.6773 63.0475C70.2165 62.3513 71.7478 61.4889 73.3099 60.3503C75.441 58.8038 77.1752 57.0379 78.5149 55.1082C79.5681 53.6149 80.2907 52.1918 80.7016 50.8612C80.9377 50.1025 81.0538 49.4076 81.2299 48.6808C81.3113 48.3615 81.1581 48.2805 80.809 48.328C78.4184 48.6729 76.1931 48.8 74.1078 48.731C70.8979 48.6589 67.9612 48.2385 65.5831 47.1885C64.4253 46.6753 63.4448 46.0111 62.8255 45.0006C62.5286 44.4846 62.3422 43.8936 62.4877 43.0775C62.732 41.7543 63.973 40.3317 65.7442 39.3418C66.24 39.0539 66.7384 38.8216 67.2048 38.6549C67.9391 38.3946 68.6321 38.1887 69.293 38.0485C70.7628 37.7383 72.07 37.7013 73.2439 37.8163C77.3905 38.1863 80.3041 39.7798 81.8422 42.7375C82.4041 43.8352 82.7035 45.1375 82.687 46.6319C82.6883 46.8423 82.7216 46.987 83.052 46.9169C85.6479 46.4548 88.2984 45.8501 91.2075 44.775C92.8653 44.17 94.5525 43.444 96.2984 42.4756C97.3086 41.9226 98.3321 41.2812 99.3157 40.5393C101.852 38.6476 103.548 36.6262 104.472 34.4546C105.127 32.897 105.182 31.6582 104.971 30.5683C104.683 29.1224 103.904 28.0751 102.836 27.2539C101.741 26.3989 100.396 25.815 98.857 25.415C98.785 25.3802 98.6971 25.3782 98.5745 25.3865C98.4225 25.516 98.2866 25.6126 98.1693 25.7317C96.7404 27.0837 95.2384 28.1904 93.6538 29.0406C92.6089 29.6039 91.5454 30.1447 90.5459 30.5541C86.2801 32.2852 82.7222 32.8363 79.8335 32.3174C79.1686 32.1917 78.5864 31.9572 78.2321 31.5285C78.1202 31.3931 78.0083 31.2577 77.9218 31.1007C77.4597 30.0717 78.4916 28.5004 80.4641 27.1275C81.2891 26.5592 82.1034 26.1346 82.895 25.787C84.1504 25.2173 85.3444 24.8345 86.5158 24.5286C89.4568 23.7532 92.0632 23.5129 94.431 23.6104C95.7595 23.6513 96.964 23.8555 98.2258 23.9725C98.443 23.922 98.5936 23.9475 98.7535 23.9843ZM37.4463 80.139C37.653 79.5014 37.8371 78.9409 38.0118 78.369C38.5654 76.5324 39.059 74.7276 39.0982 73.1561C39.1564 70.1457 37.9965 68.1155 35.3998 67.271C34.4445 66.9506 33.2733 66.891 31.8221 67.2238C31.1265 67.3743 30.4082 67.6017 29.5779 68.0592C28.3971 68.7191 27.4534 69.5616 26.8628 70.6223C26.5881 71.1255 26.3321 71.6512 26.256 72.0813C26.1279 72.7096 26.0691 73.3172 26.1209 73.8499C26.2803 75.3483 26.9995 76.4274 27.9719 77.2908C30.0913 79.1764 33.1051 80.1078 36.8866 80.1928C37.0439 80.1742 37.2264 80.134 37.4463 80.139ZM81.373 47.0784C81.3838 46.9347 81.4064 46.8578 81.3945 46.791C81.3255 45.7155 81.0953 44.7581 80.7038 43.9188C79.6892 41.8033 77.9081 40.3792 75.4712 39.5715C73.8205 39.0361 71.9631 38.7729 69.6578 39.0643C68.9156 39.1584 68.0907 39.3613 67.2591 39.6083C66.7394 39.7627 66.1557 40.0486 65.5653 40.3786C64.7097 40.8576 64.1698 41.5098 64.0164 42.1596C63.935 42.4789 63.9389 42.7447 63.9775 43.0003C64.0745 43.7443 64.4594 44.2623 64.9456 44.694C65.6716 45.3636 66.5655 45.8709 67.6274 46.2158C71.3167 47.4946 75.851 47.7073 80.9986 47.1475C81.0772 47.1382 81.1905 47.1186 81.373 47.0784ZM61.4519 65.166C61.4972 65.012 61.5612 64.8806 61.5652 64.781C61.6294 64.2842 61.7535 63.7555 61.7576 63.2906C61.8518 60.4803 60.6678 58.6821 58.4775 57.7027C57.401 57.2356 56.1432 57.0191 54.5109 57.2371C53.7686 57.3311 52.9784 57.5237 52.0669 57.9351C50.5716 58.6323 49.5759 59.6728 49.2983 60.8514C49.1449 61.5012 49.2567 62.002 49.4444 62.438C49.8252 63.4209 50.6618 64.0155 51.641 64.4694C54.0844 65.5983 57.2903 65.77 61.0428 65.2454C61.1307 65.2474 61.2693 65.2062 61.4519 65.166ZM97.7444 25.1132C97.6285 25.0774 97.5566 25.0426 97.4939 25.019C94.7745 24.5482 91.7405 24.48 88.2292 25.0875C86.7567 25.3423 85.2362 25.6957 83.5464 26.3663C82.7961 26.6595 81.9885 27.04 81.2022 27.4984C79.5096 28.479 78.8564 29.5162 79.3931 30.2702C79.7407 30.743 80.3229 30.9776 81.0225 31.0929C83.6167 31.5166 86.7655 31.0449 90.5102 29.6232C91.8909 29.1006 93.3075 28.4127 94.7736 27.4713C95.7878 26.8187 96.7621 26.0655 97.7444 25.1132Z" fill="black"/>
<path d="M20.4975 99.6952C20.6351 99.6589 20.7476 99.6664 20.8143 99.6177C23.8976 98.4426 26.7678 97.0257 29.1325 94.9907C30.2025 94.0681 31.0512 92.9866 31.8122 91.8537C32.016 91.5638 32.2615 91.2691 32.4945 90.9963C32.5861 90.9038 32.7193 90.8065 32.8569 90.7701C32.9402 90.7605 33.1113 90.8023 33.1864 90.8756C33.2616 90.9489 33.2577 91.0928 33.2203 91.1586C31.4449 94.0069 29.181 96.4811 25.9776 98.1414C24.328 98.9873 22.6616 99.7942 20.8574 100.433C20.6657 100.496 20.4074 100.607 20.3618 100.756C19.7689 102.689 18.4413 104.133 16.8591 105.34C14.4274 107.219 11.8746 108.968 9.36771 110.774C9.22198 110.893 9.03458 111.017 8.93909 111.254C11.349 111.263 13.7422 111.233 16.1938 111.237C16.2903 111.615 16.1321 111.757 15.8863 111.846C15.5988 111.941 15.2988 112.058 14.9653 112.096C13.1144 112.268 11.2635 112.441 9.39582 112.574C8.99144 112.6 8.55357 112.548 8.12816 112.474C7.28983 112.304 6.87191 111.738 7.07928 111.099C7.51076 109.861 7.95899 108.661 8.4489 107.457C8.57753 107.094 8.86505 107 9.21136 107.144C9.51598 107.293 9.69162 107.601 9.59221 107.981C9.41406 108.637 9.17748 109.259 8.96191 109.98C9.11191 109.922 9.19528 109.913 9.26191 109.864C11.6644 107.968 14.096 106.089 16.4526 104.137C17.1687 103.563 17.7177 102.803 18.3003 102.121C18.5333 101.848 18.6619 101.485 18.8864 101.09C18.6071 101.102 18.3986 101.126 18.2319 101.145C16.9314 101.377 15.5516 101.474 14.1129 101.333C12.8285 101.194 11.5854 100.845 10.3708 100.104C9.97428 99.8424 9.54853 99.5636 9.1894 99.2361C7.59005 97.8015 7.32429 96.0082 8.54388 94.8225C10.0214 93.3201 13.6224 92.5362 17.0281 94.5619C18.9563 95.6922 20.0305 97.2284 20.3964 99.0511C20.4384 99.2512 20.468 99.4732 20.4975 99.6952ZM10.6908 99.473C11.8134 100.102 12.873 100.431 13.9447 100.532C15.6545 100.745 17.2386 100.563 18.7432 100.246C19.0891 100.185 19.2014 99.9881 19.2509 99.6955C19.4358 98.1371 18.2067 96.1885 16.458 95.2219C14.0834 93.9176 10.8398 94.0045 9.35798 95.4459C8.34647 96.4027 8.59478 97.7472 9.95185 98.9228C10.2191 99.1379 10.528 99.3483 10.6908 99.473Z" fill="black"/>
</svg>
