<svg width="508" height="375" viewBox="0 0 508 375" fill="none" xmlns="http://www.w3.org/2000/svg">
<g clip-path="url(#clip0_15_190)">
<g clip-path="url(#clip1_15_190)">
<path d="M316.772 258.148V332.154H178.297C162.52 332.154 149.684 315.554 149.684 295.151C149.684 274.748 162.52 258.148 178.297 258.148H316.772Z" fill="#F2F2F2"/>
<path d="M320.173 331.584C320.173 332.339 319.949 333.063 319.55 333.597C319.152 334.13 318.611 334.43 318.047 334.431H175.831C168.107 334.431 160.699 330.322 155.238 323.009C149.776 315.696 146.708 305.778 146.708 295.436C146.708 285.093 149.776 275.175 155.238 267.862C160.699 260.549 168.107 256.441 175.831 256.441H318.047C318.611 256.441 319.152 256.74 319.551 257.274C319.949 257.808 320.173 258.532 320.173 259.287C320.173 260.042 319.949 260.766 319.551 261.3C319.152 261.833 318.611 262.133 318.047 262.133H175.831C169.235 262.133 162.908 265.642 158.244 271.887C153.58 278.133 150.959 286.603 150.959 295.436C150.959 304.268 153.58 312.739 158.244 318.984C162.908 325.229 169.235 328.738 175.831 328.738H318.047C318.611 328.738 319.152 329.038 319.55 329.572C319.949 330.106 320.173 330.83 320.173 331.584Z" fill="#E4D678"/>
<path d="M316.772 275.227H167.966C167.853 275.227 167.745 275.167 167.665 275.06C167.585 274.953 167.541 274.808 167.541 274.657C167.541 274.506 167.585 274.362 167.665 274.255C167.745 274.148 167.853 274.088 167.966 274.088H316.772C316.885 274.088 316.993 274.148 317.073 274.255C317.152 274.362 317.197 274.506 317.197 274.657C317.197 274.808 317.152 274.953 317.073 275.06C316.993 275.167 316.885 275.227 316.772 275.227Z" fill="#CCCCCC"/>
<path d="M316.772 288.889H167.966C167.853 288.889 167.745 288.829 167.665 288.722C167.585 288.616 167.541 288.471 167.541 288.32C167.541 288.169 167.585 288.024 167.665 287.917C167.745 287.811 167.853 287.751 167.966 287.751H316.772C316.885 287.751 316.993 287.811 317.073 287.917C317.152 288.024 317.197 288.169 317.197 288.32C317.197 288.471 317.152 288.616 317.073 288.722C316.993 288.829 316.885 288.889 316.772 288.889Z" fill="#CCCCCC"/>
<path d="M316.772 302.552H167.966C167.853 302.552 167.745 302.492 167.665 302.385C167.585 302.278 167.541 302.133 167.541 301.982C167.541 301.831 167.585 301.686 167.665 301.58C167.745 301.473 167.853 301.413 167.966 301.413H316.772C316.885 301.413 316.993 301.473 317.073 301.58C317.152 301.686 317.197 301.831 317.197 301.982C317.197 302.133 317.152 302.278 317.073 302.385C316.993 302.492 316.885 302.552 316.772 302.552Z" fill="#CCCCCC"/>
<path d="M316.772 316.214H167.966C167.853 316.214 167.745 316.154 167.665 316.047C167.585 315.941 167.541 315.796 167.541 315.645C167.541 315.494 167.585 315.349 167.665 315.242C167.745 315.136 167.853 315.076 167.966 315.076H316.772C316.885 315.076 316.993 315.136 317.073 315.242C317.152 315.349 317.197 315.494 317.197 315.645C317.197 315.796 317.152 315.941 317.073 316.047C316.993 316.154 316.885 316.214 316.772 316.214Z" fill="#CCCCCC"/>
<path d="M423.792 272.079L389.114 329.705L281.287 213.375C269.002 200.12 266.785 176.411 276.345 160.523C285.906 144.636 303.68 142.494 315.965 155.748L423.792 272.079Z" fill="#F2F2F2"/>
<path d="M392.03 332.119C391.676 332.707 391.162 333.082 390.602 333.163C390.041 333.244 389.48 333.023 389.041 332.55L278.3 213.076C272.285 206.587 268.442 197.165 267.616 186.882C266.79 176.599 269.048 166.298 273.894 158.245C278.741 150.191 285.778 145.046 293.457 143.94C301.137 142.833 308.831 145.857 314.845 152.346L425.586 271.821C425.804 272.055 425.985 272.345 426.119 272.673C426.253 273.001 426.337 273.361 426.367 273.733C426.397 274.105 426.372 274.481 426.293 274.839C426.214 275.198 426.084 275.533 425.909 275.824C425.733 276.115 425.517 276.357 425.272 276.536C425.027 276.716 424.758 276.828 424.48 276.868C424.202 276.908 423.922 276.874 423.654 276.769C423.386 276.663 423.136 276.488 422.919 276.253L312.178 156.779C309.634 154.033 306.712 151.985 303.578 150.752C300.443 149.518 297.158 149.124 293.909 149.591C290.661 150.058 287.513 151.377 284.646 153.473C281.778 155.57 279.247 158.402 277.197 161.808C275.148 165.215 273.619 169.128 272.699 173.326C271.779 177.523 271.486 181.922 271.836 186.271C272.186 190.62 273.173 194.835 274.739 198.673C276.306 202.512 278.422 205.9 280.967 208.643L391.708 328.117C392.147 328.591 392.427 329.279 392.488 330.029C392.548 330.78 392.383 331.532 392.03 332.119Z" fill="#CCCCCC"/>
<path d="M415.79 285.377L299.917 160.367C299.874 160.32 299.838 160.262 299.811 160.196C299.784 160.131 299.767 160.059 299.761 159.985C299.755 159.91 299.76 159.835 299.776 159.763C299.792 159.692 299.818 159.625 299.853 159.566C299.888 159.508 299.931 159.46 299.98 159.424C300.029 159.388 300.083 159.366 300.138 159.358C300.194 159.35 300.25 159.356 300.304 159.377C300.357 159.398 300.407 159.433 300.451 159.48L416.323 284.491C416.367 284.538 416.403 284.596 416.43 284.661C416.457 284.727 416.474 284.799 416.48 284.873C416.486 284.948 416.481 285.023 416.465 285.095C416.449 285.167 416.423 285.233 416.388 285.292C416.353 285.35 416.31 285.398 416.261 285.434C416.212 285.47 416.158 285.493 416.102 285.501C416.047 285.509 415.99 285.502 415.937 285.481C415.883 285.459 415.833 285.424 415.79 285.377V285.377Z" fill="#CCCCCC"/>
<path d="M409.387 296.016L293.515 171.006C293.427 170.911 293.371 170.773 293.359 170.623C293.347 170.473 293.38 170.323 293.451 170.206C293.522 170.088 293.624 170.013 293.736 169.997C293.848 169.981 293.961 170.025 294.048 170.119L409.921 295.13C409.965 295.176 410.001 295.234 410.028 295.3C410.054 295.366 410.071 295.438 410.077 295.512C410.083 295.586 410.078 295.662 410.063 295.733C410.047 295.805 410.021 295.872 409.986 295.93C409.951 295.989 409.907 296.037 409.858 296.073C409.809 296.109 409.755 296.131 409.7 296.139C409.644 296.147 409.588 296.14 409.535 296.119C409.481 296.098 409.431 296.063 409.387 296.016Z" fill="#CCCCCC"/>
<path d="M402.986 306.655L287.113 181.644C287.025 181.55 286.969 181.412 286.957 181.262C286.945 181.112 286.978 180.962 287.049 180.844C287.119 180.726 287.222 180.651 287.334 180.635C287.446 180.619 287.559 180.663 287.647 180.758L403.519 305.768C403.563 305.815 403.599 305.873 403.625 305.939C403.652 306.004 403.669 306.076 403.675 306.151C403.681 306.225 403.676 306.3 403.66 306.372C403.645 306.444 403.618 306.511 403.583 306.569C403.548 306.627 403.505 306.675 403.456 306.711C403.407 306.747 403.353 306.77 403.298 306.778C403.242 306.786 403.186 306.779 403.133 306.758C403.079 306.737 403.029 306.702 402.986 306.655V306.655Z" fill="#CCCCCC"/>
<path d="M396.584 317.294L280.711 192.283C280.668 192.236 280.632 192.178 280.605 192.113C280.578 192.047 280.561 191.975 280.555 191.901C280.549 191.826 280.554 191.751 280.57 191.679C280.586 191.608 280.612 191.541 280.647 191.483C280.682 191.424 280.725 191.376 280.774 191.34C280.823 191.304 280.877 191.282 280.932 191.274C280.988 191.266 281.044 191.273 281.098 191.294C281.151 191.315 281.201 191.35 281.245 191.397L397.117 316.407C397.161 316.454 397.197 316.512 397.224 316.577C397.251 316.643 397.268 316.715 397.274 316.789C397.28 316.864 397.275 316.939 397.259 317.011C397.243 317.083 397.217 317.15 397.182 317.208C397.147 317.266 397.104 317.315 397.055 317.35C397.005 317.386 396.952 317.409 396.896 317.417C396.841 317.425 396.784 317.418 396.731 317.397C396.677 317.376 396.627 317.341 396.584 317.294Z" fill="#CCCCCC"/>
<path d="M431.092 335H115.622C115.51 335 115.402 334.94 115.322 334.833C115.242 334.727 115.197 334.582 115.197 334.431C115.197 334.28 115.242 334.135 115.322 334.028C115.402 333.921 115.51 333.861 115.622 333.861H431.092C431.205 333.861 431.313 333.921 431.392 334.028C431.472 334.135 431.517 334.28 431.517 334.431C431.517 334.582 431.472 334.727 431.392 334.833C431.313 334.94 431.205 335 431.092 335Z" fill="#CCCCCC"/>
<path d="M258.936 250.37L254.076 250.369L251.764 225.267L258.938 225.268L258.936 250.37Z" fill="#FFB8B8"/>
<path d="M250.604 248.51H259.978V256.412H244.702C244.702 255.375 244.854 254.347 245.151 253.388C245.448 252.429 245.882 251.558 246.43 250.824C246.978 250.091 247.629 249.509 248.345 249.111C249.061 248.714 249.829 248.51 250.604 248.51Z" fill="#2F2E41"/>
<path d="M209.279 250.37L204.419 250.369L202.107 225.267L209.281 225.268L209.279 250.37Z" fill="#FFB8B8"/>
<path d="M200.947 248.51H210.321V256.412H195.045C195.045 255.375 195.198 254.347 195.494 253.388C195.791 252.429 196.226 251.558 196.774 250.824C197.322 250.091 197.972 249.509 198.688 249.111C199.404 248.714 200.172 248.51 200.947 248.51Z" fill="#2F2E41"/>
<path d="M225.514 64.1675V61.3212C225.514 56.452 226.959 51.7824 229.53 48.3394C232.102 44.8964 235.589 42.9622 239.226 42.9622H239.226C242.862 42.9622 246.35 44.8964 248.921 48.3394C251.492 51.7824 252.937 56.452 252.937 61.3212V64.1675C252.937 67.6778 251.896 71.0444 250.042 73.5265C248.188 76.0087 245.674 77.4031 243.052 77.4031H235.399C234.101 77.4031 232.816 77.0608 231.616 76.3956C230.417 75.7305 229.327 74.7555 228.409 73.5265C227.492 72.2975 226.763 70.8384 226.267 69.2326C225.77 67.6268 225.514 65.9057 225.514 64.1675Z" fill="#2F2E41"/>
<path d="M239.226 78.3825C244.993 78.3825 249.668 72.1226 249.668 64.4006C249.668 56.6786 244.993 50.4187 239.226 50.4187C233.458 50.4187 228.783 56.6786 228.783 64.4006C228.783 72.1226 233.458 78.3825 239.226 78.3825Z" fill="#FFB8B8"/>
<path d="M182.426 112.455C182.849 111.919 183.356 111.514 183.909 111.269C184.462 111.023 185.049 110.943 185.628 111.034C186.207 111.125 186.764 111.385 187.259 111.795C187.755 112.206 188.178 112.757 188.497 113.409L197.449 111.142L199.804 118.09L187.13 121.054C186.275 121.7 185.273 121.904 184.314 121.627C183.355 121.35 182.505 120.612 181.925 119.552C181.345 118.492 181.076 117.184 181.168 115.876C181.26 114.568 181.708 113.35 182.426 112.455V112.455Z" fill="#FFB8B8"/>
<path d="M231.085 87.1878L231.202 87.4253L216.523 100.373L191.753 110.963C191.425 111.105 191.143 111.394 190.956 111.782C190.77 112.17 190.689 112.633 190.728 113.091L191.268 119.323C191.292 119.599 191.359 119.865 191.464 120.104C191.569 120.343 191.711 120.551 191.879 120.712C192.048 120.874 192.24 120.987 192.443 121.044C192.646 121.1 192.856 121.1 193.058 121.041L216.37 114.351C217.498 114.029 218.565 113.4 219.504 112.503L235.995 96.7932C236.593 96.2206 237.07 95.4506 237.38 94.558C237.689 93.6655 237.821 92.6808 237.763 91.6997C237.702 90.7172 237.452 89.7728 237.036 88.9593C236.62 88.1457 236.054 87.4911 235.392 87.0599C234.73 86.6286 233.995 86.4355 233.26 86.4996C232.526 86.5636 231.816 86.8827 231.202 87.4253L231.085 87.1878Z" fill="#CCCCCC"/>
<path d="M254.162 243.246C253.789 243.246 253.424 243.101 253.112 242.828C252.799 242.555 252.553 242.166 252.403 241.709L230.12 167.988C230.068 167.828 229.981 167.693 229.87 167.601C229.759 167.51 229.63 167.466 229.5 167.476C229.37 167.486 229.245 167.549 229.143 167.656C229.04 167.764 228.965 167.911 228.926 168.078L210.747 239.848C210.67 240.182 210.543 240.491 210.374 240.757C210.205 241.023 209.997 241.24 209.762 241.394C209.528 241.548 209.273 241.636 209.012 241.653C208.751 241.671 208.491 241.616 208.247 241.494L202.15 238.433C201.82 238.268 201.529 237.984 201.312 237.611C201.094 237.239 200.958 236.793 200.919 236.324C198.176 204.335 222.092 123.591 222.334 122.779L222.401 122.555L244.202 129.012L244.247 129.078C252.945 141.783 260.094 221.916 261.439 237.851C261.489 238.426 261.391 239.007 261.162 239.499C260.932 239.99 260.584 240.362 260.176 240.553L254.795 243.101C254.592 243.197 254.378 243.246 254.162 243.246Z" fill="#2F2E41"/>
<path d="M235.379 131.611C230.096 131.611 224.208 130.2 222.395 124.38L222.353 124.247L222.41 124.123C223.84 120.98 225.731 115.618 224.715 114.611C222.713 112.629 221.741 109.368 221.828 104.919C222.015 95.2609 226.93 86.6859 234.058 83.5814H234.058C236.047 82.7288 238.072 82.0308 240.122 81.4908C241.616 81.0871 243.159 81.1315 244.639 81.6208C246.119 82.1102 247.499 83.0323 248.681 84.321C249.878 85.6182 250.846 87.2542 251.515 89.1116C252.183 90.969 252.536 93.0017 252.549 95.0635C252.623 105.385 251.437 119.76 245.358 129.63C245.073 130.088 244.677 130.396 244.239 130.501C241.314 131.21 238.35 131.581 235.379 131.611Z" fill="#CCCCCC"/>
<path d="M233.414 131.224C233.701 129.843 234.384 128.671 235.314 127.96C236.243 127.25 237.345 127.059 238.379 127.43C238.59 127.509 238.796 127.611 238.994 127.736L245.791 119.453L250.518 123.717L240.798 135.234C240.359 136.294 239.668 137.126 238.835 137.6C238.002 138.073 237.075 138.159 236.201 137.845C235.692 137.659 235.215 137.339 234.799 136.904C234.383 136.47 234.035 135.929 233.776 135.313C233.517 134.697 233.351 134.019 233.289 133.317C233.227 132.615 233.269 131.904 233.414 131.224Z" fill="#FFB8B8"/>
<path d="M244.715 131.329C244.274 131.33 243.846 131.125 243.505 130.751L240.825 127.819C240.601 127.574 240.422 127.265 240.3 126.915C240.179 126.564 240.118 126.182 240.122 125.795C240.127 125.409 240.196 125.029 240.326 124.684C240.456 124.339 240.642 124.037 240.871 123.802L252.113 112.258C252.246 112.12 252.334 111.918 252.356 111.695C252.379 111.471 252.335 111.245 252.233 111.065L245.295 98.7824C244.489 97.3602 244.084 95.6018 244.153 93.8187C244.222 92.0357 244.76 90.3428 245.672 89.0398C246.632 87.6512 247.947 86.7968 249.356 86.6459C250.765 86.495 252.164 87.0588 253.277 88.2253L253.321 88.2873L260.567 102.179C261.35 103.001 261.981 104.055 262.41 105.258C262.839 106.461 263.055 107.781 263.04 109.114C263.025 110.447 262.78 111.757 262.325 112.942C261.869 114.128 261.215 115.156 260.414 115.947L245.854 130.827C245.524 131.153 245.125 131.329 244.715 131.329Z" fill="#CCCCCC"/>
<path d="M229.976 60.4672V53.53L239.226 48.1219L248.045 53.53V60.4672C248.045 60.7692 247.956 61.0588 247.796 61.2723C247.637 61.4858 247.421 61.6058 247.195 61.6058H230.826C230.601 61.6058 230.385 61.4858 230.225 61.2723C230.066 61.0588 229.976 60.7692 229.976 60.4672Z" fill="#2F2E41"/>
<path d="M238.801 43.8825C237.441 38.054 240.297 31.3742 244.52 29.0672C248.742 26.7601 253.794 28.3728 257.357 32.1844C260.92 35.9961 263.131 41.7052 264.302 47.6067C265.473 53.5082 265.695 59.662 265.912 65.7615C271.1 67.0374 274.629 75.2764 272.832 81.9165C271.034 88.5565 264.382 91.8552 259.789 88.3847C255.195 84.9141 253.864 75.5848 257.18 70.0919C258.748 67.4928 259.625 64.2671 259.67 60.9258C259.715 57.5845 258.926 54.3186 257.428 51.6453C255.931 48.972 253.81 47.0441 251.401 46.167C248.993 45.29 246.435 45.5138 244.132 46.8032C241.575 48.2348 238.367 44.5151 238.801 43.8825Z" fill="#2F2E41"/>
<path d="M180.508 85.5435C174.297 85.4889 168.163 83.6902 162.503 80.2636C162.167 80.0626 161.881 79.7347 161.68 79.3198C161.48 78.905 161.374 78.4212 161.376 77.9273V57.1956C161.377 56.5165 161.578 55.8653 161.937 55.385C162.296 54.9048 162.782 54.6347 163.289 54.6339H197.727C198.234 54.6347 198.721 54.9048 199.079 55.3851C199.438 55.8653 199.64 56.5165 199.64 57.1956V77.9274C199.642 78.4212 199.536 78.905 199.336 79.3199C199.136 79.7347 198.85 80.0626 198.513 80.2636C192.853 83.6903 186.72 85.489 180.508 85.5435Z" fill="#E4D678"/>
<path d="M180.503 68.7484C180.248 68.7487 179.995 68.6806 179.76 68.5482L152.451 53.1212C152.099 52.9223 151.799 52.5867 151.591 52.1577C151.382 51.7286 151.275 51.2259 151.282 50.7142C151.289 50.2025 151.41 49.7053 151.63 49.2868C151.85 48.8683 152.158 48.5476 152.516 48.3661L179.825 34.4942C180.265 34.2698 180.751 34.2712 181.19 34.4981L208.134 48.37C208.489 48.5529 208.796 48.8737 209.014 49.2912C209.232 49.7087 209.353 50.204 209.36 50.7137C209.367 51.2234 209.26 51.7243 209.054 52.1523C208.847 52.5803 208.549 52.9161 208.199 53.1165L181.256 68.5432C181.018 68.6789 180.762 68.7487 180.503 68.7484Z" fill="#E4D678"/>
<path d="M164.565 81.6743C165.973 81.6743 167.116 80.145 167.116 78.2586C167.116 76.3722 165.973 74.843 164.565 74.843C163.156 74.843 162.014 76.3722 162.014 78.2586C162.014 80.145 163.156 81.6743 164.565 81.6743Z" fill="#3F3D56"/>
<path opacity="0.2" d="M208.293 50.9267L181.349 66.3535C181.139 66.4737 180.913 66.5361 180.684 66.5369C180.456 66.5376 180.23 66.4767 180.019 66.3578L152.71 50.9312C152.367 50.7421 152.081 50.4054 151.897 49.9742C151.777 50.2538 151.702 50.5645 151.678 50.8856C151.654 51.2068 151.682 51.5311 151.759 51.8369C151.836 52.1428 151.96 52.4233 152.124 52.6597C152.288 52.8962 152.488 53.0832 152.71 53.2083L180.019 68.6349C180.23 68.7538 180.456 68.8147 180.684 68.8139C180.913 68.8132 181.139 68.7508 181.349 68.6306L208.293 53.2038C208.514 53.0775 208.712 52.8899 208.875 52.6534C209.038 52.4169 209.162 52.1367 209.238 51.8315C209.314 51.5263 209.341 51.2029 209.317 50.8828C209.293 50.5626 209.218 50.2529 209.098 49.9742C208.915 50.4019 208.632 50.7367 208.293 50.9267Z" fill="black"/>
<path d="M164.779 78.2453C164.891 78.2453 165 78.1853 165.079 78.0786C165.159 77.9718 165.204 77.827 165.204 77.676V58.6274L179.226 51.7875C179.339 51.7898 179.448 51.732 179.529 51.6268C179.61 51.5216 179.656 51.3777 179.658 51.2267C179.659 51.0758 179.616 50.9301 179.538 50.8217C179.459 50.7134 179.352 50.6512 179.239 50.649L165.217 57.4889C165.104 57.4854 164.991 57.5126 164.887 57.5689C164.782 57.6252 164.687 57.7093 164.607 57.8163C164.527 57.922 164.463 58.0482 164.419 58.1875C164.375 58.3268 164.353 58.4764 164.354 58.6274V77.676C164.354 77.827 164.398 77.9718 164.478 78.0785C164.558 78.1853 164.666 78.2453 164.779 78.2453Z" fill="#3F3D56"/>
</g>
<path fill-rule="evenodd" clip-rule="evenodd" d="M428.255 6.04324L428.255 6.04339L428.255 6.04365L428.255 6.04376L428.255 6.04387C427.855 6.55303 427.467 7.04742 427.04 7.5C426.076 8.40758 425.12 9.3232 424.164 10.2377L424.164 10.2383L424.163 10.2384L424.163 10.2385C421.751 12.5482 419.345 14.8511 416.842 17L416.841 17.0013C404.189 27.5008 391.536 38.0004 378.978 48.5L354.617 68.9L354.617 68.9001C354.239 69.2001 353.862 69.5 353.578 69.8C352.917 70.4 352.162 70.8 351.312 70C350.557 69.3 350.746 68.3 351.218 67.6C351.784 66.6 352.54 65.6 353.295 64.8C353.751 64.361 354.207 63.9199 354.664 63.4782L354.665 63.4769L354.665 63.4769C357.328 60.9004 360.011 58.3045 362.832 56C383.228 39.4 403.717 22.9 424.963 7.5C426.096 6.6 427.323 5.8 428.551 5C428.551 5 428.645 5.1 428.929 5.2C428.695 5.48255 428.474 5.7651 428.255 6.04324ZM502.768 26.9C502.438 27.1 502.107 27.325 501.777 27.5501C501.446 27.775 501.116 28 500.785 28.2C486.999 36.8 473.402 45.7 460.088 55.2C439.693 69.6 419.486 84.4 400.224 100.4C396.636 103.4 393.142 106.4 389.648 109.4C389.082 109.9 388.61 110.3 388.043 110.7C387.288 111.3 386.532 111.6 385.777 110.9C385.022 110.2 385.21 109.2 385.683 108.5C386.249 107.5 386.91 106.5 387.76 105.7L387.873 105.59L387.873 105.59C390.199 103.323 392.616 100.968 395.125 99C423.83 76 453.29 54.5 484.733 36C488.321 33.8668 491.993 31.9113 495.665 29.9558L495.665 29.9557L495.665 29.9556C497.501 28.9778 499.337 28 501.163 27C501.635 26.8 502.107 26.6 502.485 26.4C502.579 26.5 502.673 26.6998 502.768 26.8996L502.768 26.9ZM442.148 11.8001L442.148 11.8C442.054 11.7 441.959 11.6 441.676 11.5C441.015 12 440.354 12.525 439.693 13.05L439.692 13.0504C439.032 13.5752 438.371 14.1001 437.71 14.6C433.904 17.5067 430.094 20.4134 426.283 23.3212L426.276 23.3267L426.276 23.3271C408.064 37.2233 389.821 51.1433 371.708 65.2C366.614 69.1042 361.805 73.3108 356.978 77.5336C355.005 79.2595 353.029 80.9882 351.029 82.7C349.613 83.9 348.385 85.3 347.158 86.7C346.686 87.2 346.213 87.8 346.025 88.5C345.93 89 346.119 89.7 346.402 90C346.686 90.3 347.441 90.4 347.819 90.2C348.574 89.8 349.235 89.3 349.896 88.7C352.178 86.7162 354.435 84.7065 356.69 82.6988L356.691 82.6979L356.692 82.6969L356.692 82.6967C360.688 79.1388 364.677 75.5877 368.781 72.2C378.798 63.9552 388.846 55.8102 398.89 47.6691C406.266 41.6899 413.64 35.7129 420.997 29.7C427.512 24.3 433.933 18.9 440.354 13.5C441.015 13 441.581 12.4 442.148 11.8001ZM440.826 27C439.787 28 438.749 29 437.616 29.9C434.471 32.485 431.322 35.07 428.17 37.6563L428.162 37.6628L428.162 37.6633C417.785 46.1801 407.391 54.7107 397.108 63.3C391.022 68.3918 385.015 73.5666 379.035 78.7174L379.034 78.7183L379.033 78.7194C375.736 81.5596 372.447 84.3924 369.158 87.2L369.158 87.2001L369.158 87.2001C368.403 87.9001 367.648 88.6 366.798 89.1C366.326 89.4 365.287 89.4 365.004 89.1C364.626 88.7 364.532 87.7 364.815 87.2C365.193 86.4 365.759 85.6 366.42 84.9C367.07 84.2687 367.713 83.6291 368.357 82.9883L368.357 82.9883L368.357 82.988C369.956 81.3962 371.563 79.7973 373.313 78.3C392.198 62.5 411.271 47 431.195 32.7C433.362 31.1426 435.656 29.5852 437.869 28.0829C438.356 27.7524 438.839 27.4246 439.315 27.1C439.693 26.9 440.071 26.7 440.448 26.4C440.521 26.5146 440.579 26.6 440.629 26.673C440.709 26.791 440.768 26.8764 440.826 27ZM447.369 40.4442C447.546 40.2315 447.724 40.0157 447.908 39.8C447.625 39.6 447.53 39.5 447.53 39.5C446.114 40.6 444.697 41.7 443.281 42.7C427.512 53.8 412.31 65.7 397.297 77.8C392.859 81.3 388.515 84.9 384.172 88.5C383.322 89.2 382.567 90 381.906 90.8C381.339 91.5 381.056 92.4 381.717 93.2C382.378 94.1 383.228 94 383.983 93.5C385.022 92.9 386.06 92.2 387.004 91.4C388.657 90 390.286 88.575 391.915 87.15C393.543 85.725 395.172 84.3 396.825 82.9C408.25 73.4 419.77 63.9 431.289 54.5L445.453 42.5C446.119 41.951 446.728 41.2175 447.369 40.4442Z" fill="black"/>
<path d="M248.042 16.8673C248.535 16.5787 248.803 16.4137 249.116 16.29C249.877 15.9188 250.593 15.5064 251.354 15.1353C251.668 15.0116 252.026 14.9291 252.384 14.8878C252.787 14.8466 253.19 15.0116 253.324 15.3827C253.458 15.7951 253.234 16.0838 252.876 16.29C251.623 17.0735 250.37 17.9396 249.116 18.7231C248.624 19.053 248.087 19.3417 247.55 19.5891C245.894 20.4139 244.73 20.0015 244.327 18.3107C243.79 15.9601 243.432 13.5682 243.029 11.2176C242.939 10.7639 243.074 10.2278 243.208 9.77418C243.298 9.36178 243.566 9.07311 244.193 9.11435C244.73 10.0629 245.177 11.0526 245.446 12.1248C245.715 13.1146 245.983 14.1455 246.431 15.1353C246.655 14.6404 246.878 14.1043 247.147 13.6094C247.908 12.1248 248.624 10.599 249.519 9.19683C251.354 6.2276 254.174 4.74299 257.845 4.53679C259.814 4.45431 261.784 4.70175 263.708 5.03166C264.559 5.15538 265.409 5.2791 266.26 5.40281C268.319 5.65025 270.243 5.2791 272.078 4.45431C275.033 3.13465 277.315 1.11393 278.837 -1.56662C279.912 -3.46363 280.717 -5.48436 281.299 -7.54632C281.389 -7.83499 281.344 -8.12367 281.433 -8.41234C281.523 -8.61854 281.702 -8.94845 281.881 -8.98969C282.105 -9.03093 282.552 -8.94845 282.687 -8.74225C282.91 -8.49482 283 -8.08243 283 -7.75252C283 -7.13393 282.866 -6.51533 282.731 -5.89675C281.836 -2.35017 280.314 0.948973 277.36 3.50581C275.122 5.44405 272.571 6.84619 269.572 7.42354C267.692 7.79469 265.812 7.54726 263.932 7.25858C262.768 7.09362 261.605 6.84619 260.441 6.72247C259.411 6.63999 258.382 6.68123 257.352 6.76371C255.517 6.92867 253.995 7.71221 252.832 9.03187C252.294 9.60922 251.847 10.2278 251.444 10.8876C250.414 12.6197 249.43 14.393 248.4 16.125C248.266 16.29 248.221 16.4962 248.042 16.8673Z" fill="black"/>
<path fill-rule="evenodd" clip-rule="evenodd" d="M115.581 218.3C115.547 218.549 115.513 218.85 115.476 219.177C115.44 219.497 115.401 219.841 115.357 220.185C115.312 220.504 115.199 220.794 115.087 221.084C114.727 221.925 114.413 221.954 114.008 221.171C113.356 219.895 113.131 218.445 112.997 216.966C112.991 216.879 112.984 216.792 112.977 216.705C112.956 216.444 112.935 216.183 112.952 215.922C112.974 215.545 113.019 215.139 113.154 214.791C113.379 214.182 113.918 213.892 114.435 214.037C114.952 214.153 115.312 214.646 115.401 215.371C115.449 216.009 115.486 216.647 115.527 217.368C115.544 217.663 115.562 217.972 115.581 218.3ZM123.549 224.921C123.598 224.869 123.647 224.817 123.695 224.768C123.684 224.739 123.678 224.702 123.673 224.666L123.673 224.666C123.667 224.63 123.661 224.593 123.65 224.564C123.606 224.532 123.563 224.498 123.519 224.463C123.404 224.373 123.286 224.279 123.156 224.216C121.582 223.288 119.897 223.346 118.233 223.578C118.173 223.578 118.114 223.604 118.054 223.63C118.024 223.643 117.994 223.656 117.964 223.665C117.424 223.926 117.087 224.535 117.11 225.203C117.132 225.87 117.492 226.479 118.031 226.653C118.233 226.74 118.458 226.74 118.66 226.74C119.2 226.711 119.739 226.653 120.279 226.595C121.245 226.479 122.144 226.102 122.976 225.464C123.187 225.304 123.371 225.109 123.549 224.921ZM113.221 229.727C113.131 230.568 113.086 231.38 113.042 232.221C112.997 233.091 113.019 233.961 113.221 234.86C113.356 235.469 113.558 236.02 113.963 236.426C114.323 236.774 114.502 236.745 114.75 236.252C115.064 235.614 115.289 234.947 115.357 234.193C115.445 233.202 115.514 232.198 115.583 231.198L115.583 231.198C115.619 230.677 115.655 230.156 115.694 229.64C115.694 229.524 115.694 229.379 115.671 229.234C115.604 228.538 115.199 228.016 114.705 227.9C114.21 227.755 113.693 228.074 113.446 228.683C113.334 229.002 113.266 229.379 113.221 229.727ZM113.195 226.426C113.392 226.336 113.599 226.241 113.693 225.899L113.356 225.725C111.536 225.319 109.715 225.319 107.872 225.493C107.602 225.522 107.333 225.638 107.108 225.812C106.524 226.305 106.569 227.349 107.22 227.726C107.468 227.871 107.782 227.9 108.052 227.9C108.494 227.873 108.917 227.794 109.357 227.713C109.386 227.708 109.416 227.702 109.445 227.697C110.682 227.465 111.918 227.088 113.087 226.479C113.122 226.46 113.158 226.443 113.195 226.426Z" fill="black"/>
<path fill-rule="evenodd" clip-rule="evenodd" d="M79.4116 52.6494C79.4418 52.0303 79.5023 51.4112 79.5628 50.7921C79.5533 50.6477 79.5467 50.5066 79.5403 50.3687L79.5403 50.3685C79.5265 50.0709 79.5134 49.7885 79.4721 49.5213C79.4418 49.3258 79.2604 49 79.1394 49C78.9579 49 78.6554 49.1629 78.5646 49.3258C78.3227 49.7494 78.0807 50.2382 77.9597 50.727C77.5664 52.2584 77.2337 53.7899 76.9312 55.3539C76.7497 56.2663 76.7195 57.1787 77.022 58.0584C77.2035 58.5472 77.4757 58.9382 78.0202 58.9382C78.5646 58.9382 78.8671 58.5472 79.0184 58.0584C79.1696 57.6022 79.2301 57.1135 79.2604 56.6247C79.2906 55.9567 79.3133 55.2969 79.336 54.6371C79.3587 53.9772 79.3814 53.3174 79.4116 52.6494ZM75.3281 74.4157C75.3886 74.709 75.4793 75.0348 75.9028 75.1C75.9331 74.9302 75.9646 74.7592 75.9964 74.5868L75.9964 74.5868C76.1231 73.8989 76.2537 73.1902 76.3263 72.4607C76.5985 70.3427 76.8103 68.2247 77.022 66.1067C77.0522 65.8135 77.022 65.4876 76.9615 65.1944C76.78 64.5427 76.296 64.1843 75.7818 64.282C75.2676 64.3798 75.0256 64.8034 75.0256 65.5202C75.0558 66.3674 75.0558 67.2472 75.0558 68.0944C75.0558 68.5518 75.0525 69.0092 75.0491 69.4653C75.0424 70.3741 75.0357 71.278 75.0558 72.1674C75.0558 72.792 75.1609 73.4165 75.2659 74.041C75.2869 74.1659 75.3079 74.2908 75.3281 74.4157ZM88.2525 62.7353L88.2525 62.7353L88.2525 62.7353C87.846 62.8441 87.432 62.9548 87.0342 62.9786L86.7437 63.0079C84.5744 63.2261 82.4303 63.4418 80.2586 63.5977C79.8956 63.6303 79.4721 63.5326 79.1394 63.3697C78.6857 63.1742 78.7159 62.6528 79.1394 62.4247C79.3814 62.2944 79.6536 62.2292 79.8956 62.2292C82.7692 62.1315 85.6428 62.0989 88.5164 62.3595C88.5769 62.3595 88.6374 62.3921 88.6979 62.4247V62.6202C88.5512 62.6553 88.4024 62.6952 88.2525 62.7353ZM73.7249 60.7846C74.0778 60.7521 74.4307 60.7195 74.7836 60.6978C74.7836 60.6326 74.7836 60.5674 74.8139 60.4697C74.6929 60.4534 74.5795 60.4289 74.466 60.4045C74.3526 60.3801 74.2392 60.3556 74.1182 60.3393C73.0444 60.209 71.9781 60.0787 70.9119 59.9483C69.8456 59.818 68.7793 59.6876 67.7055 59.5573C67.524 59.541 67.3425 59.5166 67.161 59.4921C66.9795 59.4677 66.798 59.4433 66.6166 59.427C66.3141 59.427 66.0721 59.5573 66.0116 59.8831C65.9511 60.2416 66.1326 60.5022 66.4351 60.6C66.6468 60.6652 66.8888 60.7303 67.1308 60.7303C67.4927 60.7462 67.8564 60.7641 68.221 60.782C69.3497 60.8374 70.4873 60.8933 71.6075 60.8933C72.3133 60.915 73.0191 60.8498 73.7249 60.7846Z" fill="black"/>
<path d="M340.565 102.562C340.501 101.7 340.479 100.805 340.393 99.9757C340.242 98.5831 339.811 97.489 338.992 96.7927C338.303 96.2291 337.613 95.7317 336.902 95.2012C336.687 95.0355 336.45 94.9028 336.234 94.7371C336.062 94.6044 335.954 94.3723 336.019 94.0739C336.062 93.875 336.213 93.7424 336.321 93.5766C336.342 93.5434 336.385 93.5434 336.428 93.5434C338.131 93.0129 339.272 91.322 340.048 89.0674C340.738 87.1112 341.298 85.0555 341.923 83.0661C342.009 82.7677 342.095 82.4693 342.203 82.2372C342.267 82.1046 342.44 81.972 342.548 82.0052C342.655 82.0383 342.785 82.2372 342.806 82.4362C342.849 82.6351 342.828 82.9004 342.806 83.1325C342.763 83.5966 342.72 84.0608 342.655 84.5582C342.397 86.5144 342.655 88.4043 342.914 90.2942C343.043 91.1231 343.366 91.7199 343.84 92.1177C344.444 92.6151 345.068 92.9466 345.736 93.1787C345.952 93.245 346.254 93.245 346.275 93.7424C346.297 94.2729 345.995 94.4055 345.758 94.505C344.724 94.9028 343.991 95.9638 343.323 97.1906C342.634 98.4505 342.095 99.8762 341.75 101.435C341.556 102.297 341.384 103.159 341.19 103.988C341.147 104.153 341.147 104.319 341.082 104.419C340.996 104.584 340.845 104.816 340.759 104.783C340.651 104.75 340.565 104.485 340.501 104.286C340.458 104.153 340.479 103.988 340.479 103.822C340.479 103.391 340.479 102.96 340.479 102.562C340.522 102.562 340.544 102.562 340.565 102.562Z" fill="black"/>
<path d="M355.565 105.562C355.501 104.7 355.479 103.805 355.393 102.976C355.242 101.583 354.811 100.489 353.992 99.7927C353.303 99.2291 352.613 98.7317 351.902 98.2012C351.687 98.0355 351.45 97.9028 351.234 97.7371C351.062 97.6044 350.954 97.3723 351.019 97.0739C351.062 96.875 351.213 96.7424 351.321 96.5766C351.342 96.5434 351.385 96.5434 351.428 96.5434C353.131 96.0129 354.272 94.322 355.048 92.0674C355.738 90.1112 356.298 88.0555 356.923 86.0661C357.009 85.7677 357.095 85.4693 357.203 85.2372C357.267 85.1046 357.44 84.972 357.548 85.0052C357.655 85.0383 357.785 85.2372 357.806 85.4362C357.849 85.6351 357.828 85.9004 357.806 86.1325C357.763 86.5966 357.72 87.0608 357.655 87.5582C357.397 89.5144 357.655 91.4043 357.914 93.2942C358.043 94.1231 358.366 94.7199 358.84 95.1177C359.444 95.6151 360.068 95.9466 360.736 96.1787C360.952 96.245 361.254 96.245 361.275 96.7424C361.297 97.2729 360.995 97.4055 360.758 97.505C359.724 97.9028 358.991 98.9638 358.323 100.191C357.634 101.451 357.095 102.876 356.75 104.435C356.556 105.297 356.384 106.159 356.19 106.988C356.147 107.153 356.147 107.319 356.082 107.419C355.996 107.584 355.845 107.816 355.759 107.783C355.651 107.75 355.565 107.485 355.501 107.286C355.458 107.153 355.479 106.988 355.479 106.822C355.479 106.391 355.479 105.96 355.479 105.562C355.522 105.562 355.544 105.562 355.565 105.562Z" fill="black"/>
<path d="M372.565 109.562C372.501 108.7 372.479 107.805 372.393 106.976C372.242 105.583 371.811 104.489 370.992 103.793C370.303 103.229 369.613 102.732 368.902 102.201C368.687 102.035 368.45 101.903 368.234 101.737C368.062 101.604 367.954 101.372 368.019 101.074C368.062 100.875 368.213 100.742 368.321 100.577C368.342 100.543 368.385 100.543 368.428 100.543C370.131 100.013 371.272 98.322 372.048 96.0674C372.738 94.1112 373.298 92.0555 373.923 90.0661C374.009 89.7677 374.095 89.4693 374.203 89.2372C374.267 89.1046 374.44 88.972 374.548 89.0052C374.655 89.0383 374.785 89.2372 374.806 89.4362C374.849 89.6351 374.828 89.9004 374.806 90.1325C374.763 90.5966 374.72 91.0608 374.655 91.5582C374.397 93.5144 374.655 95.4043 374.914 97.2942C375.043 98.1231 375.366 98.7199 375.84 99.1177C376.444 99.6151 377.068 99.9466 377.736 100.179C377.952 100.245 378.254 100.245 378.275 100.742C378.297 101.273 377.995 101.405 377.758 101.505C376.724 101.903 375.991 102.964 375.323 104.191C374.634 105.451 374.095 106.876 373.75 108.435C373.556 109.297 373.384 110.159 373.19 110.988C373.147 111.153 373.147 111.319 373.082 111.419C372.996 111.584 372.845 111.816 372.759 111.783C372.651 111.75 372.565 111.485 372.501 111.286C372.458 111.153 372.479 110.988 372.479 110.822C372.479 110.391 372.479 109.96 372.479 109.562C372.522 109.562 372.544 109.562 372.565 109.562Z" fill="black"/>
<path d="M379.565 125.562C379.501 124.7 379.479 123.805 379.393 122.976C379.242 121.583 378.811 120.489 377.992 119.793C377.303 119.229 376.613 118.732 375.902 118.201C375.687 118.035 375.45 117.903 375.234 117.737C375.062 117.604 374.954 117.372 375.019 117.074C375.062 116.875 375.213 116.742 375.321 116.577C375.342 116.543 375.385 116.543 375.428 116.543C377.131 116.013 378.272 114.322 379.048 112.067C379.738 110.111 380.298 108.056 380.923 106.066C381.009 105.768 381.095 105.469 381.203 105.237C381.267 105.105 381.44 104.972 381.548 105.005C381.655 105.038 381.785 105.237 381.806 105.436C381.849 105.635 381.828 105.9 381.806 106.132C381.763 106.597 381.72 107.061 381.655 107.558C381.397 109.514 381.655 111.404 381.914 113.294C382.043 114.123 382.366 114.72 382.84 115.118C383.444 115.615 384.068 115.947 384.736 116.179C384.952 116.245 385.254 116.245 385.275 116.742C385.297 117.273 384.995 117.405 384.758 117.505C383.724 117.903 382.991 118.964 382.323 120.191C381.634 121.451 381.095 122.876 380.75 124.435C380.556 125.297 380.384 126.159 380.19 126.988C380.147 127.153 380.147 127.319 380.082 127.419C379.996 127.584 379.845 127.816 379.759 127.783C379.651 127.75 379.565 127.485 379.501 127.286C379.458 127.153 379.479 126.988 379.479 126.822C379.479 126.391 379.479 125.96 379.479 125.562C379.522 125.562 379.544 125.562 379.565 125.562Z" fill="black"/>
<path d="M341.565 81.5619C341.501 80.6998 341.479 79.8046 341.393 78.9757C341.242 77.5831 340.811 76.489 339.992 75.7927C339.303 75.2291 338.613 74.7317 337.902 74.2012C337.687 74.0355 337.45 73.9028 337.234 73.7371C337.062 73.6044 336.954 73.3723 337.019 73.0739C337.062 72.875 337.213 72.7424 337.321 72.5766C337.342 72.5434 337.385 72.5434 337.428 72.5434C339.131 72.0129 340.272 70.322 341.048 68.0674C341.738 66.1112 342.298 64.0555 342.923 62.0661C343.009 61.7677 343.095 61.4693 343.203 61.2372C343.267 61.1046 343.44 60.972 343.548 61.0052C343.655 61.0383 343.785 61.2372 343.806 61.4362C343.849 61.6351 343.828 61.9004 343.806 62.1325C343.763 62.5966 343.72 63.0608 343.655 63.5582C343.397 65.5144 343.655 67.4043 343.914 69.2942C344.043 70.1231 344.366 70.7199 344.84 71.1177C345.444 71.6151 346.068 71.9466 346.736 72.1787C346.952 72.245 347.254 72.245 347.275 72.7424C347.297 73.2729 346.995 73.4055 346.758 73.505C345.724 73.9028 344.991 74.9638 344.323 76.1906C343.634 77.4505 343.095 78.8762 342.75 80.4346C342.556 81.2966 342.384 82.1587 342.19 82.9876C342.147 83.1534 342.147 83.3191 342.082 83.4186C341.996 83.5844 341.845 83.8165 341.759 83.7833C341.651 83.7502 341.565 83.4849 341.501 83.286C341.458 83.1534 341.479 82.9876 341.479 82.8218C341.479 82.3908 341.479 81.9597 341.479 81.5619C341.522 81.5619 341.544 81.5619 341.565 81.5619Z" fill="black"/>
</g>
<defs>
<clipPath id="clip0_15_190">
<rect width="508" height="375" fill="white"/>
</clipPath>
<clipPath id="clip1_15_190">
<rect width="316.32" height="307" fill="white" transform="translate(115.197 28)"/>
</clipPath>
</defs>
</svg>
