<svg width="173" height="44" viewBox="0 0 173 44" fill="none" xmlns="http://www.w3.org/2000/svg">
<g clip-path="url(#clip0_25_430)">
<g clip-path="url(#clip1_25_430)">
<path d="M23.3476 13.3495L15.5649 26.699L20.4291 35.173C25.0501 43.2988 25.4149 43.531 30.279 43.8792C32.9543 44.1114 35.2648 43.9953 35.2648 43.647C35.2648 43.4149 33.0759 39.4681 30.4006 34.9409L25.5365 26.699L32.9543 14.1621C37.0889 7.3132 40.737 1.39299 40.9802 0.81258C41.2234 0.348248 39.1561 0 36.2376 0H31.0087L23.3476 13.3495Z" fill="#E4D678"/>
<path d="M1.45925 8.93834C1.70246 9.40268 2.9185 11.7243 4.13454 14.1621L6.44502 18.341L3.16171 23.5648C1.45925 26.4668 0 29.1367 0 29.485C0 29.8332 2.06727 30.1815 4.62096 30.1815C8.7555 30.1815 9.48512 29.7171 13.0116 24.1452L16.7814 17.9928L13.8629 13.3495C11.4308 9.28659 10.458 8.70618 5.9586 8.35793C3.28331 8.12577 1.21604 8.35793 1.45925 8.93834Z" fill="#E4D678"/>
</g>
<path d="M35.892 22.608V29H33.321V18.0909H35.7784V19.9446H35.9062C36.1572 19.3338 36.5573 18.8485 37.1065 18.4886C37.6605 18.1288 38.3447 17.9489 39.1591 17.9489C39.9119 17.9489 40.5677 18.1098 41.1264 18.4318C41.6899 18.7538 42.1255 19.2202 42.4332 19.831C42.7457 20.4418 42.8996 21.1828 42.8949 22.054V29H40.3239V22.4517C40.3239 21.7225 40.1345 21.152 39.7557 20.7401C39.3816 20.3281 38.8632 20.1222 38.2003 20.1222C37.7505 20.1222 37.3504 20.2216 37 20.4205C36.6544 20.6146 36.3821 20.8963 36.1832 21.2656C35.9891 21.6349 35.892 22.0824 35.892 22.608ZM45.5085 29V18.0909H48.0795V29H45.5085ZM46.8011 16.5426C46.3939 16.5426 46.0436 16.4077 45.75 16.1378C45.4564 15.8632 45.3097 15.5341 45.3097 15.1506C45.3097 14.7623 45.4564 14.4332 45.75 14.1634C46.0436 13.8887 46.3939 13.7514 46.8011 13.7514C47.2131 13.7514 47.5634 13.8887 47.8523 14.1634C48.1458 14.4332 48.2926 14.7623 48.2926 15.1506C48.2926 15.5341 48.1458 15.8632 47.8523 16.1378C47.5634 16.4077 47.2131 16.5426 46.8011 16.5426ZM55.4677 33.3182C54.5444 33.3182 53.7513 33.1927 53.0884 32.9418C52.4255 32.6955 51.8929 32.3641 51.4904 31.9474C51.0879 31.5308 50.8086 31.0691 50.6523 30.5625L52.9677 30.0014C53.0719 30.2145 53.2234 30.4252 53.4222 30.6335C53.6211 30.8466 53.8886 31.0218 54.2248 31.1591C54.5657 31.3011 54.9942 31.3722 55.5103 31.3722C56.2395 31.3722 56.8432 31.1946 57.3214 30.8395C57.7996 30.4891 58.0387 29.9115 58.0387 29.1065V27.0398H57.9109C57.7783 27.3049 57.5842 27.5772 57.3285 27.8565C57.0775 28.1359 56.7437 28.3703 56.3271 28.5597C55.9151 28.7491 55.3967 28.8438 54.7717 28.8438C53.9336 28.8438 53.1737 28.6473 52.4918 28.2543C51.8147 27.8565 51.275 27.2647 50.8725 26.4787C50.4748 25.688 50.2759 24.6984 50.2759 23.5099C50.2759 22.312 50.4748 21.3011 50.8725 20.4773C51.275 19.6487 51.8171 19.0213 52.4989 18.5952C53.1808 18.1643 53.9407 17.9489 54.7788 17.9489C55.418 17.9489 55.9435 18.0578 56.3555 18.2756C56.7721 18.4886 57.1036 18.7467 57.3498 19.0497C57.596 19.348 57.783 19.6297 57.9109 19.8949H58.0529V18.0909H60.5884V29.1776C60.5884 30.1103 60.3659 30.8821 59.9208 31.4929C59.4757 32.1037 58.8673 32.5606 58.0955 32.8636C57.3237 33.1667 56.4478 33.3182 55.4677 33.3182ZM55.489 26.8267C56.0335 26.8267 56.4975 26.6941 56.881 26.429C57.2646 26.1638 57.5558 25.7827 57.7546 25.2855C57.9535 24.7884 58.0529 24.1918 58.0529 23.4957C58.0529 22.8092 57.9535 22.2079 57.7546 21.6918C57.5605 21.1757 57.2717 20.7756 56.8881 20.4915C56.5094 20.2027 56.043 20.0582 55.489 20.0582C54.9161 20.0582 54.4379 20.2074 54.0543 20.5057C53.6708 20.804 53.382 21.2135 53.1879 21.7344C52.9937 22.2505 52.8967 22.8376 52.8967 23.4957C52.8967 24.1634 52.9937 24.7481 53.1879 25.25C53.3867 25.7472 53.6779 26.1354 54.0614 26.4148C54.4497 26.6894 54.9255 26.8267 55.489 26.8267ZM65.7944 22.608V29H63.2234V14.4545H65.7376V19.9446H65.8654C66.1211 19.3291 66.5165 18.8437 67.0515 18.4886C67.5913 18.1288 68.2778 17.9489 69.1112 17.9489C69.8687 17.9489 70.5292 18.1075 71.0927 18.4247C71.6561 18.742 72.0917 19.206 72.3995 19.8168C72.712 20.4276 72.8683 21.1733 72.8683 22.054V29H70.2972V22.4517C70.2972 21.7178 70.1078 21.1473 69.729 20.7401C69.355 20.3281 68.8294 20.1222 68.1523 20.1222C67.6978 20.1222 67.2906 20.2216 66.9308 20.4205C66.5756 20.6146 66.2963 20.8963 66.0927 21.2656C65.8938 21.6349 65.7944 22.0824 65.7944 22.608ZM80.9364 18.0909V20.0795H74.6651V18.0909H80.9364ZM76.2134 15.4773H78.7844V25.7188C78.7844 26.0644 78.8365 26.3295 78.9407 26.5142C79.0496 26.6941 79.1916 26.8172 79.3668 26.8835C79.542 26.9498 79.7362 26.983 79.9492 26.983C80.1102 26.983 80.257 26.9711 80.3896 26.9474C80.5269 26.9238 80.631 26.9025 80.7021 26.8835L81.1353 28.8935C80.998 28.9408 80.8015 28.9929 80.5458 29.0497C80.2949 29.1065 79.9871 29.1397 79.6225 29.1491C78.9786 29.1681 78.3986 29.071 77.8825 28.858C77.3664 28.6402 76.9568 28.304 76.6538 27.8494C76.3555 27.3949 76.2087 26.8267 76.2134 26.1449V15.4773ZM91.5526 20.9744L89.2088 21.2301C89.1425 20.9934 89.0265 20.7708 88.8608 20.5625C88.6998 20.3542 88.482 20.1861 88.2074 20.0582C87.9328 19.9304 87.5966 19.8665 87.1989 19.8665C86.6638 19.8665 86.214 19.9825 85.8494 20.2145C85.4896 20.4465 85.312 20.7472 85.3168 21.1165C85.312 21.4337 85.428 21.6918 85.6648 21.8906C85.9063 22.0895 86.304 22.2528 86.858 22.3807L88.7188 22.7784C89.7509 23.0009 90.518 23.3537 91.0199 23.8366C91.5265 24.3196 91.7822 24.9517 91.7869 25.733C91.7822 26.4195 91.581 27.0256 91.1832 27.5511C90.7902 28.072 90.2434 28.4792 89.5426 28.7727C88.8419 29.0663 88.0369 29.2131 87.1278 29.2131C85.7926 29.2131 84.7178 28.9337 83.9034 28.375C83.089 27.8116 82.6037 27.0279 82.4474 26.0241L84.9545 25.7827C85.0682 26.2751 85.3097 26.6468 85.679 26.8977C86.0483 27.1487 86.5289 27.2741 87.1207 27.2741C87.7315 27.2741 88.2216 27.1487 88.5909 26.8977C88.965 26.6468 89.152 26.3366 89.152 25.9673C89.152 25.6548 89.0313 25.3968 88.7898 25.1932C88.553 24.9896 88.1837 24.8333 87.6818 24.7244L85.821 24.3338C84.7746 24.116 84.0005 23.7491 83.4986 23.233C82.9967 22.7121 82.7481 22.054 82.7528 21.2585C82.7481 20.5862 82.9304 20.0038 83.2997 19.5114C83.6738 19.0142 84.1922 18.6307 84.8551 18.3608C85.5227 18.0862 86.2921 17.9489 87.1634 17.9489C88.4418 17.9489 89.4479 18.2211 90.1818 18.7656C90.9205 19.3101 91.3774 20.0464 91.5526 20.9744ZM111.432 19.3622H108.776C108.7 18.9266 108.56 18.5407 108.357 18.2045C108.153 17.8636 107.9 17.5748 107.597 17.3381C107.294 17.1013 106.948 16.9238 106.56 16.8054C106.176 16.6823 105.762 16.6207 105.317 16.6207C104.526 16.6207 103.825 16.8196 103.214 17.2173C102.604 17.6103 102.125 18.188 101.78 18.9503C101.434 19.7079 101.261 20.6335 101.261 21.7273C101.261 22.84 101.434 23.7775 101.78 24.5398C102.13 25.2973 102.608 25.8703 103.214 26.2585C103.825 26.642 104.524 26.8338 105.31 26.8338C105.745 26.8338 106.152 26.777 106.531 26.6634C106.915 26.545 107.258 26.3722 107.561 26.1449C107.869 25.9176 108.127 25.6383 108.335 25.3068C108.548 24.9754 108.695 24.5966 108.776 24.1705L111.432 24.1847C111.332 24.8759 111.117 25.5246 110.786 26.1307C110.459 26.7367 110.03 27.2718 109.5 27.7358C108.97 28.1951 108.349 28.5549 107.639 28.8153C106.929 29.071 106.141 29.1989 105.274 29.1989C103.996 29.1989 102.855 28.9029 101.851 28.3111C100.847 27.7192 100.056 26.8646 99.4787 25.7472C98.901 24.6297 98.6122 23.2898 98.6122 21.7273C98.6122 20.16 98.9034 18.8201 99.4858 17.7074C100.068 16.59 100.861 15.7353 101.865 15.1435C102.869 14.5516 104.005 14.2557 105.274 14.2557C106.084 14.2557 106.837 14.3693 107.533 14.5966C108.229 14.8239 108.849 15.1577 109.393 15.598C109.938 16.0336 110.385 16.5687 110.736 17.2031C111.091 17.8329 111.323 18.5526 111.432 19.3622ZM116.87 29.2202C116.179 29.2202 115.556 29.0971 115.002 28.8509C114.453 28.5999 114.018 28.2306 113.696 27.7429C113.378 27.2552 113.22 26.6539 113.22 25.9389C113.22 25.3234 113.333 24.8144 113.561 24.4119C113.788 24.0095 114.098 23.6875 114.491 23.446C114.884 23.2045 115.327 23.0223 115.819 22.8991C116.316 22.7713 116.83 22.679 117.36 22.6222C118 22.5559 118.518 22.4967 118.916 22.4446C119.314 22.3878 119.602 22.3026 119.782 22.1889C119.967 22.0705 120.059 21.8883 120.059 21.642V21.5994C120.059 21.0644 119.901 20.6501 119.583 20.3565C119.266 20.063 118.809 19.9162 118.213 19.9162C117.583 19.9162 117.083 20.0535 116.714 20.3281C116.35 20.6027 116.103 20.9271 115.975 21.3011L113.575 20.9602C113.764 20.2973 114.077 19.7434 114.512 19.2983C114.948 18.8485 115.481 18.5123 116.11 18.2898C116.74 18.0625 117.436 17.9489 118.199 17.9489C118.724 17.9489 119.247 18.0104 119.768 18.1335C120.289 18.2566 120.765 18.4602 121.196 18.7443C121.627 19.0237 121.972 19.4048 122.233 19.8878C122.498 20.3707 122.63 20.9744 122.63 21.6989V29H120.159V27.5014H120.074C119.917 27.8045 119.697 28.0885 119.413 28.3537C119.134 28.6141 118.781 28.8248 118.355 28.9858C117.933 29.142 117.439 29.2202 116.87 29.2202ZM117.538 27.331C118.054 27.331 118.502 27.2292 118.88 27.0256C119.259 26.8172 119.55 26.5426 119.754 26.2017C119.962 25.8608 120.066 25.4891 120.066 25.0866V23.8011C119.986 23.8674 119.849 23.929 119.654 23.9858C119.465 24.0426 119.252 24.0923 119.015 24.1349C118.779 24.1776 118.544 24.2154 118.312 24.2486C118.08 24.2817 117.879 24.3101 117.708 24.3338C117.325 24.3859 116.982 24.4711 116.679 24.5895C116.376 24.7079 116.136 24.8736 115.961 25.0866C115.786 25.295 115.699 25.5649 115.699 25.8963C115.699 26.3698 115.871 26.7273 116.217 26.9688C116.563 27.2102 117.003 27.331 117.538 27.331ZM130.663 18.0909V20.0795H124.392V18.0909H130.663ZM125.94 15.4773H128.511V25.7188C128.511 26.0644 128.563 26.3295 128.667 26.5142C128.776 26.6941 128.918 26.8172 129.093 26.8835C129.269 26.9498 129.463 26.983 129.676 26.983C129.837 26.983 129.984 26.9711 130.116 26.9474C130.253 26.9238 130.358 26.9025 130.429 26.8835L130.862 28.8935C130.725 28.9408 130.528 28.9929 130.272 29.0497C130.021 29.1065 129.714 29.1397 129.349 29.1491C128.705 29.1681 128.125 29.071 127.609 28.858C127.093 28.6402 126.683 28.304 126.38 27.8494C126.082 27.3949 125.935 26.8267 125.94 26.1449V15.4773ZM135.952 29.2202C135.261 29.2202 134.638 29.0971 134.085 28.8509C133.535 28.5999 133.1 28.2306 132.778 27.7429C132.46 27.2552 132.302 26.6539 132.302 25.9389C132.302 25.3234 132.415 24.8144 132.643 24.4119C132.87 24.0095 133.18 23.6875 133.573 23.446C133.966 23.2045 134.409 23.0223 134.901 22.8991C135.398 22.7713 135.912 22.679 136.442 22.6222C137.082 22.5559 137.6 22.4967 137.998 22.4446C138.396 22.3878 138.684 22.3026 138.864 22.1889C139.049 22.0705 139.141 21.8883 139.141 21.642V21.5994C139.141 21.0644 138.983 20.6501 138.665 20.3565C138.348 20.063 137.891 19.9162 137.295 19.9162C136.665 19.9162 136.165 20.0535 135.796 20.3281C135.432 20.6027 135.185 20.9271 135.058 21.3011L132.657 20.9602C132.846 20.2973 133.159 19.7434 133.594 19.2983C134.03 18.8485 134.563 18.5123 135.192 18.2898C135.822 18.0625 136.518 17.9489 137.281 17.9489C137.806 17.9489 138.329 18.0104 138.85 18.1335C139.371 18.2566 139.847 18.4602 140.278 18.7443C140.709 19.0237 141.054 19.4048 141.315 19.8878C141.58 20.3707 141.712 20.9744 141.712 21.6989V29H139.241V27.5014H139.156C138.999 27.8045 138.779 28.0885 138.495 28.3537C138.216 28.6141 137.863 28.8248 137.437 28.9858C137.015 29.142 136.521 29.2202 135.952 29.2202ZM136.62 27.331C137.136 27.331 137.584 27.2292 137.962 27.0256C138.341 26.8172 138.632 26.5426 138.836 26.2017C139.044 25.8608 139.148 25.4891 139.148 25.0866V23.8011C139.068 23.8674 138.931 23.929 138.737 23.9858C138.547 24.0426 138.334 24.0923 138.097 24.1349C137.861 24.1776 137.626 24.2154 137.394 24.2486C137.162 24.2817 136.961 24.3101 136.79 24.3338C136.407 24.3859 136.064 24.4711 135.761 24.5895C135.458 24.7079 135.219 24.8736 135.043 25.0866C134.868 25.295 134.781 25.5649 134.781 25.8963C134.781 26.3698 134.953 26.7273 135.299 26.9688C135.645 27.2102 136.085 27.331 136.62 27.331ZM146.869 14.4545V29H144.298V14.4545H146.869ZM154.271 29.2131C153.206 29.2131 152.282 28.9787 151.501 28.5099C150.72 28.0412 150.114 27.3854 149.683 26.5426C149.257 25.6998 149.044 24.715 149.044 23.5881C149.044 22.4612 149.257 21.474 149.683 20.6264C150.114 19.7789 150.72 19.1207 151.501 18.652C152.282 18.1832 153.206 17.9489 154.271 17.9489C155.336 17.9489 156.26 18.1832 157.041 18.652C157.822 19.1207 158.426 19.7789 158.852 20.6264C159.283 21.474 159.498 22.4612 159.498 23.5881C159.498 24.715 159.283 25.6998 158.852 26.5426C158.426 27.3854 157.822 28.0412 157.041 28.5099C156.26 28.9787 155.336 29.2131 154.271 29.2131ZM154.285 27.1534C154.863 27.1534 155.346 26.9948 155.734 26.6776C156.122 26.3556 156.411 25.9247 156.6 25.3849C156.795 24.8452 156.892 24.2438 156.892 23.581C156.892 22.9134 156.795 22.3097 156.6 21.7699C156.411 21.2254 156.122 20.7921 155.734 20.4702C155.346 20.1482 154.863 19.9872 154.285 19.9872C153.693 19.9872 153.201 20.1482 152.808 20.4702C152.42 20.7921 152.128 21.2254 151.934 21.7699C151.745 22.3097 151.65 22.9134 151.65 23.581C151.65 24.2438 151.745 24.8452 151.934 25.3849C152.128 25.9247 152.42 26.3556 152.808 26.6776C153.201 26.9948 153.693 27.1534 154.285 27.1534ZM166.425 33.3182C165.501 33.3182 164.708 33.1927 164.045 32.9418C163.383 32.6955 162.85 32.3641 162.447 31.9474C162.045 31.5308 161.766 31.0691 161.609 30.5625L163.925 30.0014C164.029 30.2145 164.18 30.4252 164.379 30.6335C164.578 30.8466 164.846 31.0218 165.182 31.1591C165.523 31.3011 165.951 31.3722 166.467 31.3722C167.196 31.3722 167.8 31.1946 168.278 30.8395C168.757 30.4891 168.996 29.9115 168.996 29.1065V27.0398H168.868C168.735 27.3049 168.541 27.5772 168.286 27.8565C168.035 28.1359 167.701 28.3703 167.284 28.5597C166.872 28.7491 166.354 28.8438 165.729 28.8438C164.891 28.8438 164.131 28.6473 163.449 28.2543C162.772 27.8565 162.232 27.2647 161.83 26.4787C161.432 25.688 161.233 24.6984 161.233 23.5099C161.233 22.312 161.432 21.3011 161.83 20.4773C162.232 19.6487 162.774 19.0213 163.456 18.5952C164.138 18.1643 164.898 17.9489 165.736 17.9489C166.375 17.9489 166.901 18.0578 167.312 18.2756C167.729 18.4886 168.061 18.7467 168.307 19.0497C168.553 19.348 168.74 19.6297 168.868 19.8949H169.01V18.0909H171.545V29.1776C171.545 30.1103 171.323 30.8821 170.878 31.4929C170.433 32.1037 169.824 32.5606 169.053 32.8636C168.281 33.1667 167.405 33.3182 166.425 33.3182ZM166.446 26.8267C166.991 26.8267 167.455 26.6941 167.838 26.429C168.222 26.1638 168.513 25.7827 168.712 25.2855C168.911 24.7884 169.01 24.1918 169.01 23.4957C169.01 22.8092 168.911 22.2079 168.712 21.6918C168.518 21.1757 168.229 20.7756 167.845 20.4915C167.466 20.2027 167 20.0582 166.446 20.0582C165.873 20.0582 165.395 20.2074 165.011 20.5057C164.628 20.804 164.339 21.2135 164.145 21.7344C163.951 22.2505 163.854 22.8376 163.854 23.4957C163.854 24.1634 163.951 24.7481 164.145 25.25C164.344 25.7472 164.635 26.1354 165.018 26.4148C165.407 26.6894 165.883 26.8267 166.446 26.8267Z" fill="white"/>
</g>
<defs>
<clipPath id="clip0_25_430">
<rect width="173" height="44" fill="white"/>
</clipPath>
<clipPath id="clip1_25_430">
<rect width="41" height="44" fill="white"/>
</clipPath>
</defs>
</svg>
