<svg width="41" height="44" viewBox="0 0 41 44" fill="none" xmlns="http://www.w3.org/2000/svg">
<path d="M23.3476 13.3495L15.5649 26.699L20.4291 35.173C25.0501 43.2988 25.4149 43.531 30.279 43.8792C32.9543 44.1114 35.2648 43.9953 35.2648 43.647C35.2648 43.4149 33.0759 39.4681 30.4006 34.9409L25.5365 26.699L32.9543 14.1621C37.0889 7.3132 40.737 1.39299 40.9802 0.812579C41.2234 0.348249 39.1561 9.0335e-07 36.2376 9.0335e-07H31.0087L23.3476 13.3495Z" fill="#E4D678"/>
<path d="M1.45925 8.93841C1.70246 9.40274 2.9185 11.7244 4.13454 14.1621L6.44502 18.3411L3.16171 23.5648C1.45925 26.4669 0 29.1368 0 29.485C0 29.8333 2.06727 30.1815 4.62096 30.1815C8.7555 30.1815 9.48512 29.7172 13.0116 24.1452L16.7814 17.9928L13.8629 13.3495C11.4308 9.28665 10.458 8.70624 5.9586 8.35799C3.28331 8.12583 1.21604 8.35799 1.45925 8.93841Z" fill="#E4D678"/>
</svg>
